<svg width="169" height="146" viewBox="0 0 169 146" fill="none" xmlns="http://www.w3.org/2000/svg">
<path opacity="0.1" d="M79.2598 67.2256L21.8105 100.53L92.3129 141.394L149.762 108.095L79.2598 67.2256Z" fill="black"/>
<path d="M72.7285 66.4719L79.2597 62.6846V70.2545L72.7285 74.0418V66.4719Z" fill="#AFA116"/>
<path d="M72.7285 66.4719L138.012 104.312V111.878L72.7285 74.0419V66.4719Z" fill="#FFC118"/>
<path d="M138.012 104.312L144.538 100.53V108.095L138.012 111.878V104.312Z" fill="#F4A40F"/>
<path d="M79.2597 62.6846L144.539 100.53L138.012 104.312L72.7285 66.4719L79.2597 62.6846Z" fill="#EA8C07"/>
<path d="M75.9922 36.1689V68.3631L82.5187 64.5804V32.3862L75.9922 36.1689Z" fill="#F4A40F"/>
<path d="M72.7285 66.4718L75.9936 68.3631V36.1689L72.7331 34.2776L72.7285 66.4718Z" fill="#FFC118"/>
<path d="M75.9922 60.7929L79.2573 58.9016V66.4715L75.9922 68.3629V60.7929Z" fill="#7B4510"/>
<path d="M75.9922 60.793L134.745 94.8507V102.421L75.9922 68.3629V60.793Z" fill="#8D5323"/>
<path d="M134.744 94.8513L138.009 92.96V100.53L134.744 102.421V94.8513Z" fill="#653214"/>
<path d="M79.2578 58.9016L138.01 92.9594L134.745 94.8507L75.9922 60.7929L79.2578 58.9016Z" fill="#78421B"/>
<path d="M75.9922 52.5622L79.2573 50.6709V58.2408L75.9922 60.1322V52.5622Z" fill="#7B4510"/>
<path d="M75.9922 52.5618L134.745 86.6195V94.1895L75.9922 60.1317V52.5618Z" fill="#8D5323"/>
<path d="M134.744 86.6196L138.009 84.7283V92.2982L134.744 94.1895V86.6196Z" fill="#653214"/>
<path d="M79.2578 50.6709L138.01 84.7287L134.745 86.62L75.9922 52.5622L79.2578 50.6709Z" fill="#78421B"/>
<path d="M75.9922 44.3308L79.2573 42.4395V50.0094L75.9922 51.9007V44.3308Z" fill="#7B4510"/>
<path d="M75.9922 44.3308L134.745 78.3886V85.9585L75.9922 51.9007V44.3308Z" fill="#8D5323"/>
<path d="M134.744 78.3886L138.009 76.4973V84.0626L134.744 85.9586V78.3886Z" fill="#653214"/>
<path d="M79.2578 42.4395L138.01 76.4972L134.745 78.3886L75.9922 44.3308L79.2578 42.4395Z" fill="#78421B"/>
<path d="M75.9922 36.0996L79.2573 34.2083V41.7782L75.9922 43.6695V36.0996Z" fill="#7B4510"/>
<path d="M75.9922 36.0996L134.745 70.1574V77.7273L75.9922 43.6695V36.0996Z" fill="#8D5323"/>
<path d="M134.744 70.157L138.009 68.2656V75.8356L134.744 77.7269V70.157Z" fill="#653214"/>
<path d="M79.2578 34.2083L138.01 68.266L134.745 70.1574L75.9922 36.0996L79.2578 34.2083Z" fill="#78421B"/>
<path d="M138.012 72.1179V104.312L144.538 100.529V68.3352L138.012 72.1179Z" fill="#F4A40F"/>
<path d="M134.744 102.421L138.009 104.313V72.1184L134.744 70.2271V102.421Z" fill="#FFC118"/>
<path d="M72.7285 26.7077L79.2597 22.925V30.495L72.7285 34.2776V26.7077Z" fill="#AFA116"/>
<path d="M72.7285 26.7078L138.012 64.5482V72.1181L72.7285 34.2777V26.7078Z" fill="#FFC118"/>
<path d="M138.012 64.5483L144.538 60.7656V68.3356L138.012 72.1182V64.5483Z" fill="#F4A40F"/>
<path d="M79.2597 22.925L144.539 60.7655L138.012 64.5481L72.7285 26.7077L79.2597 22.925Z" fill="#EA8C07"/>
<path d="M33.5596 89.1771L72.7281 66.4719V74.0419L33.5596 96.7424V89.1771Z" fill="#7B4510"/>
<path d="M40.0879 92.9596L79.2564 70.2544V77.8243L40.0879 100.53V92.9596Z" fill="#F4A40F"/>
<path d="M33.5596 89.1772V96.7426L40.0907 100.53V92.9599L33.5596 89.1772Z" fill="#FFC118"/>
<path d="M33.5596 89.1771L40.0907 92.9598L79.2592 70.2546L72.728 66.4719L33.5596 89.1771Z" fill="#EA8C07"/>
<path d="M36.8262 83.4982L75.9947 60.793V68.3629L36.8262 91.0681V83.4982Z" fill="#7B4510"/>
<path d="M40.0879 85.3898L79.2564 62.6846V70.2545L40.0879 92.9597V85.3898Z" fill="#653214"/>
<path d="M36.8262 83.498V91.068L40.0912 92.9593V85.3894L36.8262 83.498Z" fill="#8D5323"/>
<path d="M36.8262 83.4982L40.0917 85.3895L79.2602 62.6843L75.9946 60.793L36.8262 83.4982Z" fill="#52250F"/>
<path d="M36.8262 75.267L75.9947 52.5618V60.1317L36.8262 82.8369V75.267Z" fill="#7B4510"/>
<path d="M40.0879 77.1583L79.2564 54.4531V62.0231L40.0879 84.7282V77.1583Z" fill="#653214"/>
<path d="M36.8262 75.2671V82.837L40.0912 84.7283V77.1584L36.8262 75.2671Z" fill="#8D5323"/>
<path d="M36.8262 75.267L40.0917 77.1583L79.2602 54.4531L75.9946 52.5618L36.8262 75.267Z" fill="#52250F"/>
<path d="M36.8262 67.036L75.9947 44.3308V51.9007L36.8262 74.6059V67.036Z" fill="#7B4510"/>
<path d="M40.0879 68.9273L79.2564 46.2222V53.7921L40.0879 76.4973V68.9273Z" fill="#653214"/>
<path d="M36.8262 67.0359V74.6058L40.0912 76.4971V68.9272L36.8262 67.0359Z" fill="#8D5323"/>
<path d="M36.8262 67.036L40.0917 68.9273L79.2602 46.2221L75.9946 44.3308L36.8262 67.036Z" fill="#52250F"/>
<path d="M36.8262 58.8048L75.9947 36.0996V43.6695L36.8262 66.3747V58.8048Z" fill="#7B4510"/>
<path d="M40.0879 60.6959L79.2564 37.9907V45.5607L40.0879 68.2658V60.6959Z" fill="#653214"/>
<path d="M36.8262 58.8047V66.3746L40.0912 68.266V60.696L36.8262 58.8047Z" fill="#8D5323"/>
<path d="M36.8262 58.8048L40.0917 60.6961L79.2602 37.9909L75.9946 36.0996L36.8262 58.8048Z" fill="#78421B"/>
<path d="M33.5596 49.4129L72.7281 26.7078V34.2777L33.5596 56.9829V49.4129Z" fill="#7B4510"/>
<path d="M40.0879 53.1957L79.2564 30.4951V38.0604L40.0879 60.7656V53.1957Z" fill="#F4A40F"/>
<path d="M33.5596 49.4131V56.983L40.0907 60.7657V53.2004L33.5596 49.4131Z" fill="#C0B030"/>
<path d="M33.5596 49.4129L40.0907 53.2002L79.2592 30.495L72.728 26.7078L33.5596 49.4129Z" fill="#EA8C07"/>
<path d="M40.0879 89.1771L79.2564 66.4719V70.2546L40.0879 92.9598V89.1771Z" fill="#7B4510"/>
<path d="M40.0879 89.1772L95.575 121.339V125.126L40.0879 92.9599V89.1772Z" fill="#8D5323"/>
<path d="M95.582 121.339L134.751 98.6382V102.421L95.582 125.126V121.339Z" fill="#7B4510"/>
<path d="M79.2564 66.4719L134.744 98.6384L95.575 121.339L40.0879 89.1771L79.2564 66.4719Z" fill="#66310A"/>
<path d="M92.3125 123.235L131.486 100.53V108.095L92.3125 130.8V123.235Z" fill="#7B4510"/>
<path d="M98.8438 127.018L138.012 104.312V111.882L98.8438 134.588V127.018Z" fill="#F4A40F"/>
<path d="M92.3125 123.235V130.8L98.8436 134.587V127.017L92.3125 123.235Z" fill="#C0B030"/>
<path d="M92.3125 123.235L98.8436 127.018L138.012 104.312L131.486 100.53L92.3125 123.235Z" fill="#EA8C07"/>
<path d="M92.3125 115.665L131.486 92.96V100.53L92.3125 123.235V115.665Z" fill="#7B4510"/>
<path d="M95.582 117.556L134.751 94.8508V102.421L95.582 125.126V117.556Z" fill="#653214"/>
<path d="M92.3125 115.665V123.235L95.5776 125.126V117.556L92.3125 115.665Z" fill="#8D5323"/>
<path d="M92.3125 115.665L95.5781 117.556L134.747 94.8513L131.486 92.96L92.3125 115.665Z" fill="#52250F"/>
<path d="M92.3125 107.433L131.486 84.7283V92.2982L92.3125 115.003V107.433Z" fill="#7B4510"/>
<path d="M95.582 109.325L134.751 86.6196V94.1896L95.582 116.895V109.325Z" fill="#653214"/>
<path d="M92.3125 107.433V115.003L95.5776 116.895V109.325L92.3125 107.433Z" fill="#8D5323"/>
<path d="M92.3125 107.433L95.5781 109.325L134.747 86.6196L131.486 84.7283L92.3125 107.433Z" fill="#52250F"/>
<path d="M92.3125 99.2025L131.486 76.4973V84.0673L92.3125 106.772V99.2025Z" fill="#7B4510"/>
<path d="M95.582 101.094L134.751 78.3884V85.9584L95.582 108.664V101.094Z" fill="#653214"/>
<path d="M92.3125 99.2021V106.772L95.5776 108.663V101.093L92.3125 99.2021Z" fill="#8D5323"/>
<path d="M92.3125 99.2025L95.5781 101.094L134.747 78.3886L131.486 76.4973L92.3125 99.2025Z" fill="#52250F"/>
<path d="M92.3125 90.9708L131.486 68.2656V75.8356L92.3125 98.5361V90.9708Z" fill="#7B4510"/>
<path d="M95.582 92.8624L134.751 70.1572V77.7272L95.582 100.432V92.8624Z" fill="#653214"/>
<path d="M92.3125 90.9714V98.5367L95.5776 100.433V92.8628L92.3125 90.9714Z" fill="#8D5323"/>
<path d="M92.3125 90.9708L95.5781 92.8621L134.747 70.157L131.486 68.2656L92.3125 90.9708Z" fill="#78421B"/>
<path d="M92.3125 83.4708L131.486 60.7656V68.3356L92.3125 91.0407V83.4708Z" fill="#7B4510"/>
<path d="M98.8438 87.2535L138.012 64.5483V72.1183L98.8438 94.8235V87.2535Z" fill="#F4A40F"/>
<path d="M92.3125 83.4705V91.0404L98.8436 94.8231V87.2531L92.3125 83.4705Z" fill="#C0B030"/>
<path d="M131.486 60.7656L138.012 64.5483L98.8436 87.2535L92.3125 83.4708L131.486 60.7656Z" fill="#EA8C07"/>
<path d="M27.0303 92.9599L33.5568 89.1772V96.7426L27.0303 100.53V92.9599Z" fill="#AFA116"/>
<path d="M27.0303 92.96L92.3095 130.8V138.37L27.0303 100.53V92.96Z" fill="#FFC118"/>
<path d="M92.3125 130.8L98.8436 127.017V134.583L92.3125 138.37V130.8Z" fill="#F4A40F"/>
<path d="M33.5568 89.1772L98.8407 127.018L92.3095 130.8L27.0303 92.9599L33.5568 89.1772Z" fill="#EA8C07"/>
<path d="M33.5596 85.3894L36.8246 83.498V91.068L33.5596 92.9593V85.3894Z" fill="#7B4510"/>
<path d="M33.5596 85.3896L92.3123 119.447V127.017L33.5596 92.9596V85.3896Z" fill="#8D5323"/>
<path d="M92.3125 119.447L95.5776 117.556V125.126L92.3125 127.017V119.447Z" fill="#653214"/>
<path d="M36.8251 83.498L95.5779 117.556L92.3123 119.447L33.5596 85.3894L36.8251 83.498Z" fill="#78421B"/>
<path d="M33.5596 77.1584L36.8246 75.2671V82.837L33.5596 84.7283V77.1584Z" fill="#7B4510"/>
<path d="M33.5596 77.1584L92.3123 111.216V118.786L33.5596 84.7284V77.1584Z" fill="#8D5323"/>
<path d="M92.3125 111.216L95.5776 109.325V116.895L92.3125 118.786V111.216Z" fill="#653214"/>
<path d="M36.8251 75.2671L95.5779 109.325L92.3123 111.216L33.5596 77.1584L36.8251 75.2671Z" fill="#78421B"/>
<path d="M33.5596 68.9272L36.8246 67.0359V74.6058L33.5596 76.4971V68.9272Z" fill="#7B4510"/>
<path d="M33.5596 68.9275L92.3123 102.985V110.555L33.5596 76.4974V68.9275Z" fill="#8D5323"/>
<path d="M92.3125 102.985L95.5776 101.094V108.664L92.3125 110.555V102.985Z" fill="#653214"/>
<path d="M36.8251 67.0359L95.5779 101.094L92.3123 102.985L33.5596 68.9272L36.8251 67.0359Z" fill="#78421B"/>
<path d="M33.5596 60.696L36.8246 58.8047V66.3746L33.5596 68.266V60.696Z" fill="#7B4510"/>
<path d="M33.5596 60.696L92.3123 94.7538V102.324L33.5596 68.266V60.696Z" fill="#8D5323"/>
<path d="M92.3125 94.7539L95.5776 92.8625V100.432L92.3125 102.324V94.7539Z" fill="#653214"/>
<path d="M36.8251 58.8047L95.5779 92.8625L92.3123 94.7538L33.5596 60.696L36.8251 58.8047Z" fill="#78421B"/>
<path d="M92.3137 98.6057V130.8L85.7871 127.017V94.823L92.3137 98.6057Z" fill="#FFC118"/>
<path d="M92.3125 98.6057V130.8L98.8436 127.017V94.823L92.3125 98.6057Z" fill="#F4A40F"/>
<path d="M33.5568 64.5483V96.7425L27.0303 92.9598V60.7656L33.5568 64.5483Z" fill="#FFC118"/>
<path d="M33.5596 96.7425L36.8246 94.8512V62.657L33.5642 64.5483L33.5596 96.7425Z" fill="#F4A40F"/>
<path d="M27.0303 53.1957L33.5568 49.4131V56.983L27.0303 60.7657V53.1957Z" fill="#AFA116"/>
<path d="M27.0303 53.1958L92.3095 91.0362V98.6062L27.0303 60.7657V53.1958Z" fill="#FFC118"/>
<path d="M92.3125 91.0358L98.8436 87.2532V94.8231L92.3125 98.6058V91.0358Z" fill="#F4A40F"/>
<path d="M33.5568 49.4131L98.8407 87.2535L92.3095 91.0362L27.0303 53.1957L33.5568 49.4131Z" fill="#EA8C07"/>
<path d="M53.1465 68.3352L66.2042 75.9005V91.0358L53.1465 83.4705V68.3352Z" fill="#FFF200"/>
<path d="M50.9346 69.6162L63.9923 77.1861V92.3214L50.9346 84.7515V69.6162Z" fill="#FFC118"/>
<path d="M66.2007 91.0359L63.9902 92.3214V77.1862L66.2007 75.9006V91.0359Z" fill="#F4A40F"/>
<path d="M50.9346 69.6161L53.1454 68.3352L66.2031 75.9005L63.9923 77.1861L50.9346 69.6161Z" fill="#EA8C07"/>
<path d="M66.2031 91.0358L72.7297 87.2531L66.2031 83.4705V91.0358Z" fill="#F4A40F"/>
<path d="M56.1422 83.891V83.9188C56.1422 83.9558 56.1422 83.9974 56.1422 84.0344V84.0714C56.14 84.1145 56.14 84.1577 56.1422 84.2008C56.1422 84.2563 56.1422 84.3072 56.1744 84.3627C56.1744 84.3858 56.1744 84.4089 56.1744 84.432C56.1744 84.4552 56.1744 84.4829 56.1975 84.5107V84.5523C56.2116 84.601 56.2285 84.6489 56.2481 84.6956C56.2481 84.6956 56.2481 84.728 56.2481 84.7465L56.3034 84.8714L56.3725 85.0101C56.3725 85.0471 56.4093 85.0841 56.4323 85.1211L56.5198 85.2644C56.5479 85.3109 56.5786 85.3557 56.6119 85.3985L56.6764 85.4864L56.7179 85.5326C56.7445 85.5686 56.7738 85.6026 56.8054 85.6344L56.833 85.6667L56.9021 85.7315L56.9803 85.8101L57.054 85.8748L57.1738 85.9627L57.2428 86.0089L57.3073 86.0505L57.427 86.1107H57.4685L57.556 86.1477H57.5882H57.6711H57.7034H57.7909H57.9843H58.0441H58.0994H58.1408L58.2145 86.1153C58.3446 86.0209 58.4479 85.894 58.5142 85.7472C58.5804 85.6004 58.6073 85.4388 58.5921 85.2783V82.0644H58.6152C59.3842 81.9719 59.8448 81.2968 59.8448 80.261C59.8348 79.6649 59.7113 79.0763 59.481 78.5269L55.9902 80.5615L56.1422 83.891Z" fill="#231F20"/>
<path d="M57.4708 75.9607C57.2128 75.7746 56.9106 75.66 56.5945 75.6284C56.2785 75.5967 55.9597 75.6491 55.6702 75.7804H55.6287L55.5827 75.8081L55.5228 75.859C55.5048 75.8715 55.4879 75.8854 55.4721 75.9006L55.3754 75.9977C55.3574 76.0184 55.3405 76.04 55.3248 76.0625L55.2511 76.1596C55.234 76.1863 55.2186 76.2141 55.205 76.2428L55.1452 76.3492C55.1309 76.3807 55.1186 76.4132 55.1083 76.4463C55.0886 76.4851 55.0717 76.5253 55.0577 76.5665L55.03 76.6729C55.0166 76.7169 55.0058 76.7616 54.9978 76.807C54.9957 76.8254 54.9957 76.844 54.9978 76.8625C55 76.8824 55 76.9026 54.9978 76.9226C54.9978 76.9734 54.9978 77.0151 54.9978 77.0659C54.9955 77.1091 54.9955 77.1523 54.9978 77.1954C54.9978 77.2324 54.9978 77.2601 54.9978 77.2971V77.4775C55.0001 77.516 55.0001 77.5546 54.9978 77.5931C54.9978 77.6301 54.9978 77.6625 54.9978 77.6994C54.9978 77.7364 54.9978 77.7411 54.9978 77.7596C54.9956 77.7795 54.9956 77.7997 54.9978 77.8197C54.9955 77.8489 54.9955 77.8783 54.9978 77.9075V78.0093C54.9978 78.0509 54.9978 78.0879 54.9978 78.1295V78.1989C54.9978 78.2636 55.0254 78.3283 55.0439 78.3931C55.0623 78.4578 55.0715 78.5133 55.0899 78.5688V78.6197L55.1314 78.7538V78.7908C55.1314 78.8509 55.1728 78.911 55.1958 78.9711C55.1966 78.9881 55.1966 79.005 55.1958 79.022C55.2189 79.0867 55.2465 79.1515 55.2741 79.2162C55.3017 79.2809 55.2741 79.2671 55.3063 79.2902C55.3386 79.3133 55.3708 79.4289 55.4077 79.4983L55.4445 79.5815C55.4675 79.6278 55.4906 79.674 55.5182 79.7203C55.5458 79.7665 55.6241 79.9098 55.6794 79.9977C55.7074 80.0472 55.7381 80.0951 55.7715 80.1411L55.859 80.2659L55.9188 80.3492C55.9557 80.4047 55.9925 80.4555 56.034 80.5064V80.5388L59.5247 78.5041C59.1087 77.4692 58.3932 76.5833 57.4708 75.9607Z" fill="#534E6B"/>
<path d="M55.7566 80.113L55.7889 80.1592L55.8167 80.2055L55.8444 80.2425C55.8109 80.1965 55.7801 80.1486 55.752 80.0991L55.7566 80.113Z" fill="#967386"/>
<path d="M55.8639 80.2708V80.2987L55.8965 80.35L55.9245 80.3873L55.8359 80.2615L55.8639 80.2708Z" fill="#967386"/>
<path d="M56.0283 80.5111L56.0791 80.5805C56.0957 80.5997 56.1111 80.6197 56.1254 80.6406C56.0838 80.5898 56.0468 80.5389 56.0098 80.4834L56.0283 80.5111Z" fill="#967386"/>
<path d="M59.6888 11.5815C51.7461 16.179 45.1495 22.7956 40.5626 30.7656C35.9757 38.7355 33.5604 47.7778 33.5596 56.9826L85.7857 26.7075C85.7857 13.2647 71.2864 4.85778 59.6888 11.5815Z" fill="#EA940A"/>
<path d="M59.686 11.5817C62.3237 10.0358 65.3231 9.22118 68.3773 9.22118C71.4316 9.22118 74.431 10.0358 77.0686 11.5817L70.5789 7.81755H70.5375L70.4408 7.76206C67.8099 6.24363 64.8261 5.44993 61.7915 5.4613C58.7568 5.47267 55.779 6.2887 53.1595 7.8268C45.2162 12.4225 38.619 19.038 34.032 27.0075C29.445 34.9769 27.03 44.0189 27.0303 53.2233L33.5568 57.0106C33.5528 47.8011 35.9658 38.7531 40.5529 30.7778C45.14 22.8026 51.7393 16.1816 59.686 11.5817Z" fill="#F4AD13"/>
<path d="M88.9941 81.8294C89.8808 74.0978 92.5595 66.6824 96.8156 60.1777C101.072 53.673 106.787 48.26 113.502 44.3728C115.679 43.0884 118.158 42.41 120.683 42.4075C124.435 42.43 128.036 43.8945 130.747 46.5C133.132 48.7884 134.646 51.8425 135.025 55.1335L88.9941 81.8294Z" fill="#B2BECB"/>
<path d="M113.5 44.3865C115.677 43.1021 118.156 42.4237 120.681 42.4212C123.215 42.4319 125.704 43.1078 127.898 44.3819L75.7363 14.1437C73.5351 12.8596 71.0371 12.1772 68.4913 12.1646C65.9643 12.1681 63.484 12.8481 61.3061 14.1345C54.5902 18.0208 48.8752 23.4337 44.6198 29.9386C40.3644 36.4435 37.6871 43.8594 36.8027 51.5911L89.0243 81.8616C89.911 74.13 92.5897 66.7146 96.8457 60.2099C101.102 53.7052 106.817 48.2922 113.532 44.405L113.5 44.3865Z" fill="#8D5323"/>
<path d="M40.7451 37.5643L40.4688 38.0471L92.934 68.3199L93.2104 67.8371L40.7451 37.5643Z" fill="#78421B"/>
<path d="M46.9365 26.5685L46.6602 27.0491L98.8857 57.3219L99.1621 56.8413L46.9365 26.5685Z" fill="#78421B"/>
<path d="M56.6152 17.0397L56.3389 17.5203L108.56 47.7908L108.837 47.3102L56.6152 17.0397Z" fill="#78421B"/>
<path d="M67.2959 11.9726L67.0195 12.4531L119.241 42.7236L119.517 42.2431L67.2959 11.9726Z" fill="#78421B"/>
<path d="M86.3016 79.9795C85.9634 82.3892 85.7941 84.8199 85.795 87.2534L33.5596 56.9829C33.5587 54.5478 33.728 52.1157 34.0662 49.7043L86.3016 79.9795Z" fill="#F4AD13"/>
<path d="M86.8867 76.5433C86.6503 77.6778 86.4522 78.8216 86.2926 79.9746L34.0664 49.7041L37.332 47.8127L86.8867 76.5433Z" fill="#E18606"/>
<path d="M92.3125 91.0406C92.3133 81.8358 94.7286 72.7935 99.3155 64.8236C103.902 56.8536 110.499 50.237 118.442 45.6395C130.044 38.9158 144.539 47.3181 144.539 60.7655L92.3125 91.0406Z" fill="#EA940A"/>
<path d="M99.3047 80.3588C100.758 74.1592 103.46 68.3238 107.244 63.2118C111.028 58.0998 115.814 53.8194 121.307 50.6339C123.064 49.5937 125.066 49.0429 127.106 49.0386C131.873 49.0386 136.958 52.2756 138.39 57.6675L99.3047 80.3588Z" fill="#653214"/>
<path d="M138.399 57.667C137.911 55.8887 137.01 54.252 135.77 52.8911C134.53 51.5302 132.986 50.4839 131.265 49.8381C133.154 51.3506 134.51 53.4318 135.134 55.7757L100.622 75.8081C100.105 77.3009 99.6651 78.8197 99.3047 80.3583L138.399 57.667Z" fill="#D77703"/>
<path d="M138.399 57.6672L99.3086 80.3261C99.6725 78.7909 100.115 77.2695 100.626 75.7759L135.124 55.7759L138.399 57.6672Z" fill="#E18606"/>
<path d="M118.443 45.6395C121.081 44.0936 124.08 43.279 127.134 43.279C130.188 43.279 133.188 44.0936 135.825 45.6395L129.336 41.8754L129.294 41.8522L129.198 41.7968C126.566 40.2792 123.583 39.4861 120.548 39.4974C117.514 39.5088 114.536 40.3243 111.916 41.8615C103.974 46.4594 97.3776 53.076 92.7907 61.0459C88.2039 69.0158 85.7884 78.0579 85.7871 87.2626L92.3137 91.0499C92.3128 81.8435 94.7274 72.7994 99.3144 64.8276C103.901 56.8559 110.499 50.2378 118.443 45.6395Z" fill="#F4AD13"/>
<path fill-rule="evenodd" clip-rule="evenodd" d="M158.317 45.6806L158.383 45.8399C158.781 46.9152 158.752 48.1032 158.303 49.1582C158.073 49.7106 157.736 50.212 157.312 50.6333C156.888 51.0547 156.385 51.3879 155.833 51.6137H155.688C154.615 52.0005 153.438 51.9721 152.385 51.5341C151.835 51.3023 151.336 50.9637 150.917 50.5378C150.497 50.1118 150.166 49.6069 149.941 49.052L149.875 48.8927C149.477 47.8173 149.505 46.6293 149.954 45.5744C150.185 45.0219 150.522 44.5206 150.946 44.0992C151.37 43.6779 151.872 43.3447 152.425 43.1189L152.583 43.0525C153.66 42.6661 154.842 42.6945 155.899 43.1321C156.447 43.3641 156.944 43.7029 157.362 44.1289C157.779 44.5549 158.108 45.0598 158.33 45.6142L158.317 45.6806ZM156.824 46.1982C156.68 45.8484 156.467 45.531 156.2 45.2643C155.932 44.9977 155.614 44.7873 155.265 44.6453C154.549 44.3524 153.748 44.3524 153.032 44.6453C152.325 44.9501 151.765 45.5206 151.472 46.235C151.178 46.9493 151.174 47.7507 151.46 48.468C151.602 48.8206 151.814 49.141 152.082 49.41C152.349 49.6791 152.668 49.8913 153.019 50.0342C153.373 50.182 153.752 50.2582 154.135 50.2582C154.519 50.2582 154.898 50.182 155.252 50.0342C155.959 49.7294 156.519 49.1588 156.813 48.4445C157.106 47.7302 157.11 46.9288 156.824 46.2115V46.1982Z" fill="#F4AD13"/>
<path fill-rule="evenodd" clip-rule="evenodd" d="M155.21 90.5342C155.21 90.8056 155.103 91.0659 154.912 91.2578C154.721 91.4498 154.463 91.5576 154.193 91.5576C153.923 91.5576 153.664 91.4498 153.474 91.2578C153.283 91.0659 153.176 90.8056 153.176 90.5342V82.6616C153.176 82.3902 153.283 82.1299 153.474 81.9379C153.664 81.746 153.923 81.6382 154.193 81.6382C154.463 81.6382 154.721 81.746 154.912 81.9379C155.103 82.1299 155.21 82.3902 155.21 82.6616V90.5342Z" fill="#F4AD13"/>
<path fill-rule="evenodd" clip-rule="evenodd" d="M158.025 85.5747C158.295 85.5747 158.554 85.6825 158.744 85.8745C158.935 86.0664 159.042 86.3267 159.042 86.5982C159.042 86.8696 158.935 87.1299 158.744 87.3218C158.554 87.5137 158.295 87.6216 158.025 87.6216H150.201C149.931 87.6216 149.672 87.5137 149.482 87.3218C149.291 87.1299 149.184 86.8696 149.184 86.5982C149.184 86.3267 149.291 86.0664 149.482 85.8745C149.672 85.6825 149.931 85.5747 150.201 85.5747H158.025Z" fill="#F4AD13"/>
<path fill-rule="evenodd" clip-rule="evenodd" d="M13.053 33.8049C13.053 34.0764 12.9458 34.3367 12.755 34.5286C12.5643 34.7205 12.3056 34.8284 12.0358 34.8284C11.766 34.8284 11.5073 34.7205 11.3165 34.5286C11.1258 34.3367 11.0186 34.0764 11.0186 33.8049V25.9324C11.0186 25.6609 11.1258 25.4006 11.3165 25.2087C11.5073 25.0168 11.766 24.9089 12.0358 24.9089C12.3056 24.9089 12.5643 25.0168 12.755 25.2087C12.9458 25.4006 13.053 25.6609 13.053 25.9324V33.8049Z" fill="#F4AD13"/>
<path fill-rule="evenodd" clip-rule="evenodd" d="M15.9325 28.845C16.2022 28.845 16.461 28.9528 16.6517 29.1447C16.8425 29.3367 16.9496 29.597 16.9496 29.8684C16.9496 30.1398 16.8425 30.4001 16.6517 30.5921C16.461 30.784 16.2022 30.8918 15.9325 30.8918H8.10799C7.83822 30.8918 7.57949 30.784 7.38873 30.5921C7.19797 30.4001 7.09082 30.1398 7.09082 29.8684C7.09082 29.597 7.19797 29.3367 7.38873 29.1447C7.57949 28.9528 7.83822 28.845 8.10799 28.845H15.9325Z" fill="#F4AD13"/>
<path fill-rule="evenodd" clip-rule="evenodd" d="M19.922 88.33L20.0003 88.5189C20.4558 89.8026 20.4224 91.2106 19.9064 92.4709C19.6329 93.1243 19.2335 93.7167 18.7312 94.2139C18.2289 94.7112 17.6338 95.1034 16.98 95.368H16.7922C15.4872 95.8459 14.049 95.7963 12.7796 95.2296C11.5102 94.663 10.5085 93.6234 9.98497 92.3292L9.9067 92.156C9.43174 90.843 9.48104 89.3959 10.0442 88.1187C10.6074 86.8416 11.6407 85.8337 12.9269 85.3069L13.1148 85.2282C14.3826 84.7537 15.7832 84.7875 17.027 85.3227C17.6784 85.5976 18.2694 85.9992 18.7662 86.5045C19.263 87.0097 19.6557 87.6087 19.922 88.267V88.33ZM18.1381 88.9598C17.7783 88.1223 17.1112 87.4568 16.2758 87.1018C15.8568 86.9264 15.4074 86.8361 14.9535 86.8361C14.4996 86.8361 14.0502 86.9264 13.6312 87.1018C12.7922 87.457 12.1262 88.1305 11.7776 88.9764C11.429 89.8224 11.4259 90.7725 11.7689 91.6207C12.1223 92.4571 12.7842 93.1231 13.6155 93.4786C14.0346 93.654 14.484 93.7443 14.9378 93.7443C15.3917 93.7443 15.8411 93.654 16.2602 93.4786C16.6759 93.3092 17.0537 93.0574 17.3709 92.7382C17.6881 92.4191 17.9384 92.039 18.1068 91.6207C18.2811 91.1991 18.3708 90.7469 18.3708 90.2902C18.3708 89.8336 18.2811 89.3814 18.1068 88.9598H18.1381Z" fill="#F4AD13"/>
<path fill-rule="evenodd" clip-rule="evenodd" d="M1.40843 66.8695C1.687 66.8695 1.95929 66.7864 2.1909 66.6307C2.42252 66.475 2.60305 66.2537 2.70965 65.9947C2.81625 65.7358 2.84414 65.4509 2.78979 65.176C2.73545 64.9011 2.60131 64.6486 2.40433 64.4504C2.20736 64.2523 1.9564 64.1173 1.68319 64.0626C1.40998 64.008 1.1268 64.036 0.869436 64.1433C0.612077 64.2505 0.39212 64.4321 0.237358 64.6652C0.082596 64.8982 0 65.1722 0 65.4525C0 65.8283 0.1484 66.1887 0.412535 66.4545C0.676669 66.7202 1.03489 66.8695 1.40843 66.8695Z" fill="#F4AD13"/>
<path fill-rule="evenodd" clip-rule="evenodd" d="M5.64778 113.46C5.93075 113.463 6.20824 113.381 6.44481 113.225C6.68139 113.068 6.86631 112.845 6.97603 112.582C7.08575 112.32 7.11529 112.031 7.06084 111.751C7.0064 111.472 6.87043 111.215 6.67033 111.014C6.47023 110.812 6.21508 110.676 5.93738 110.621C5.65969 110.566 5.37206 110.596 5.11121 110.706C4.85037 110.816 4.62812 111.003 4.47283 111.241C4.31755 111.479 4.23625 111.758 4.23934 112.042C4.24341 112.417 4.39311 112.775 4.65637 113.04C4.91962 113.305 5.2755 113.455 5.64778 113.46Z" fill="#F4AD13"/>
<path fill-rule="evenodd" clip-rule="evenodd" d="M51.2493 2.86553C51.5316 2.86865 51.8085 2.78728 52.0448 2.63175C52.281 2.47622 52.4659 2.25355 52.5761 1.99203C52.6863 1.73051 52.7168 1.44194 52.6636 1.16297C52.6104 0.884005 52.4761 0.627227 52.2775 0.425267C52.079 0.223308 51.8253 0.0852816 51.5486 0.0287083C51.2719 -0.0278651 50.9848 -0.00043284 50.7237 0.107535C50.4625 0.215502 50.2392 0.399126 50.082 0.635079C49.9249 0.871032 49.8409 1.14867 49.8409 1.43271C49.8388 1.62013 49.8737 1.80609 49.9436 1.97984C50.0134 2.15359 50.1169 2.31167 50.2479 2.44493C50.3788 2.57819 50.5348 2.68398 50.7067 2.75618C50.8786 2.82837 51.0631 2.86554 51.2493 2.86553Z" fill="#F4AD13"/>
<path fill-rule="evenodd" clip-rule="evenodd" d="M167.724 67.7039C168.074 67.6669 168.397 67.5008 168.633 67.2377C168.868 66.9745 168.999 66.633 168.999 66.279C168.999 65.925 168.868 65.5835 168.633 65.3204C168.397 65.0572 168.074 64.8911 167.724 64.8541C167.525 64.833 167.324 64.8542 167.135 64.9163C166.945 64.9783 166.77 65.0798 166.622 65.2141C166.473 65.3485 166.355 65.5127 166.274 65.6962C166.192 65.8796 166.15 66.0782 166.15 66.279C166.15 66.4798 166.192 66.6784 166.274 66.8618C166.355 67.0453 166.473 67.2095 166.622 67.3439C166.77 67.4782 166.945 67.5797 167.135 67.6417C167.324 67.7038 167.525 67.725 167.724 67.7039Z" fill="#F4AD13"/>
<path fill-rule="evenodd" clip-rule="evenodd" d="M157.444 112.452C157.726 112.452 158.002 112.367 158.237 112.209C158.471 112.051 158.654 111.826 158.761 111.563C158.868 111.301 158.895 111.012 158.839 110.733C158.783 110.455 158.646 110.2 158.445 110C158.244 109.8 157.989 109.665 157.712 109.612C157.435 109.558 157.148 109.589 156.888 109.7C156.628 109.81 156.407 109.997 156.252 110.234C156.097 110.472 156.017 110.75 156.02 111.035C156.024 111.412 156.176 111.772 156.442 112.037C156.709 112.303 157.069 112.452 157.444 112.452Z" fill="#F4AD13"/>
<g opacity="0.2">
<path opacity="0.5" d="M63.4785 133.847C68.2719 136.627 68.3004 141.135 63.5354 143.915C58.7705 146.695 51.0186 146.695 46.2252 143.915C41.4318 141.135 41.4034 136.627 46.1683 133.847C50.9332 131.067 58.6804 131.067 63.4785 133.847Z" fill="black"/>
</g>
<path d="M65.1062 135.861V138.117C65.1062 139.769 64.0205 141.416 61.8632 142.678C57.5155 145.21 50.451 145.21 46.0796 142.678C43.8749 141.402 42.7607 139.726 42.7607 138.055V135.799C42.7607 137.47 43.856 139.131 46.0796 140.421C50.451 142.958 57.5202 142.958 61.8632 140.421C64.0205 139.16 65.1014 137.513 65.1062 135.861Z" fill="#ED9B20"/>
<path d="M61.8145 131.777C66.1907 134.309 66.2144 138.441 61.8667 140.954C57.519 143.467 50.4545 143.491 46.0831 140.954C41.7117 138.417 41.688 134.29 46.0309 131.777C50.3739 129.263 57.4431 129.239 61.8145 131.777Z" fill="#FFE374"/>
<path d="M61.8145 131.244C66.1907 133.776 66.2144 137.908 61.8667 140.421C57.519 142.935 50.4545 142.958 46.0831 140.421C41.7117 137.884 41.688 133.757 46.0309 131.244C50.3739 128.73 57.4431 128.706 61.8145 131.244Z" fill="#FFD830"/>
<path d="M60.1251 132.224C63.5578 134.219 63.5768 137.46 60.1631 139.436C56.7494 141.411 51.1974 141.43 47.76 139.436C44.3226 137.441 44.3084 134.2 47.7221 132.22C51.1358 130.239 56.6877 130.235 60.1251 132.224Z" fill="#FFCB00"/>
<path d="M47.7239 133.486C51.1376 131.491 56.6895 131.491 60.1269 133.486C61.573 134.324 62.4122 135.39 62.6446 136.475C62.967 134.966 62.1277 133.386 60.1269 132.224C56.6895 130.235 51.1186 130.235 47.7239 132.224C45.7468 133.376 44.9265 134.943 45.2442 136.442C45.4718 135.361 46.2968 134.314 47.7239 133.486Z" fill="#ED9B20"/>
<path d="M65.1062 133.086V135.342C65.1062 136.994 64.0205 138.641 61.8632 139.902C57.5155 142.435 50.451 142.435 46.0796 139.902C43.8749 138.627 42.7607 136.951 42.7607 135.276V133.048C42.7607 134.719 43.856 136.38 46.0796 137.67C50.451 140.202 57.5202 140.202 61.8632 137.67C64.0205 136.38 65.1014 134.738 65.1062 133.086Z" fill="#ED9B20"/>
<path d="M61.8145 128.997C66.1907 131.534 66.2144 135.661 61.8667 138.179C57.519 140.697 50.4545 140.711 46.0831 138.179C41.7117 135.647 41.688 131.515 46.0309 128.997C50.3739 126.479 57.4431 126.464 61.8145 128.997Z" fill="#FFE374"/>
<path d="M61.8145 128.464C66.1907 131.001 66.2144 135.128 61.8667 137.646C57.519 140.164 50.4545 140.179 46.0831 137.646C41.7117 135.114 41.688 130.982 46.0309 128.464C50.3739 125.946 57.4431 125.931 61.8145 128.464Z" fill="#FFD830"/>
<path d="M60.1251 129.449C63.5578 131.439 63.5768 134.685 60.1631 136.661C56.7494 138.636 51.1974 138.65 47.76 136.661C44.3226 134.671 44.3084 131.424 47.7221 129.449C51.1358 127.473 56.6877 127.454 60.1251 129.449Z" fill="#FFCB00"/>
<path d="M47.7239 130.706C51.1376 128.716 56.6895 128.716 60.1269 130.706C61.573 131.548 62.4122 132.61 62.6446 133.7C62.967 132.191 62.1277 130.61 60.1269 129.449C56.6895 127.454 51.1186 127.454 47.7239 129.449C45.7468 130.601 44.9265 132.167 45.2442 133.666C45.4718 132.572 46.2968 131.539 47.7239 130.706Z" fill="#ED9B20"/>
<path d="M65.1062 130.311V132.572C65.1062 134.219 64.0205 135.871 61.8632 137.127C57.5155 139.664 50.451 139.664 46.0796 137.127C43.8749 135.851 42.7607 134.176 42.7607 132.505V130.249C42.7607 131.924 43.856 133.581 46.0796 134.871C50.451 137.408 57.5202 137.408 61.8632 134.871C64.0205 133.609 65.1014 131.958 65.1062 130.311Z" fill="#ED9B20"/>
<path d="M61.8145 126.221C66.1907 128.759 66.2144 132.886 61.8667 135.404C57.519 137.922 50.4545 137.936 46.0831 135.404C41.7117 132.871 41.688 128.74 46.0309 126.221C50.3739 123.703 57.4431 123.684 61.8145 126.221Z" fill="#FFE374"/>
<path d="M61.8145 125.688C66.1907 128.221 66.2144 132.353 61.8667 134.866C57.519 137.379 50.4545 137.403 46.0831 134.866C41.7117 132.329 41.688 128.202 46.0309 125.688C50.3739 123.175 57.4431 123.151 61.8145 125.688Z" fill="#FFD830"/>
<path d="M60.1251 126.674C63.5578 128.664 63.5768 131.91 60.1631 133.885C56.7494 135.861 51.1974 135.875 47.76 133.885C44.3226 131.896 44.3084 128.649 47.7221 126.674C51.1358 124.698 56.6877 124.679 60.1251 126.674Z" fill="#FFCB00"/>
<path d="M47.7239 127.931C51.1376 125.936 56.6895 125.936 60.1269 127.931C61.573 128.768 62.4122 129.835 62.6446 130.925C62.967 129.411 62.1277 127.831 60.1269 126.674C56.6895 124.679 51.1186 124.679 47.7239 126.674C45.7468 127.826 44.9265 129.387 45.2442 130.891C45.4718 129.806 46.2968 128.764 47.7239 127.931Z" fill="#ED9B20"/>
<g opacity="0.2">
<path opacity="0.5" d="M135.357 124.13C140.213 126.946 140.241 131.512 135.415 134.328C130.588 137.144 122.736 137.144 117.88 134.328C113.025 131.512 112.996 126.946 117.823 124.13C122.649 121.314 130.497 121.314 135.357 124.13Z" fill="black"/>
</g>
<path d="M137.006 126.17V128.455C137.006 130.129 135.906 131.797 133.721 133.075C129.317 135.64 122.161 135.64 117.733 133.075C115.5 131.782 114.371 130.085 114.371 128.393V126.107C114.371 127.8 115.481 129.482 117.733 130.789C122.161 133.359 129.322 133.359 133.721 130.789C135.906 129.516 137.001 127.843 137.006 126.17Z" fill="#ED9B20"/>
<path d="M133.668 122.032C138.101 124.597 138.12 128.783 133.721 131.329C129.322 133.875 122.161 133.899 117.733 131.329C113.305 128.759 113.281 124.578 117.68 122.032C122.08 119.486 129.226 119.462 133.668 122.032Z" fill="#FFE374"/>
<path d="M133.668 121.493C138.101 124.058 138.12 128.243 133.721 130.789C129.322 133.335 122.161 133.359 117.733 130.789C113.305 128.219 113.281 124.039 117.68 121.493C122.08 118.947 129.226 118.923 133.668 121.493Z" fill="#FFD830"/>
<path d="M131.963 122.486C135.44 124.507 135.46 127.79 132.002 129.791C128.544 131.792 122.92 131.812 119.438 129.791C115.956 127.771 115.942 124.487 119.4 122.481C122.858 120.476 128.481 120.471 131.963 122.486Z" fill="#FFCB00"/>
<path d="M119.399 123.764C122.857 121.743 128.481 121.743 131.963 123.764C133.404 124.612 134.278 125.692 134.513 126.792C134.84 125.263 133.99 123.663 131.963 122.486C128.481 120.47 122.838 120.47 119.399 122.486C117.397 123.653 116.566 125.239 116.888 126.763C117.118 125.664 117.954 124.603 119.399 123.764Z" fill="#ED9B20"/>
<path d="M137.006 123.359V125.644C137.006 127.318 135.906 128.986 133.721 130.264C129.317 132.829 122.161 132.829 117.733 130.264C115.5 128.971 114.371 127.274 114.371 125.582V123.296C114.371 124.989 115.481 126.671 117.733 127.978C122.161 130.543 129.322 130.543 133.721 127.978C135.906 126.7 137.001 125.032 137.006 123.359Z" fill="#ED9B20"/>
<path d="M133.668 119.221C138.101 121.787 138.12 125.972 133.721 128.518C129.322 131.064 122.161 131.083 117.733 128.518C113.305 125.953 113.281 121.767 117.68 119.221C122.08 116.676 129.226 116.651 133.668 119.221Z" fill="#FFE374"/>
<path d="M133.668 118.677C138.101 121.247 138.12 125.427 133.721 127.978C129.322 130.529 122.161 130.543 117.733 127.978C113.305 125.413 113.281 121.228 117.68 118.677C122.08 116.126 129.226 116.112 133.668 118.677Z" fill="#FFD830"/>
<path d="M131.963 119.679C135.44 121.695 135.46 124.983 132.002 126.984C128.544 128.985 122.92 129.005 119.438 126.984C115.956 124.964 115.942 121.68 119.4 119.679C122.858 117.678 128.481 117.659 131.963 119.679Z" fill="#FFCB00"/>
<path d="M119.399 120.948C122.857 118.932 128.481 118.932 131.963 120.948C133.404 121.801 134.278 122.876 134.513 123.981C134.84 122.452 133.99 120.851 131.963 119.675C128.481 117.659 122.838 117.659 119.399 119.675C117.397 120.842 116.566 122.428 116.888 123.947C117.118 122.852 117.954 121.791 119.399 120.948Z" fill="#ED9B20"/>
<path d="M137.006 120.547V122.833C137.006 124.501 135.906 126.175 133.721 127.447C129.317 130.018 122.161 130.018 117.733 127.447C115.5 126.155 114.371 124.458 114.371 122.766V120.48C114.371 122.177 115.481 123.855 117.733 125.162C122.161 127.732 129.322 127.732 133.721 125.162C135.906 123.889 137.001 122.221 137.006 120.547Z" fill="#ED9B20"/>
<path d="M133.668 116.406C138.101 118.976 138.12 123.156 133.721 125.707C129.322 128.258 122.161 128.272 117.733 125.707C113.305 123.142 113.281 118.957 117.68 116.406C122.08 113.855 129.226 113.841 133.668 116.406Z" fill="#FFE374"/>
<path d="M133.668 115.865C138.101 118.43 138.12 122.616 133.721 125.162C129.322 127.708 122.161 127.732 117.733 125.162C113.305 122.592 113.281 118.411 117.68 115.865C122.08 113.319 129.226 113.295 133.668 115.865Z" fill="#FFD830"/>
<path d="M131.963 116.864C135.44 118.879 135.46 122.168 132.002 124.169C128.544 126.17 122.92 126.184 119.438 124.169C115.956 122.153 115.942 118.865 119.4 116.864C122.858 114.863 128.481 114.858 131.963 116.864Z" fill="#FFCB00"/>
<path d="M119.399 118.136C122.857 116.116 128.481 116.116 131.963 118.136C133.404 118.985 134.278 120.065 134.513 121.169C134.84 119.636 133.99 118.035 131.963 116.863C128.481 114.843 122.838 114.843 119.399 116.863C117.397 118.03 116.566 119.617 116.888 121.136C117.118 120.036 117.954 118.98 119.399 118.136Z" fill="#ED9B20"/>
<path d="M137.006 117.751V120.036C137.006 121.71 135.906 123.378 133.721 124.656C129.317 127.221 122.161 127.221 117.733 124.656C115.5 123.363 114.371 121.666 114.371 119.974V117.688C114.371 119.381 115.481 121.064 117.733 122.37C122.161 124.94 129.322 124.94 133.721 122.37C135.906 121.073 137.001 119.405 137.006 117.751Z" fill="#ED9B20"/>
<path d="M133.668 113.594C138.101 116.159 138.12 120.345 133.721 122.891C129.322 125.437 122.161 125.461 117.733 122.891C113.305 120.321 113.281 116.14 117.68 113.594C122.08 111.048 129.226 111.024 133.668 113.594Z" fill="#FFE374"/>
<path d="M133.668 113.054C138.101 115.62 138.12 119.805 133.721 122.351C129.322 124.897 122.161 124.921 117.733 122.351C113.305 119.781 113.281 115.6 117.68 113.054C122.08 110.509 129.226 110.484 133.668 113.054Z" fill="#FFD830"/>
<path d="M131.963 114.048C135.44 116.068 135.46 119.352 132.002 121.353C128.544 123.354 122.92 123.373 119.438 121.353C115.956 119.332 115.942 116.049 119.4 114.043C122.858 112.037 128.481 112.032 131.963 114.048Z" fill="#FFCB00"/>
<path d="M119.399 115.34C122.857 113.319 128.481 113.319 131.963 115.34C133.404 116.188 134.278 117.268 134.513 118.368C134.84 116.839 133.99 115.238 131.963 114.062C128.481 112.046 122.838 112.046 119.399 114.062C117.397 115.229 116.566 116.815 116.888 118.334C117.118 117.225 117.954 116.164 119.399 115.34Z" fill="#ED9B20"/>
<path d="M137.006 114.92V117.206C137.006 118.879 135.906 120.547 133.721 121.825C129.317 124.39 122.161 124.39 117.733 121.825C115.5 120.533 114.371 118.836 114.371 117.138V114.858C114.371 116.55 115.481 118.233 117.733 119.54C122.161 122.105 129.322 122.105 133.721 119.54C135.906 118.262 137.001 116.594 137.006 114.92Z" fill="#ED9B20"/>
<path d="M133.668 110.778C138.101 113.348 138.12 117.529 133.721 120.08C129.322 122.63 122.161 122.645 117.733 120.08C113.305 117.514 113.281 113.329 117.68 110.778C122.08 108.228 129.226 108.213 133.668 110.778Z" fill="#FFE374"/>
<path d="M133.668 110.239C138.101 112.809 138.12 116.989 133.721 119.54C129.322 122.091 122.161 122.105 117.733 119.54C113.305 116.975 113.281 112.789 117.68 110.239C122.08 107.688 129.226 107.673 133.668 110.239Z" fill="#FFD830"/>
<path d="M131.963 111.237C135.44 113.252 135.46 116.541 132.002 118.542C128.544 120.543 122.92 120.557 119.438 118.542C115.956 116.526 115.942 113.238 119.4 111.237C122.858 109.235 128.481 109.216 131.963 111.237Z" fill="#FFCB00"/>
<path d="M119.399 112.51C122.857 110.494 128.481 110.494 131.963 112.51C133.404 113.363 134.278 114.438 134.513 115.543C134.84 114.014 133.99 112.413 131.963 111.237C128.481 109.216 122.838 109.216 119.399 111.237C117.397 112.404 116.566 113.99 116.888 115.509C117.118 114.414 117.954 113.353 119.399 112.51Z" fill="#ED9B20"/>
<g opacity="0.2">
<path opacity="0.5" d="M111.682 123.142C115.812 119.955 120.096 121.488 121.249 126.565C122.401 131.643 119.986 138.34 115.855 141.513C111.725 144.686 107.436 143.167 106.284 138.094C105.131 133.022 107.547 126.329 111.682 123.142Z" fill="black"/>
</g>
<path d="M117.175 121.155L119.052 122.447C120.426 123.412 121.19 125.234 121.012 127.751C120.652 132.848 116.627 138.793 112.026 141.026C109.707 142.154 107.704 142.125 106.292 141.17L104.414 139.878C105.807 140.842 107.829 140.842 110.148 139.738C114.749 137.501 118.793 131.541 119.129 126.459C119.307 123.947 118.548 122.09 117.175 121.155Z" fill="#ED9B20"/>
<path d="M111.887 121.608C116.493 119.376 119.936 121.695 119.571 126.792C119.206 131.888 115.191 137.834 110.586 140.071C105.98 142.308 102.537 139.984 102.902 134.887C103.267 129.791 107.282 123.836 111.887 121.608Z" fill="#FFE374"/>
<path d="M111.455 121.295C116.06 119.062 119.504 121.382 119.139 126.478C118.774 131.575 114.759 137.52 110.158 139.757C105.557 141.995 102.109 139.671 102.474 134.574C102.839 129.477 106.835 123.537 111.455 121.295Z" fill="#FFD830"/>
<path d="M111.302 123.277C114.923 121.517 117.627 123.345 117.344 127.347C117.061 131.349 113.905 136.026 110.284 137.781C106.663 139.536 103.964 137.713 104.242 133.707C104.521 129.7 107.686 125.032 111.302 123.277Z" fill="#FFCB00"/>
<path d="M105.295 134.425C105.573 130.418 108.738 125.745 112.354 123.99C113.882 123.253 115.236 123.146 116.288 123.576C115.207 122.447 113.406 122.25 111.303 123.277C107.686 125.032 104.526 129.704 104.243 133.706C104.08 136.025 104.92 137.607 106.351 138.195C105.583 137.385 105.175 136.098 105.295 134.425Z" fill="#ED9B20"/>
</svg>
