<svg width="159" height="163" viewBox="0 0 159 163" fill="none" xmlns="http://www.w3.org/2000/svg">
    <path d="M143.253 145.271c-2.185 8.923-27.362 16.629-56.237 17.215-28.875.585-50.499-6.166-48.308-15.09 2.192-8.923 27.376-16.628 56.244-17.214 28.869-.586 50.492 6.166 48.301 15.089z" fill="#E0BFAD" style="mix-blend-mode:multiply"/>
    <path d="M158.021 86.112c2.178-15.582-.421-31.856-8.292-45.57a65.236 65.236 0 0 0-9.114-12.325c-3.987-4.225-8.554-7.896-12.878-11.772 11.97 10.62 19.479 25.532 21.611 41.332 2.132 15.8-1.001 32.547-8.325 46.754a89.292 89.292 0 0 1-31.586 34.706c-13.358 8.443-28.954 13.115-44.826 12.674-14.405-.454-28.553-5.264-39.852-14.299-.849-.659-1.678-1.382-2.488-2.1 5.712 5.074 11.24 10.45 17.768 14.477a65.755 65.755 0 0 0 19.537 7.904c15.188 3.52 31.304 1.783 45.663-4.146a87.836 87.836 0 0 0 36.304-28.178 85.398 85.398 0 0 0 16.478-39.457z" fill="url(#a)"/>
    <path style="mix-blend-mode:screen" opacity=".5" d="M105.211 153.76a85.32 85.32 0 0 0 14.326-7.607l-5.468-5.778c-.658.448-1.316.882-1.974 1.317-13.629 8.613-29.567 13.378-45.722 12.924a69.75 69.75 0 0 1-32.626-9.134 63.245 63.245 0 0 0 6.35 4.494 65.743 65.743 0 0 0 19.479 7.917c15.135 3.534 31.277 1.796 45.635-4.133z" fill="url(#b)" fill-opacity=".5"/>
    <path d="M90.708.401C131.204 4.66 157 41.937 148.334 83.684c-8.667 41.747-48.519 72.129-89.015 67.871-40.496-4.257-66.292-41.549-57.652-83.283C10.307 26.54 50.218-3.857 90.708.402z" fill="url(#c)"/>
    <path style="mix-blend-mode:screen" opacity=".2" d="M90.168 2.152C51.087-1.955 12.624 27.368 4.253 67.66a77.321 77.321 0 0 0-1.349 9.212c16.399 11.845 36.193 19.604 58.416 21.94 29.684 3.126 59.178-3.948 84.888-18.472 7.035-39.384-17.662-74.155-56.04-78.19z" fill="url(#d)"/>
    <path d="M65.499 147.963c-36.094-3.79-62.41-35.258-54.302-74.294C19.303 34.634 56.602 6.206 94.46 10.187c31.79 3.343 50.393 30.145 51.808 59.758 1.579-35.232-22.15-64.7-57.35-68.398-39.212-4.12-77.814 25.302-86.204 65.732-8.39 40.431 16.59 76.532 55.803 80.658 3.532.37 7.087.471 10.634.302a59.033 59.033 0 0 1-3.652-.276z" fill="#94512A" style="mix-blend-mode:multiply" opacity=".5"/>
    <path d="M84.847 8.516c2.286 0 4.57.118 6.844.355 16.892 1.777 31.527 10.055 41.207 23.315a59.945 59.945 0 0 1 10.253 23.374 68.371 68.371 0 0 1-.172 27.895 79.498 79.498 0 0 1-27.059 44.596c-13.733 11.443-30.46 17.767-47.09 17.767a65.46 65.46 0 0 1-6.843-.362c-16.886-1.776-31.521-10.055-41.208-23.314a59.95 59.95 0 0 1-10.265-23.368 68.373 68.373 0 0 1 .17-27.895 79.5 79.5 0 0 1 27.08-44.596C51.49 14.846 68.212 8.516 84.847 8.516zm0-6.515c-37.35 0-72.49 28.83-80.525 67.53-8.555 41.279 16.944 74.853 57 79.064 2.498.263 5.01.394 7.522.395 37.357 0 69.47-27.678 77.505-66.371 8.554-41.286-13.925-76.011-53.96-80.223a72.174 72.174 0 0 0-7.522-.395h-.02z" fill="#E99855"/>
    <path d="M83.109 6.588c2.308.002 4.614.122 6.91.362 17.109 1.796 31.875 10.166 41.661 23.57a60.55 60.55 0 0 1 10.384 23.625 69.036 69.036 0 0 1-.178 28.197 80.363 80.363 0 0 1-27.355 45.084c-13.885 11.568-30.79 17.938-47.604 17.938a65.606 65.606 0 0 1-6.922-.362c-17.07-1.79-31.87-10.16-41.655-23.571A60.542 60.542 0 0 1 7.966 97.807a69.036 69.036 0 0 1 .178-28.198 80.367 80.367 0 0 1 27.355-45.083c13.885-11.569 30.79-17.938 47.61-17.938zm0-6.58C45.35.007 9.829 29.157 1.701 68.28c-8.666 41.733 17.11 79.025 57.626 83.283 2.527.262 5.066.394 7.607.395 37.766 0 73.281-29.152 81.408-68.267 8.666-41.746-17.11-79.025-57.626-83.283a72.028 72.028 0 0 0-7.607-.4z" fill="url(#e)"/>
    <path opacity=".7" d="M90.506.401A72.12 72.12 0 0 0 82.9 0C45.14 0 9.612 29.152 1.492 68.273A81.182 81.182 0 0 0 .024 78.729a122.55 122.55 0 0 0 6.39 4.185A72.439 72.439 0 0 1 7.941 69.61a80.368 80.368 0 0 1 27.355-45.083C49.181 12.957 66.086 6.587 82.899 6.587c2.308.002 4.614.123 6.91.362 17.109 1.796 31.876 10.167 41.661 23.571a60.395 60.395 0 0 1 10.364 23.624 69.019 69.019 0 0 1-.171 28.198 67.302 67.302 0 0 1-.546 2.369 203.317 203.317 0 0 0 7.568-4.106C155.502 40.102 129.989 4.567 90.506.4z" fill="url(#f)"/>
    <path d="m71.501 38.1-11.667 73.544-19.88-2.151 11.667-73.544 19.88 2.152z" fill="url(#g)"/>
    <path d="m71.5 38.101 3.856 1-11.668 73.544-3.856-1 11.667-73.544z" fill="#BF5B46"/>
    <path d="m59.832 111.645 3.856 1-19.873-2.145-3.863-1.007 19.88 2.152z" fill="#94512A"/>
    <path d="M100.133 39.2c3.948.428 7.39 3.415 8.673 8.153 1.856 6.85-1.474 14.78-7.436 17.695a9.949 9.949 0 0 1-5.481 1.027c-3.949-.428-7.39-3.416-8.673-8.16-1.856-6.85 1.467-14.773 7.429-17.688a9.983 9.983 0 0 1 5.488-1.027z" fill="url(#h)"/>
    <path d="M113.168 52.933v-.829c0-.29-.013-.579-.04-.868v-.35a.617.617 0 0 1 0-.104c0-.25-.072-.5-.105-.75 0-.139-.033-.283-.059-.422a13.845 13.845 0 0 0-.277-1.25v-.072a10.402 10.402 0 0 0-.25-.81l-.098-.27a9.815 9.815 0 0 0-.237-.585l-.059-.158-.047-.099a13.224 13.224 0 0 0-.46-.921v-.033a.856.856 0 0 0-.079-.125 16.21 16.21 0 0 0-.415-.684c-.033-.047-.072-.093-.105-.145a7.882 7.882 0 0 0-.27-.369c-.092-.118-.066-.099-.098-.138l-.099-.118-.25-.297-.132-.157-.092-.093c-.079-.085-.158-.17-.243-.25l-.145-.158-.099-.092-.237-.21c-.052-.046-.099-.099-.151-.139l-.119-.092-.237-.19-.151-.119-.132-.099-.25-.17-.131-.093-.158-.099-.329-.158-.125-.072-.178-.092-.27-.145-.118-.059-.191-.079-.289-.125-.112-.053-.191-.065-.329-.112-.119-.04-.381-.112-3.863-1c.171.04.336.092.5.145l.329.118.303.112.296.125.303.145.269.138.303.165.257.158.296.19c.085.053.164.112.243.172.079.059.191.138.283.21.092.073.165.125.237.191l.27.23.237.218.25.243.237.25c.079.079.151.164.224.25.072.086.171.197.25.303.071.079.137.162.197.25l.27.375c.059.079.118.164.171.25.125.184.237.375.355.572 0 .053.066.106.092.165.165.29.316.599.461.915l.112.256c.079.191.158.389.23.586 0 .092.073.184.099.276.092.264.178.533.257.803v.099c.111.415.204.836.276 1.257 0 .138.039.276.059.42.046.284.086.567.112.85v.355c0 .29.04.58.04.869v.427c0 .25 0 .494-.033.744s0 .421-.053.658c-.053.237-.053.5-.092.744l-.059.408c-.066.381-.139.757-.231 1.132-.092.372-.197.741-.316 1.105l-.078.237c-.119.362-.251.71-.395 1.06a1.793 1.793 0 0 1-.073.157 14.78 14.78 0 0 1-.487 1.047v.04c-.175.341-.366.677-.572 1.006l-.099.165a14.81 14.81 0 0 1-.625.914l-.138.184c-.217.283-.441.56-.658.823l-.059.072c-.251.277-.507.54-.77.797l-.29.256c-.178.158-.355.316-.54.461-.184.145-.348.276-.526.408-.178.132-.375.27-.572.395l-.257.164c-.316.191-.658.375-.974.54a9.95 9.95 0 0 1-5.482 1.026 8.755 8.755 0 0 1-1.316-.236l3.863 1a9.77 9.77 0 0 0 1.316.243 9.987 9.987 0 0 0 5.488-1.033c.332-.163.655-.343.968-.54l.263-.164c.092-.06.191-.112.283-.178.092-.066.184-.144.283-.217.098-.072.355-.263.526-.401l.211-.158c.118-.099.224-.204.335-.303l.283-.263.132-.119c.211-.21.421-.427.619-.658a.34.34 0 0 1 .065-.072c.152-.178.303-.349.448-.533l.217-.29c.046-.065.099-.125.145-.184.046-.059.072-.099.112-.151a7.73 7.73 0 0 0 .427-.658l.079-.132.106-.17.204-.337c.125-.217.243-.434.362-.657v-.04c.105-.204.204-.408.302-.612.099-.204.125-.283.184-.428.022-.054.046-.106.073-.158a.76.76 0 0 1 .046-.112l.276-.723c0-.073.046-.152.073-.224l.079-.237.098-.316c.079-.257.152-.526.218-.79v-.032c.072-.303.138-.606.19-.915 0-.066 0-.138.033-.204.033-.066.046-.276.066-.408.02-.132.046-.29.066-.434.02-.145 0-.211 0-.316 0-.21.039-.421.053-.658.013-.237.098-.23.105-.343z" fill="#BF5B46"/>
    <path d="m83.93 66.55 19.722 49.827-23.36-2.527-12.497-31.573L83.93 66.549z" fill="url(#i)"/>
    <path d="m83.93 66.549 3.856 1 19.722 49.834-3.857-1.007L83.93 66.549z" fill="#BF5B46"/>
    <path d="m103.652 116.377 3.856 1.006-23.36-2.527-3.857-1.006 23.361 2.527z" fill="#94512A"/>
    <defs>
        <linearGradient id="a" x1="173.544" y1="-58.481" x2="41.184" y2="217.44" gradientUnits="userSpaceOnUse">
            <stop stop-color="#FFD243"/>
            <stop offset="1" stop-color="#CD571B"/>
        </linearGradient>
        <linearGradient id="b" x1="95.518" y1="106.446" x2="61.326" y2="177.726" gradientUnits="userSpaceOnUse">
            <stop stop-color="#E08C3C"/>
            <stop offset="1" stop-color="#FFD06F"/>
        </linearGradient>
        <linearGradient id="c" x1="33.78" y1="282.573" x2="124.657" y2="-172.772" gradientUnits="userSpaceOnUse">
            <stop stop-color="#F5942A"/>
            <stop offset="1" stop-color="#F5D85D"/>
        </linearGradient>
        <linearGradient id="d" x1="-57409.5" y1="41401" x2="-51311.6" y2="-3759.64" gradientUnits="userSpaceOnUse">
            <stop stop-color="#E08C3C"/>
            <stop offset="1" stop-color="#FFD06F"/>
        </linearGradient>
        <linearGradient id="e" x1="104.759" y1="-41.292" x2="26.984" y2="265.36" gradientUnits="userSpaceOnUse">
            <stop offset=".2" stop-color="#FFDE43"/>
            <stop offset=".56" stop-color="#FFD23E"/>
            <stop offset="1" stop-color="#FFBD37"/>
        </linearGradient>
        <linearGradient id="f" x1="100.713" y1="-26.743" x2="50.069" y2="172.942" gradientUnits="userSpaceOnUse">
            <stop offset=".02" stop-color="#FFFFA0"/>
            <stop offset=".98" stop-color="#FFEB6A"/>
        </linearGradient>
        <linearGradient id="g" x1="1954.54" y1="8524.45" x2="3466.9" y2="8524.45" gradientUnits="userSpaceOnUse">
            <stop offset=".02" stop-color="#FFFFA0"/>
            <stop offset=".98" stop-color="#FFEB6A"/>
        </linearGradient>
        <linearGradient id="h" x1="-7734.42" y1="5974.31" x2="-6957.01" y2="5974.31" gradientUnits="userSpaceOnUse">
            <stop offset=".02" stop-color="#FFFFA0"/>
            <stop offset=".98" stop-color="#FFEB6A"/>
        </linearGradient>
        <linearGradient id="i" x1="3761.09" y1="6992.09" x2="5714.95" y2="6992.09" gradientUnits="userSpaceOnUse">
            <stop offset=".02" stop-color="#FFFFA0"/>
            <stop offset=".98" stop-color="#FFEB6A"/>
        </linearGradient>
    </defs>
</svg>
