<svg width="25" height="86" viewBox="0 0 25 86" fill="none" xmlns="http://www.w3.org/2000/svg">
<path d="M17.5598 34.7601C17.2092 34.7604 16.8681 34.6485 16.5879 34.4413C16.3078 34.2341 16.1037 33.9429 16.0066 33.6116C15.9095 33.2803 15.9245 32.9269 16.0496 32.6047C16.1746 32.2826 16.4027 32.0092 16.6996 31.8259C19.499 30.1009 19.9734 25.9591 19.978 25.9182C19.9964 25.7085 20.0571 25.5044 20.1564 25.3179C20.2557 25.1314 20.3917 24.9662 20.5565 24.8318C20.7213 24.6975 20.9116 24.5967 21.1164 24.5353C21.3211 24.4739 21.5362 24.4532 21.7492 24.4743C21.9622 24.4954 22.1687 24.558 22.3569 24.6583C22.5451 24.7586 22.7111 24.8947 22.8453 25.0588C22.9796 25.2228 23.0793 25.4114 23.1388 25.6136C23.1983 25.8159 23.2163 26.0277 23.1918 26.2369C23.1687 26.4693 22.5697 31.9566 18.4163 34.5168C18.1599 34.676 17.8629 34.7603 17.5598 34.7601Z" fill="#E9EBF0"/>
<path d="M22.8339 26.2356L20.2034 25.749V25.7581C20.2311 25.601 20.8338 21.8714 16.9869 18.7955C16.8472 18.6875 16.7309 18.5533 16.6445 18.4007C16.5581 18.2481 16.5035 18.08 16.4838 17.9064C16.4641 17.7328 16.4798 17.5571 16.5299 17.3895C16.5799 17.2218 16.6634 17.0657 16.7754 16.9301C16.8874 16.7946 17.0258 16.6823 17.1823 16.5999C17.3389 16.5174 17.5106 16.4665 17.6874 16.45C17.8642 16.4335 18.0426 16.4518 18.2122 16.5037C18.3817 16.5557 18.539 16.6404 18.675 16.7528C23.7957 20.8473 22.8755 26.0168 22.8339 26.2356Z" fill="#FCA7A7"/>
<path d="M17.0434 20.0058C16.9215 20.0051 16.804 19.9613 16.7122 19.8825C16.6204 19.8036 16.5604 19.695 16.5432 19.5763C16.526 19.4576 16.5527 19.3368 16.6184 19.2358C16.6841 19.1349 16.7845 19.0605 16.9013 19.0262C16.9087 19.0262 17.6129 18.822 18.2424 18.5723C18.3041 18.5476 18.3702 18.535 18.4369 18.5354C18.5036 18.5358 18.5695 18.5491 18.631 18.5746C18.6924 18.6 18.7482 18.6372 18.7951 18.6838C18.8419 18.7305 18.879 18.7857 18.9042 18.8465C18.9293 18.9072 18.942 18.9722 18.9416 19.0378C18.9413 19.1034 18.9277 19.1683 18.9018 19.2287C18.8759 19.2892 18.8382 19.344 18.7908 19.3901C18.7434 19.4362 18.6872 19.4727 18.6254 19.4974C17.9452 19.7698 17.216 19.9795 17.1856 19.9886C17.1391 20.0004 17.0914 20.0062 17.0434 20.0058Z" fill="#FCA7A7"/>
<g opacity="0.15">
<path opacity="0.5" d="M14.3912 85.9999C19.6161 85.9999 23.8517 83.5944 23.8517 80.627C23.8517 77.6597 19.6161 75.2542 14.3912 75.2542C9.16629 75.2542 4.93066 77.6597 4.93066 80.627C4.93066 83.5944 9.16629 85.9999 14.3912 85.9999Z" fill="black"/>
</g>
<path d="M3.17966 66.3695C3.28073 66.509 3.37142 66.6556 3.45101 66.808L3.50916 66.9224C3.52762 66.9596 3.54147 66.9968 3.55808 67.0349C3.59131 67.1094 3.61992 67.1857 3.65038 67.2619C3.68084 67.3382 3.70483 67.4163 3.73159 67.4934C3.75836 67.5706 3.77589 67.6451 3.7962 67.7213C3.83404 67.8738 3.87189 68.0291 3.89681 68.1825C3.98884 68.7836 4.00217 69.3938 3.93649 69.9983C3.88024 70.589 3.77184 71.1737 3.61253 71.7459C3.5326 72.0337 3.4371 72.3171 3.32642 72.5948C3.27196 72.7346 3.21012 72.8744 3.14182 73.0124C3.07352 73.1504 3.00428 73.2848 2.92122 73.4346C2.83154 73.5946 2.69838 73.7268 2.53663 73.8166C2.37489 73.9063 2.19094 73.95 2.00538 73.9427C1.81983 73.9355 1.63998 73.8776 1.48598 73.7755C1.33198 73.6734 1.20991 73.5312 1.13342 73.3647L1.0808 73.2485C1.02358 73.125 0.975594 72.9843 0.929445 72.8527C0.883296 72.721 0.837136 72.5857 0.802063 72.4523C0.72084 72.1872 0.651632 71.9239 0.5861 71.6633C0.455037 71.1422 0.348884 70.6311 0.251971 70.1326C0.200284 69.8848 0.159674 69.636 0.114448 69.3954C0.0692225 69.1549 0.0424561 68.9161 0.0221506 68.6782C0.0119978 68.5602 0.00276893 68.4458 0 68.3278C0 68.2697 0 68.2088 0 68.1516C0 68.0945 0 68.0382 0 67.981C0 67.8684 0.0147658 67.7431 0.0212267 67.6341C0.0305206 67.5147 0.0502742 67.3962 0.0802874 67.2801L0.172585 66.9269C0.255411 66.6242 0.423409 66.3505 0.657261 66.1375C0.891114 65.9245 1.18134 65.7807 1.49457 65.7226C1.80779 65.6646 2.13129 65.6947 2.42791 65.8094C2.72453 65.9242 2.98223 66.1189 3.17136 66.3713L3.17966 66.3695Z" fill="#242884"/>
<path d="M9.41999 64.4928C9.5355 64.6262 9.6407 64.7679 9.73472 64.9168L9.80487 65.0275C9.8261 65.0638 9.84457 65.1011 9.86395 65.1383C9.90456 65.2109 9.94056 65.2863 9.97655 65.3617C10.0125 65.437 10.0458 65.5132 10.0799 65.5895C10.1141 65.6658 10.1381 65.7402 10.1648 65.8165C10.2165 65.9681 10.2691 66.1234 10.306 66.2759C10.4495 66.8763 10.5137 67.4924 10.4971 68.1089C10.489 68.7099 10.4272 69.309 10.3125 69.8993C10.2556 70.196 10.1819 70.4894 10.0919 70.7781C10.0485 70.9234 9.99962 71.0695 9.94332 71.2139C9.88701 71.3583 9.82609 71.499 9.7541 71.656C9.67728 71.8227 9.55463 71.965 9.39996 72.0667C9.24529 72.1684 9.06478 72.2256 8.87883 72.2317C8.69287 72.2378 8.50889 72.1927 8.34764 72.1014C8.18639 72.0101 8.05431 71.8763 7.9663 71.7151L7.90445 71.6016C7.83892 71.4817 7.77985 71.3437 7.72447 71.2139C7.66909 71.0841 7.61741 70.9506 7.56757 70.8199L7.42358 70.4286C7.38112 70.2978 7.33129 70.1689 7.2916 70.04C7.12177 69.5243 6.97687 69.0168 6.83935 68.5229L6.73781 68.1598L6.64552 67.7966C6.61413 67.6786 6.59199 67.5551 6.5643 67.4389C6.53661 67.3227 6.51629 67.2038 6.49783 67.0848C6.47937 66.9659 6.45816 66.8542 6.44524 66.7362C6.43878 66.6781 6.43322 66.6191 6.42953 66.5601C6.42584 66.501 6.41569 66.4484 6.41292 66.3912C6.41015 66.334 6.40553 66.2759 6.40553 66.2169C6.40553 66.1869 6.40553 66.1579 6.40553 66.1261V66.0426C6.40362 65.9234 6.41227 65.8043 6.43138 65.6867L6.5006 65.3017C6.55563 64.994 6.69792 64.7079 6.91107 64.4763C7.12423 64.2447 7.39958 64.0771 7.70539 63.9927C8.01119 63.9084 8.335 63.9107 8.6395 63.9995C8.944 64.0883 9.21678 64.2599 9.42644 64.4946L9.41999 64.4928Z" fill="#242884"/>
<path d="M16.9026 69.3329C15.1868 69.3329 12.9338 68.6974 10.2221 67.8594C9.54555 67.6515 8.90685 67.4545 8.40567 67.3147C8.20108 67.2596 8.0095 67.1654 7.84191 67.0375C7.67431 66.9096 7.53398 66.7505 7.42891 66.5693C7.32383 66.388 7.25607 66.1882 7.22951 65.9811C7.20295 65.7741 7.2181 65.564 7.2741 65.3627C7.3301 65.1615 7.42583 64.9731 7.55586 64.8082C7.68589 64.6434 7.84766 64.5053 8.03193 64.4019C8.2162 64.2986 8.41936 64.232 8.62982 64.2058C8.84027 64.1797 9.05391 64.1946 9.25851 64.2497C9.81691 64.4004 10.4833 64.6056 11.1884 64.8235C12.4308 65.2066 13.8392 65.6406 15.0825 65.9129C16.1171 66.1354 16.7106 66.1681 17.0291 66.1562C17.1047 59.0103 15.712 54.0051 15.6972 53.9542C15.5878 53.5505 15.6445 53.1205 15.8551 52.7576C16.0657 52.3946 16.4131 52.1279 16.8222 52.0152C17.2313 51.9025 17.6691 51.9528 18.0407 52.1553C18.4123 52.3579 18.6879 52.6963 18.8076 53.0972C18.8732 53.3251 20.3988 58.7688 20.2521 66.6365C20.2364 67.5035 19.8524 68.2471 19.1713 68.7301C18.575 69.1541 17.8136 69.3329 16.9026 69.3329Z" fill="#4941E5"/>
<path d="M9.5582 51.4152L17.2078 47.1218C17.3891 47.0304 17.5911 46.9863 17.7946 46.9937C17.9981 47.0011 18.1963 47.0598 18.3701 47.1641C18.544 47.2684 18.6877 47.4149 18.7875 47.5895C18.8873 47.7641 18.9399 47.961 18.9403 48.1613C18.9403 49.4323 18.9403 51.9136 18.9403 52.7107C18.9329 54.1206 18.7206 55.2982 17.4977 56.1153C16.5119 56.7735 12.1675 59.5198 10.5061 59.4744C8.84474 59.429 7.85254 58.2343 7.85254 57.0231V54.0135C7.85217 53.4648 8.01295 52.9277 8.31554 52.4667C8.61813 52.0058 9.04965 51.6406 9.5582 51.4152Z" fill="#4941E5"/>
<path d="M7.85059 53.9858V39.496C7.85059 38.3248 8.03518 35.6829 10.5272 34.2665L15.7882 31.2805C17.3056 30.4198 18.9457 30.9055 18.9457 33.4158V48.3361C18.9457 49.4001 19.0103 50.3597 18.1316 51.1033C16.6106 52.3907 14.3271 54.0803 11.6883 54.6913C8.43115 55.4439 7.85059 53.9858 7.85059 53.9858Z" fill="white"/>
<path d="M9.5121 71.6762C7.77782 71.6762 5.32823 70.8527 1.74984 69.1187C1.36552 68.9323 1.07222 68.6034 0.93444 68.2043C0.796658 67.8052 0.825688 67.3686 1.01516 66.9906C1.20462 66.6125 1.53901 66.324 1.94474 66.1885C2.35046 66.053 2.79429 66.0815 3.17861 66.2679C7.29786 68.2653 8.94815 68.5104 9.52593 68.4995C9.34134 61.9563 7.93842 57.5005 7.92458 57.4551C7.7957 57.0532 7.83437 56.6174 8.03213 56.2436C8.22989 55.8698 8.57051 55.5886 8.97906 55.4618C9.38762 55.335 9.83064 55.3731 10.2107 55.5676C10.5907 55.7621 10.8766 56.0972 11.0055 56.4991C11.0701 56.7015 12.5911 61.5206 12.7591 68.6121C12.7951 70.1155 11.9718 70.86 11.4771 71.1705C10.9455 71.5019 10.3031 71.6762 9.5121 71.6762Z" fill="#4941E5"/>
<path d="M13.019 35.9684C12.664 35.9684 12.3236 35.8297 12.0726 35.5828C11.8217 35.3359 11.6807 35.0011 11.6807 34.6519V31.3636C11.6807 31.0144 11.8217 30.6796 12.0726 30.4327C12.3236 30.1858 12.664 30.0471 13.019 30.0471C13.3739 30.0471 13.7143 30.1858 13.9653 30.4327C14.2163 30.6796 14.3573 31.0144 14.3573 31.3636V34.6519C14.3573 35.0011 14.2163 35.3359 13.9653 35.5828C13.7143 35.8297 13.3739 35.9684 13.019 35.9684Z" fill="#E88289"/>
<path d="M13.0645 26.1738H15.3387C15.8283 26.1738 16.2979 26.3651 16.6441 26.7057C16.9902 27.0462 17.1847 27.508 17.1847 27.9896V31.8454C17.1847 33.899 14.8616 35.1283 13.119 33.9971L11.1023 32.6616C10.1202 31.8881 9.88673 31.3261 9.88673 30.2593C9.88212 26.7676 11.2869 26.1738 13.0645 26.1738Z" fill="#FCA7A7"/>
<path d="M16.6778 31.8047L14.3916 32.5228C14.3916 32.5228 14.7156 33.7784 15.8278 33.4362C16.819 33.1311 16.6778 31.8047 16.6778 31.8047Z" fill="#FCA7A7"/>
<path d="M11.4834 24.941C13.9367 23.4593 18.0366 24.3055 18.0052 27.228C17.9738 29.731 14.5366 28.9711 12.9519 29.0664C11.9366 29.1273 11.4622 29.8835 11.2453 30.6852C11.1299 31.111 10.3694 31.3697 10.0214 31.3107C9.74453 31.2626 9.49532 29.6829 9.51378 28.8049C9.52947 28.2375 9.14458 26.3537 11.4834 24.941Z" fill="#191890"/>
<path d="M10.7368 29.6395C11.1401 29.2954 11.6976 29.3926 11.9819 29.8565C12.2661 30.3204 12.172 30.9768 11.7686 31.3209C11.3653 31.665 10.8088 31.5688 10.5236 31.1039C10.2384 30.6391 10.3344 29.9845 10.7368 29.6395Z" fill="#FCA7A7"/>
<path d="M9.40446 38.8118C9.18652 38.8113 8.97091 38.7677 8.77039 38.6838C3.81861 36.6029 2.14432 30.7261 2.0751 30.4765C2.01947 30.2751 2.00469 30.0649 2.03163 29.8579C2.05858 29.6509 2.12672 29.4512 2.23214 29.2701C2.33756 29.089 2.47819 28.9301 2.64604 28.8025C2.81388 28.6749 3.00565 28.581 3.21037 28.5263C3.41509 28.4716 3.62877 28.4571 3.83919 28.4836C4.04962 28.5101 4.25267 28.5771 4.43676 28.6808C4.62086 28.7845 4.78239 28.9228 4.91213 29.0879C5.04187 29.253 5.13729 29.4416 5.19292 29.643C5.20492 29.6857 6.53955 34.2905 10.0395 35.7613C10.3822 35.9049 10.6639 36.1605 10.8369 36.485C11.0099 36.8094 11.0635 37.1827 10.9888 37.5417C10.9141 37.9006 10.7156 38.2231 10.4269 38.4546C10.1381 38.686 9.77693 38.8122 9.40446 38.8118Z" fill="white"/>
<path d="M3.69519 31.2719C3.39962 31.2709 3.11265 31.1739 2.87895 30.996C2.64525 30.818 2.47793 30.569 2.40302 30.2877C2.34118 30.0526 0.937322 24.4673 6.36443 19.4575C6.4916 19.3344 6.6425 19.2376 6.80828 19.1727C6.97405 19.1078 7.15136 19.0761 7.32975 19.0796C7.50814 19.0831 7.68403 19.1216 7.84706 19.1929C8.01009 19.2643 8.15697 19.3669 8.27907 19.4949C8.40117 19.6229 8.49603 19.7736 8.55806 19.9381C8.62009 20.1027 8.64804 20.2778 8.64026 20.4531C8.63249 20.6285 8.58915 20.8005 8.51279 20.9591C8.43643 21.1178 8.3286 21.2598 8.19563 21.3768C3.91578 25.3288 4.98182 29.5805 4.9929 29.6231C5.04466 29.8176 5.05042 30.0212 5.00976 30.2182C4.96909 30.4151 4.88305 30.6003 4.75828 30.7595C4.63351 30.9187 4.47331 31.0477 4.28999 31.1365C4.10666 31.2253 3.90509 31.2716 3.70073 31.2719H3.69519Z" fill="#FCA7A7"/>
<path d="M8.17361 22.609C8.12581 22.609 8.07826 22.6023 8.03239 22.589C8.00101 22.5808 7.27185 22.3711 6.59161 22.0988C6.52986 22.074 6.47367 22.0376 6.42624 21.9915C6.37881 21.9454 6.34108 21.8905 6.31519 21.8301C6.28931 21.7696 6.2758 21.7048 6.2754 21.6392C6.275 21.5736 6.28772 21.5085 6.31287 21.4478C6.33802 21.387 6.37511 21.3318 6.42198 21.2851C6.46885 21.2385 6.5246 21.2014 6.58605 21.1759C6.6475 21.1504 6.71345 21.1371 6.78013 21.1367C6.84681 21.1363 6.91291 21.1489 6.97466 21.1736C7.60598 21.4269 8.30837 21.6276 8.31575 21.6276C8.43306 21.6612 8.53408 21.7354 8.60029 21.8364C8.66649 21.9374 8.69342 22.0585 8.67613 22.1775C8.65885 22.2965 8.59852 22.4054 8.50621 22.4842C8.41389 22.5629 8.29581 22.6063 8.17361 22.6063V22.609Z" fill="#FCA7A7"/>
<path d="M11.0251 1.86741C13.1571 0.656293 15.0862 0.548257 16.4789 1.34811L19.3475 2.9823L18.0923 3.13028V3.12575C18.4966 3.95829 18.7209 5.00053 18.7209 6.23163C18.7209 11.057 15.2772 16.9247 11.0288 19.3379C9.79381 20.0387 8.62902 20.3683 7.59528 20.3692L8.72224 21.6502L5.65056 19.9044C4.22087 19.13 3.33203 17.4213 3.33203 14.9719C3.33203 10.1464 6.77567 4.27876 11.0251 1.86741Z" fill="#ED9B20"/>
<path d="M19.5615 15.4457C22.5657 10.3274 22.5658 4.79518 19.5617 3.08913C16.5576 1.38307 11.6869 4.14926 8.68274 9.26759C5.67855 14.3859 5.67846 19.9182 8.68256 21.6242C11.6866 23.3303 16.5573 20.5641 19.5615 15.4457Z" fill="#FFD830"/>
<path d="M14.1232 5.52799C17.446 3.6405 20.142 5.17028 20.142 8.94617C20.142 12.7221 17.4478 17.3123 14.1232 19.1998C10.7987 21.0873 8.10449 19.5576 8.10449 15.7826C8.10449 12.0076 10.7996 7.41639 14.1232 5.52799Z" fill="#FFCB00"/>
<path d="M13.724 18.9818C17.0467 17.0934 19.7427 12.5031 19.7427 8.7227C19.7427 6.89512 19.1087 5.59866 18.0814 4.95679C19.3459 5.49153 20.1461 6.8797 20.1461 8.93606C20.1461 12.711 17.451 17.3022 14.1274 19.1897C12.4069 20.1666 10.8572 20.2238 9.76074 19.532C10.8194 19.9905 12.2039 19.8434 13.724 18.9818Z" fill="#ED9B20"/>
</svg>
