<svg width="18" height="18" viewBox="0 0 18 18" fill="none" xmlns="http://www.w3.org/2000/svg">
    <path d="M15.451 17.43H6.486a1.98 1.98 0 0 1-1.977-1.978V6.487A1.98 1.98 0 0 1 6.486 4.51h8.965a1.98 1.98 0 0 1 1.978 1.977v8.965a1.98 1.98 0 0 1-1.978 1.978zM6.486 5.828a.66.66 0 0 0-.659.66v8.964c0 .364.296.66.66.66h8.964a.66.66 0 0 0 .66-.66V6.487a.66.66 0 0 0-.66-.659H6.486zM3.19 12.156h-.659a.66.66 0 0 1-.659-.659V2.532a.66.66 0 0 1 .66-.659h8.964a.66.66 0 0 1 .66.66v.625h1.318v-.626A1.98 1.98 0 0 0 11.496.555H2.531A1.98 1.98 0 0 0 .554 2.532v8.965a1.98 1.98 0 0 0 1.977 1.978h.66v-1.319z" fill="#16181E"/>
</svg>
