<svg width="40" height="40" viewBox="0 0 40 40" fill="none" xmlns="http://www.w3.org/2000/svg">
    <path fill-rule="evenodd" clip-rule="evenodd" d="M15.53 14.75a2.2 2.2 0 1 1 0-1.1h14.92a.55.55 0 1 1 0 1.1H15.53zm-1.03-.55a1.1 1.1 0 1 1-2.2 0 1.1 1.1 0 0 1 2.2 0z" fill="#52596C"/>
    <path d="M9.55 14.75h1.72a2.201 2.201 0 0 1 0-1.1H9.55a.55.55 0 1 0 0 1.1z" fill="#52596C"/>
    <path fill-rule="evenodd" clip-rule="evenodd" d="M22.13 24.65a2.201 2.201 0 0 0-4.26 0H9.55a.55.55 0 0 0 0 1.1h8.32a2.201 2.201 0 0 0 4.26 0h8.32a.55.55 0 0 0 0-1.1h-8.32zM20 26.3a1.1 1.1 0 1 0 0-2.2 1.1 1.1 0 0 0 0 2.2zM28.73 19.15a2.201 2.201 0 0 0-4.26 0H9.55a.55.55 0 0 0 0 1.1h14.92a2.201 2.201 0 0 0 4.26 0h1.72a.55.55 0 0 0 0-1.1h-1.72zM26.6 20.8a1.1 1.1 0 1 0 0-2.2 1.1 1.1 0 0 0 0 2.2z" fill="#52596C"/>
</svg>
