<svg width="40" height="40" viewBox="0 0 40 40" fill="none" xmlns="http://www.w3.org/2000/svg">
    <path d="M26.758 23.266a3.862 3.862 0 0 0-3.027 1.463l-6.213-3.454a3.85 3.85 0 0 0 0-2.55l6.213-3.454a3.862 3.862 0 0 0 3.027 1.463 3.872 3.872 0 0 0 3.867-3.867A3.872 3.872 0 0 0 26.758 9a3.872 3.872 0 0 0-3.651 5.143l-6.213 3.453a3.862 3.862 0 0 0-3.027-1.463A3.872 3.872 0 0 0 10 20a3.872 3.872 0 0 0 3.867 3.867 3.862 3.862 0 0 0 3.027-1.463l6.213 3.453A3.872 3.872 0 0 0 26.757 31a3.872 3.872 0 0 0 3.868-3.867 3.872 3.872 0 0 0-3.867-3.867zm0-12.977a2.581 2.581 0 0 1 2.578 2.578 2.581 2.581 0 0 1-2.578 2.578 2.581 2.581 0 0 1-2.578-2.578 2.581 2.581 0 0 1 2.578-2.578zm-12.89 12.29A2.581 2.581 0 0 1 11.288 20a2.581 2.581 0 0 1 2.578-2.578A2.581 2.581 0 0 1 16.445 20a2.581 2.581 0 0 1-2.578 2.578zm12.89 7.132a2.581 2.581 0 0 1-2.578-2.578 2.581 2.581 0 0 1 2.578-2.578 2.581 2.581 0 0 1 2.578 2.578 2.581 2.581 0 0 1-2.578 2.578z" fill="#52596C"/>
</svg>
