<svg width="40" height="40" viewBox="0 0 40 40" fill="none" xmlns="http://www.w3.org/2000/svg">
    <path d="m30.813 29.908-5-4.999a9.52 9.52 0 0 0 2.382-6.312 9.534 9.534 0 0 0-2.811-6.786A9.534 9.534 0 0 0 18.597 9a9.534 9.534 0 0 0-6.786 2.811A9.534 9.534 0 0 0 9 18.597c0 2.564.998 4.974 2.811 6.787a9.534 9.534 0 0 0 6.786 2.81 9.52 9.52 0 0 0 6.312-2.38l4.999 4.998a.638.638 0 0 0 .905 0 .64.64 0 0 0 0-.904zm-18.097-5.43a8.264 8.264 0 0 1-2.436-5.88c0-2.222.865-4.311 2.436-5.882a8.264 8.264 0 0 1 5.881-2.436c2.222 0 4.31.865 5.882 2.436a8.264 8.264 0 0 1 2.436 5.881c0 2.222-.866 4.31-2.436 5.882a8.264 8.264 0 0 1-5.882 2.436 8.264 8.264 0 0 1-5.881-2.436z" fill="#4D5560" stroke="#4D5560" stroke-width=".2"/>
</svg>
