<svg width="24" height="24" viewBox="0 0 24 24" fill="none" xmlns="http://www.w3.org/2000/svg">
<g clip-path="url(#clip0_1352_7386)">
<path d="M12 4.8939e-05C18.6274 4.8939e-05 24 5.37264 24 12C24 18.6274 18.6274 24 12 24C5.37264 24 4.97744e-05 18.6274 4.97744e-05 12C-0.018808 5.39143 5.32317 0.0189068 11.9317 4.8939e-05C11.9545 -1.6313e-05 11.9772 -1.6313e-05 12 4.8939e-05Z" fill="#EC5B37"/>
<path d="M17.8921 16.3552L13.2855 11.7486L17.8921 7.14207L16.3565 5.60655L11.75 10.2131L7.14345 5.60655L5.60793 7.14207L10.2145 11.7486L5.60793 16.3552L7.14345 17.8907L11.75 13.2841L16.3565 17.8907L17.8921 16.3552Z" fill="white"/>
</g>
<defs>
<clipPath id="clip0_1352_7386">
<rect width="24" height="24" fill="white"/>
</clipPath>
</defs>
</svg>
