<svg width="96" height="96" viewBox="0 0 96 96" fill="none" xmlns="http://www.w3.org/2000/svg">
<g filter="url(#filter0_d)">
<circle cx="48" cy="46" r="40" fill="white"/>
</g>
<path d="M48.363 48.6133V48.4365C48.3685 47.3481 48.7608 46.8398 49.6337 46.3149C50.6669 45.6961 51.3299 44.8785 51.3299 43.5912C51.3299 41.663 49.7884 40.5304 47.6061 40.5304C45.6116 40.5304 43.9763 41.5856 43.9321 43.779H46.1531C46.1917 42.8674 46.8658 42.3812 47.5895 42.3812C48.352 42.3812 48.9597 42.8895 48.9597 43.663C48.9597 44.3923 48.4403 44.8785 47.7608 45.3094C46.8326 45.895 46.3078 46.4917 46.2967 48.4365V48.6133H48.363ZM47.3741 52.1381C48.0757 52.1381 48.6834 51.5525 48.689 50.8287C48.6834 50.1105 48.0757 49.5249 47.3741 49.5249C46.6503 49.5249 46.0536 50.1105 46.0647 50.8287C46.0536 51.5525 46.6503 52.1381 47.3741 52.1381Z" fill="#949AAC"/>
<defs>
<filter id="filter0_d" x="0" y="0" width="96" height="96" filterUnits="userSpaceOnUse" color-interpolation-filters="sRGB">
<feFlood flood-opacity="0" result="BackgroundImageFix"/>
<feColorMatrix in="SourceAlpha" type="matrix" values="0 0 0 0 0 0 0 0 0 0 0 0 0 0 0 0 0 0 127 0" result="hardAlpha"/>
<feOffset dy="2"/>
<feGaussianBlur stdDeviation="4"/>
<feComposite in2="hardAlpha" operator="out"/>
<feColorMatrix type="matrix" values="0 0 0 0 0 0 0 0 0 0 0 0 0 0 0 0 0 0 0.1 0"/>
<feBlend mode="normal" in2="BackgroundImageFix" result="effect1_dropShadow"/>
<feBlend mode="normal" in="SourceGraphic" in2="effect1_dropShadow" result="shape"/>
</filter>
</defs>
</svg>
