<svg width="166" height="34" fill="none" xmlns="http://www.w3.org/2000/svg">
    <g clip-path="url(#a)">
        <path d="M9.032.82H.5v25.952h8.532V.82zM10.426 16.284l7.389 10.488h10.027l-11.661-16.55-5.755 6.062z" fill="#243664"/>
        <path d="M23.442 9.048a4.728 4.728 0 0 0 1.954-6.417C24.153.322 21.265-.548 18.943.688a4.728 4.728 0 0 0-1.953 6.417c1.242 2.309 4.131 3.179 6.452 1.943z" fill="#EC5B37"/>
        <path d="M38.424.82h-8.012v25.952h8.012V.82zM55.317 8.136c-1.133-.725-2.435-1.092-3.888-1.092-1.297 0-2.546.23-3.706.685a8.709 8.709 0 0 0-3.08 2.025c-.866.882-1.555 1.98-2.055 3.264-.495 1.274-.745 2.742-.745 4.37 0 1.629.25 3.1.745 4.371.497 1.281 1.189 2.382 2.052 3.273a8.822 8.822 0 0 0 3.077 2.058 9.944 9.944 0 0 0 3.712.701c1.242 0 2.32-.22 3.203-.652.24-.118.47-.255.688-.416v1.1l7.89-1.585V7.674h-7.893v.462zm-.244 10.69c-.165.43-.386.807-.656 1.125a2.603 2.603 0 0 1-.883.684 2.35 2.35 0 0 1-2.052 0 2.592 2.592 0 0 1-.88-.684 3.648 3.648 0 0 1-.635-1.111 4.216 4.216 0 0 1-.234-1.448c0-.541.079-1.036.237-1.472a3.23 3.23 0 0 1 .62-1.074 2.63 2.63 0 0 1 .882-.652c.336-.151.676-.226 1.041-.226.366 0 .705.072 1.041.226.34.154.626.363.883.648.26.292.478.659.64 1.088.164.433.246.924.246 1.458a4.178 4.178 0 0 1-.25 1.439zM76.918 17.182l-3.456-9.509h-8.516l7.498 18.745h.461a2.366 2.366 0 0 1-.596.22c-.34.075-.735.12-1.17.13-.484.01-.995.014-1.528.014h-.824v7.221h2.415c2.563 0 4.69-.665 6.325-1.972 1.598-1.278 2.846-3.04 3.71-5.22l8.04-19.134h-8.515l-3.844 9.505zM111.198 9.305l-6.757.695V.626h-8.008v26.146h8.008v-9.541l6.757-.698v10.239h8.011V.626h-8.011v8.68zM134.129 17.604c-.053.95-.296 1.671-.721 2.15-.422.471-1.022.74-1.832.819-.329.03-.626 0-.909-.095a1.782 1.782 0 0 1-.715-.443 2.462 2.462 0 0 1-.537-.855c-.142-.36-.214-.8-.214-1.314V7.673h-7.89v10.672c0 1.461.214 2.795.633 3.961.424 1.183 1.027 2.199 1.795 3.014a7.71 7.71 0 0 0 2.77 1.888c.966.39 2.017.586 3.13.586.112 0 .227-.003.339-.006a11.26 11.26 0 0 0 2.962-.547 8.122 8.122 0 0 0 1.189-.485v.73l7.89-1.546V7.673h-7.89v9.931zM164.387 13.017c-.497-1.284-1.189-2.382-2.056-3.263a8.74 8.74 0 0 0-3.08-2.028 10.178 10.178 0 0 0-3.706-.685 8.637 8.637 0 0 0-2.872.465 6.727 6.727 0 0 0-1.018.46V0h-7.89v27.824l7.102-1.429c.554.41 1.16.724 1.812.947.873.298 1.835.446 2.863.446 1.301 0 2.55-.236 3.713-.701a8.77 8.77 0 0 0 3.076-2.058c.864-.891 1.552-1.992 2.053-3.273.494-1.275.744-2.743.744-4.371.004-1.622-.247-3.093-.741-4.368zm-7.392 5.81a3.87 3.87 0 0 1-.656 1.123c-.254.299-.547.531-.873.689-.319.154-.646.229-1.005.229-.378 0-.724-.075-1.057-.233a2.596 2.596 0 0 1-.88-.684 3.643 3.643 0 0 1-.635-1.111 4.21 4.21 0 0 1-.234-1.448v-.154c.016-.525.105-.997.26-1.406.151-.397.359-.74.619-1.022.254-.276.541-.479.877-.623a2.594 2.594 0 0 1 1.054-.216c.362 0 .695.072 1.018.223.326.15.619.37.873.652.26.291.477.658.639 1.088.164.432.247.924.247 1.458 0 .527-.083 1.012-.247 1.435z" fill="#243664"/>
    </g>
    <defs>
        <clipPath id="a">
            <path fill="#fff" transform="translate(.5)" d="M0 0h165v34H0z"/>
        </clipPath>
    </defs>
</svg>
