<svg width="556" height="208" viewBox="0 0 556 208" fill="none" xmlns="http://www.w3.org/2000/svg">
<g filter="url(#filter0_d_412:3247)">
<rect x="8" y="5" width="540" height="192" rx="10" fill="white"/>
</g>
<mask id="mask0_412:3247" style="mask-type:alpha" maskUnits="userSpaceOnUse" x="8" y="5" width="540" height="192">
<rect x="8" y="5" width="540" height="192" rx="10" fill="#DDDFE6"/>
</mask>
<g mask="url(#mask0_412:3247)">
<path opacity="0.1" d="M437.26 113.226L379.811 146.53L450.313 187.394L507.762 154.095L437.26 113.226Z" fill="black"/>
<path d="M430.729 112.472L437.26 108.685V116.255L430.729 120.042V112.472Z" fill="#AFA116"/>
<path d="M430.729 112.472L496.012 150.312V157.878L430.729 120.042V112.472Z" fill="#FFC118"/>
<path d="M496.012 150.312L502.538 146.53V154.095L496.012 157.878V150.312Z" fill="#F4A40F"/>
<path d="M437.26 108.685L502.539 146.53L496.012 150.312L430.729 112.472L437.26 108.685Z" fill="#EA8C07"/>
<path d="M433.992 82.1689V114.363L440.519 110.58V78.3862L433.992 82.1689Z" fill="#F4A40F"/>
<path d="M430.729 112.472L433.994 114.363V82.1689L430.733 80.2776L430.729 112.472Z" fill="#FFC118"/>
<path d="M433.992 106.793L437.257 104.902V112.472L433.992 114.363V106.793Z" fill="#7B4510"/>
<path d="M433.992 106.793L492.745 140.851V148.421L433.992 114.363V106.793Z" fill="#8D5323"/>
<path d="M492.744 140.851L496.009 138.96V146.53L492.744 148.421V140.851Z" fill="#653214"/>
<path d="M437.258 104.902L496.01 138.959L492.745 140.851L433.992 106.793L437.258 104.902Z" fill="#78421B"/>
<path d="M433.992 98.5622L437.257 96.6709V104.241L433.992 106.132V98.5622Z" fill="#7B4510"/>
<path d="M433.992 98.5618L492.745 132.62V140.189L433.992 106.132V98.5618Z" fill="#8D5323"/>
<path d="M492.744 132.62L496.009 130.728V138.298L492.744 140.19V132.62Z" fill="#653214"/>
<path d="M437.258 96.6709L496.01 130.729L492.745 132.62L433.992 98.5622L437.258 96.6709Z" fill="#78421B"/>
<path d="M433.992 90.3308L437.257 88.4395V96.0094L433.992 97.9007V90.3308Z" fill="#7B4510"/>
<path d="M433.992 90.3308L492.745 124.389V131.959L433.992 97.9007V90.3308Z" fill="#8D5323"/>
<path d="M492.744 124.389L496.009 122.497V130.063L492.744 131.959V124.389Z" fill="#653214"/>
<path d="M437.258 88.4395L496.01 122.497L492.745 124.389L433.992 90.3308L437.258 88.4395Z" fill="#78421B"/>
<path d="M433.992 82.0996L437.257 80.2083V87.7782L433.992 89.6695V82.0996Z" fill="#7B4510"/>
<path d="M433.992 82.0996L492.745 116.157V123.727L433.992 89.6695V82.0996Z" fill="#8D5323"/>
<path d="M492.744 116.157L496.009 114.266V121.836L492.744 123.727V116.157Z" fill="#653214"/>
<path d="M437.258 80.2083L496.01 114.266L492.745 116.157L433.992 82.0996L437.258 80.2083Z" fill="#78421B"/>
<path d="M496.012 118.118V150.312L502.538 146.529V114.335L496.012 118.118Z" fill="#F4A40F"/>
<path d="M492.744 148.421L496.009 150.313V118.118L492.744 116.227V148.421Z" fill="#FFC118"/>
<path d="M430.729 72.7077L437.26 68.925V76.495L430.729 80.2776V72.7077Z" fill="#AFA116"/>
<path d="M430.729 72.7078L496.012 110.548V118.118L430.729 80.2777V72.7078Z" fill="#FFC118"/>
<path d="M496.012 110.548L502.538 106.766V114.336L496.012 118.118V110.548Z" fill="#F4A40F"/>
<path d="M437.26 68.925L502.539 106.765L496.012 110.548L430.729 72.7077L437.26 68.925Z" fill="#EA8C07"/>
<path d="M391.559 135.177L430.727 112.472V120.042L391.559 142.742V135.177Z" fill="#7B4510"/>
<path d="M398.088 138.96L437.256 116.254V123.824L398.088 146.53V138.96Z" fill="#F4A40F"/>
<path d="M391.559 135.177V142.743L398.09 146.53V138.96L391.559 135.177Z" fill="#FFC118"/>
<path d="M391.559 135.177L398.09 138.96L437.258 116.255L430.727 112.472L391.559 135.177Z" fill="#EA8C07"/>
<path d="M394.826 129.498L433.995 106.793V114.363L394.826 137.068V129.498Z" fill="#7B4510"/>
<path d="M398.088 131.39L437.256 108.685V116.255L398.088 138.96V131.39Z" fill="#653214"/>
<path d="M394.826 129.498V137.068L398.091 138.959V131.389L394.826 129.498Z" fill="#8D5323"/>
<path d="M394.826 129.498L398.092 131.389L437.26 108.684L433.995 106.793L394.826 129.498Z" fill="#52250F"/>
<path d="M394.826 121.267L433.995 98.5618V106.132L394.826 128.837V121.267Z" fill="#7B4510"/>
<path d="M398.088 123.158L437.256 100.453V108.023L398.088 130.728V123.158Z" fill="#653214"/>
<path d="M394.826 121.267V128.837L398.091 130.728V123.158L394.826 121.267Z" fill="#8D5323"/>
<path d="M394.826 121.267L398.092 123.158L437.26 100.453L433.995 98.5618L394.826 121.267Z" fill="#52250F"/>
<path d="M394.826 113.036L433.995 90.3308V97.9007L394.826 120.606V113.036Z" fill="#7B4510"/>
<path d="M398.088 114.927L437.256 92.2222V99.7921L398.088 122.497V114.927Z" fill="#653214"/>
<path d="M394.826 113.036V120.606L398.091 122.497V114.927L394.826 113.036Z" fill="#8D5323"/>
<path d="M394.826 113.036L398.092 114.927L437.26 92.2221L433.995 90.3308L394.826 113.036Z" fill="#52250F"/>
<path d="M394.826 104.805L433.995 82.0996V89.6695L394.826 112.375V104.805Z" fill="#7B4510"/>
<path d="M398.088 106.696L437.256 83.9907V91.5607L398.088 114.266V106.696Z" fill="#653214"/>
<path d="M394.826 104.805V112.375L398.091 114.266V106.696L394.826 104.805Z" fill="#8D5323"/>
<path d="M394.826 104.805L398.092 106.696L437.26 83.9909L433.995 82.0996L394.826 104.805Z" fill="#78421B"/>
<path d="M391.559 95.4129L430.727 72.7078V80.2777L391.559 102.983V95.4129Z" fill="#7B4510"/>
<path d="M398.088 99.1957L437.256 76.4951V84.0604L398.088 106.766V99.1957Z" fill="#F4A40F"/>
<path d="M391.559 95.4131V102.983L398.09 106.766V99.2004L391.559 95.4131Z" fill="#C0B030"/>
<path d="M391.559 95.4129L398.09 99.2002L437.258 76.495L430.727 72.7078L391.559 95.4129Z" fill="#EA8C07"/>
<path d="M398.088 135.177L437.256 112.472V116.255L398.088 138.96V135.177Z" fill="#7B4510"/>
<path d="M398.088 135.177L453.575 167.339V171.126L398.088 138.96V135.177Z" fill="#8D5323"/>
<path d="M453.582 167.339L492.751 144.638V148.421L453.582 171.126V167.339Z" fill="#7B4510"/>
<path d="M437.256 112.472L492.744 144.638L453.575 167.339L398.088 135.177L437.256 112.472Z" fill="#66310A"/>
<path d="M450.312 169.235L489.486 146.53V154.095L450.312 176.8V169.235Z" fill="#7B4510"/>
<path d="M456.844 173.018L496.012 150.312V157.882L456.844 180.588V173.018Z" fill="#F4A40F"/>
<path d="M450.312 169.235V176.8L456.844 180.587V173.017L450.312 169.235Z" fill="#C0B030"/>
<path d="M450.312 169.235L456.844 173.018L496.012 150.312L489.486 146.53L450.312 169.235Z" fill="#EA8C07"/>
<path d="M450.312 161.665L489.486 138.96V146.53L450.312 169.235V161.665Z" fill="#7B4510"/>
<path d="M453.582 163.556L492.751 140.851V148.421L453.582 171.126V163.556Z" fill="#653214"/>
<path d="M450.312 161.665V169.235L453.578 171.126V163.556L450.312 161.665Z" fill="#8D5323"/>
<path d="M450.312 161.665L453.578 163.556L492.747 140.851L489.486 138.96L450.312 161.665Z" fill="#52250F"/>
<path d="M450.312 153.433L489.486 130.728V138.298L450.312 161.003V153.433Z" fill="#7B4510"/>
<path d="M453.582 155.325L492.751 132.62V140.19L453.582 162.895V155.325Z" fill="#653214"/>
<path d="M450.312 153.433V161.003L453.578 162.895V155.325L450.312 153.433Z" fill="#8D5323"/>
<path d="M450.312 153.433L453.578 155.325L492.747 132.62L489.486 130.728L450.312 153.433Z" fill="#52250F"/>
<path d="M450.312 145.202L489.486 122.497V130.067L450.312 152.772V145.202Z" fill="#7B4510"/>
<path d="M453.582 147.094L492.751 124.388V131.958L453.582 154.664V147.094Z" fill="#653214"/>
<path d="M450.312 145.202V152.772L453.578 154.663V147.093L450.312 145.202Z" fill="#8D5323"/>
<path d="M450.312 145.202L453.578 147.094L492.747 124.389L489.486 122.497L450.312 145.202Z" fill="#52250F"/>
<path d="M450.312 136.971L489.486 114.266V121.836L450.312 144.536V136.971Z" fill="#7B4510"/>
<path d="M453.582 138.862L492.751 116.157V123.727L453.582 146.432V138.862Z" fill="#653214"/>
<path d="M450.312 136.971V144.537L453.578 146.433V138.863L450.312 136.971Z" fill="#8D5323"/>
<path d="M450.312 136.971L453.578 138.862L492.747 116.157L489.486 114.266L450.312 136.971Z" fill="#78421B"/>
<path d="M450.312 129.471L489.486 106.766V114.336L450.312 137.041V129.471Z" fill="#7B4510"/>
<path d="M456.844 133.254L496.012 110.548V118.118L456.844 140.823V133.254Z" fill="#F4A40F"/>
<path d="M450.312 129.47V137.04L456.844 140.823V133.253L450.312 129.47Z" fill="#C0B030"/>
<path d="M489.486 106.766L496.012 110.548L456.844 133.253L450.312 129.471L489.486 106.766Z" fill="#EA8C07"/>
<path d="M385.029 138.96L391.556 135.177V142.743L385.029 146.53V138.96Z" fill="#AFA116"/>
<path d="M385.029 138.96L450.309 176.8V184.37L385.029 146.53V138.96Z" fill="#FFC118"/>
<path d="M450.312 176.8L456.844 173.017V180.583L450.312 184.37V176.8Z" fill="#F4A40F"/>
<path d="M391.556 135.177L456.84 173.018L450.309 176.8L385.029 138.96L391.556 135.177Z" fill="#EA8C07"/>
<path d="M391.559 131.389L394.824 129.498V137.068L391.559 138.959V131.389Z" fill="#7B4510"/>
<path d="M391.559 131.39L450.311 165.447V173.017L391.559 138.96V131.39Z" fill="#8D5323"/>
<path d="M450.312 165.447L453.578 163.556V171.126L450.312 173.017V165.447Z" fill="#653214"/>
<path d="M394.824 129.498L453.577 163.556L450.311 165.447L391.559 131.389L394.824 129.498Z" fill="#78421B"/>
<path d="M391.559 123.158L394.824 121.267V128.837L391.559 130.728V123.158Z" fill="#7B4510"/>
<path d="M391.559 123.158L450.311 157.216V164.786L391.559 130.728V123.158Z" fill="#8D5323"/>
<path d="M450.312 157.216L453.578 155.325V162.895L450.312 164.786V157.216Z" fill="#653214"/>
<path d="M394.824 121.267L453.577 155.325L450.311 157.216L391.559 123.158L394.824 121.267Z" fill="#78421B"/>
<path d="M391.559 114.927L394.824 113.036V120.606L391.559 122.497V114.927Z" fill="#7B4510"/>
<path d="M391.559 114.927L450.311 148.985V156.555L391.559 122.497V114.927Z" fill="#8D5323"/>
<path d="M450.312 148.985L453.578 147.094V154.664L450.312 156.555V148.985Z" fill="#653214"/>
<path d="M394.824 113.036L453.577 147.094L450.311 148.985L391.559 114.927L394.824 113.036Z" fill="#78421B"/>
<path d="M391.559 106.696L394.824 104.805V112.375L391.559 114.266V106.696Z" fill="#7B4510"/>
<path d="M391.559 106.696L450.311 140.754V148.324L391.559 114.266V106.696Z" fill="#8D5323"/>
<path d="M450.312 140.754L453.578 138.863V146.432L450.312 148.324V140.754Z" fill="#653214"/>
<path d="M394.824 104.805L453.577 138.862L450.311 140.754L391.559 106.696L394.824 104.805Z" fill="#78421B"/>
<path d="M450.314 144.606V176.8L443.787 173.017V140.823L450.314 144.606Z" fill="#FFC118"/>
<path d="M450.312 144.606V176.8L456.844 173.017V140.823L450.312 144.606Z" fill="#F4A40F"/>
<path d="M391.556 110.548V142.742L385.029 138.96V106.766L391.556 110.548Z" fill="#FFC118"/>
<path d="M391.559 142.743L394.824 140.851V108.657L391.563 110.548L391.559 142.743Z" fill="#F4A40F"/>
<path d="M385.029 99.1957L391.556 95.4131V102.983L385.029 106.766V99.1957Z" fill="#AFA116"/>
<path d="M385.029 99.1958L450.309 137.036V144.606L385.029 106.766V99.1958Z" fill="#FFC118"/>
<path d="M450.312 137.036L456.844 133.253V140.823L450.312 144.606V137.036Z" fill="#F4A40F"/>
<path d="M391.556 95.4131L456.84 133.254L450.309 137.036L385.029 99.1957L391.556 95.4131Z" fill="#EA8C07"/>
<path d="M411.146 114.335L424.204 121.901V137.036L411.146 129.47V114.335Z" fill="#FFF200"/>
<path d="M408.934 115.616L421.991 123.186V138.321L408.934 130.751V115.616Z" fill="#FFC118"/>
<path d="M424.201 137.036L421.99 138.321V123.186L424.201 121.901V137.036Z" fill="#F4A40F"/>
<path d="M408.934 115.616L411.144 114.335L424.202 121.901L421.991 123.186L408.934 115.616Z" fill="#EA8C07"/>
<path d="M424.203 137.036L430.73 133.253L424.203 129.47V137.036Z" fill="#F4A40F"/>
<path d="M414.142 129.891V129.919C414.142 129.956 414.142 129.997 414.142 130.034V130.071C414.14 130.114 414.14 130.158 414.142 130.201C414.142 130.256 414.142 130.307 414.174 130.363C414.174 130.386 414.174 130.409 414.174 130.432C414.174 130.455 414.174 130.483 414.197 130.511V130.552C414.212 130.601 414.228 130.649 414.248 130.696C414.248 130.696 414.248 130.728 414.248 130.747L414.303 130.871L414.372 131.01C414.372 131.047 414.409 131.084 414.432 131.121L414.52 131.264C414.548 131.311 414.579 131.356 414.612 131.399L414.676 131.486L414.718 131.533C414.745 131.569 414.774 131.603 414.805 131.634L414.833 131.667L414.902 131.731L414.98 131.81L415.054 131.875L415.174 131.963L415.243 132.009L415.307 132.051L415.427 132.111H415.468L415.556 132.148H415.588H415.671H415.703H415.791H415.984H416.044H416.099H416.141L416.215 132.115C416.345 132.021 416.448 131.894 416.514 131.747C416.58 131.6 416.607 131.439 416.592 131.278V128.064H416.615C417.384 127.972 417.845 127.297 417.845 126.261C417.835 125.665 417.711 125.076 417.481 124.527L413.99 126.562L414.142 129.891Z" fill="#231F20"/>
<path d="M415.471 121.961C415.213 121.775 414.911 121.66 414.595 121.628C414.278 121.597 413.96 121.649 413.67 121.78H413.629L413.583 121.808L413.523 121.859C413.505 121.871 413.488 121.885 413.472 121.901L413.375 121.998C413.357 122.018 413.341 122.04 413.325 122.062L413.251 122.16C413.234 122.186 413.219 122.214 413.205 122.243L413.145 122.349C413.131 122.381 413.119 122.413 413.108 122.446C413.089 122.485 413.072 122.525 413.058 122.567L413.03 122.673C413.017 122.717 413.006 122.762 412.998 122.807C412.996 122.825 412.996 122.844 412.998 122.862C413 122.882 413 122.903 412.998 122.923C412.998 122.973 412.998 123.015 412.998 123.066C412.996 123.109 412.996 123.152 412.998 123.195C412.998 123.232 412.998 123.26 412.998 123.297V123.477C413 123.516 413 123.555 412.998 123.593C412.998 123.63 412.998 123.662 412.998 123.699C412.998 123.736 412.998 123.741 412.998 123.76C412.996 123.78 412.996 123.8 412.998 123.82C412.996 123.849 412.996 123.878 412.998 123.908V124.009C412.998 124.051 412.998 124.088 412.998 124.13V124.199C412.998 124.264 413.025 124.328 413.044 124.393C413.062 124.458 413.071 124.513 413.09 124.569V124.62L413.131 124.754V124.791C413.131 124.851 413.173 124.911 413.196 124.971C413.197 124.988 413.197 125.005 413.196 125.022C413.219 125.087 413.246 125.151 413.274 125.216C413.302 125.281 413.274 125.267 413.306 125.29C413.339 125.313 413.371 125.429 413.408 125.498L413.445 125.582C413.468 125.628 413.491 125.674 413.518 125.72C413.546 125.766 413.624 125.91 413.679 125.998C413.707 126.047 413.738 126.095 413.771 126.141L413.859 126.266L413.919 126.349C413.956 126.405 413.993 126.456 414.034 126.506V126.539L417.525 124.504C417.109 123.469 416.393 122.583 415.471 121.961Z" fill="#534E6B"/>
<path d="M413.757 126.113L413.789 126.159L413.817 126.205L413.844 126.242C413.811 126.196 413.78 126.149 413.752 126.099L413.757 126.113Z" fill="#967386"/>
<path d="M413.864 126.271V126.299L413.897 126.35L413.924 126.387L413.836 126.261L413.864 126.271Z" fill="#967386"/>
<path d="M414.028 126.511L414.079 126.581C414.096 126.6 414.111 126.62 414.125 126.641C414.084 126.59 414.047 126.539 414.01 126.483L414.028 126.511Z" fill="#967386"/>
<path d="M417.688 57.5815C409.745 62.179 403.148 68.7956 398.562 76.7656C393.975 84.7355 391.559 93.7778 391.559 102.983L443.785 72.7075C443.785 59.2647 429.285 50.8578 417.688 57.5815Z" fill="#EA940A"/>
<path d="M417.685 57.5817C420.323 56.0358 423.322 55.2212 426.376 55.2212C429.431 55.2212 432.43 56.0358 435.068 57.5817L428.578 53.8176H428.537L428.44 53.7621C425.809 52.2436 422.825 51.4499 419.79 51.4613C416.756 51.4727 413.778 52.2887 411.159 53.8268C403.215 58.4225 396.618 65.038 392.031 73.0075C387.444 80.9769 385.029 90.0189 385.029 99.2233L391.556 103.011C391.552 93.8011 393.965 84.7531 398.552 76.7778C403.139 68.8026 409.738 62.1816 417.685 57.5817Z" fill="#F4AD13"/>
<path d="M446.994 127.829C447.881 120.098 450.56 112.682 454.816 106.178C459.072 99.673 464.787 94.26 471.502 90.3728C473.679 89.0884 476.158 88.41 478.683 88.4075C482.435 88.43 486.036 89.8945 488.747 92.5C491.132 94.7884 492.646 97.8425 493.025 101.133L446.994 127.829Z" fill="#B2BECB"/>
<path d="M471.5 90.3865C473.677 89.1021 476.156 88.4237 478.681 88.4212C481.215 88.4319 483.704 89.1078 485.898 90.3819L433.736 60.1437C431.535 58.8596 429.037 58.1772 426.491 58.1646C423.964 58.1681 421.484 58.8481 419.306 60.1345C412.59 64.0208 406.875 69.4337 402.62 75.9386C398.364 82.4435 395.687 89.8594 394.803 97.5911L447.024 127.862C447.911 120.13 450.59 112.715 454.846 106.21C459.102 99.7052 464.817 94.2922 471.532 90.405L471.5 90.3865Z" fill="#8D5323"/>
<path d="M398.745 83.5643L398.469 84.0471L450.934 114.32L451.21 113.837L398.745 83.5643Z" fill="#78421B"/>
<path d="M404.937 72.5685L404.66 73.0491L456.886 103.322L457.162 102.841L404.937 72.5685Z" fill="#78421B"/>
<path d="M414.614 63.0397L414.338 63.5203L466.559 93.7908L466.836 93.3102L414.614 63.0397Z" fill="#78421B"/>
<path d="M425.296 57.9726L425.02 58.4531L477.241 88.7236L477.517 88.2431L425.296 57.9726Z" fill="#78421B"/>
<path d="M444.301 125.979C443.962 128.389 443.793 130.82 443.794 133.253L391.559 102.983C391.558 100.548 391.727 98.1157 392.065 95.7043L444.301 125.979Z" fill="#F4AD13"/>
<path d="M444.887 122.543C444.65 123.678 444.452 124.822 444.293 125.975L392.066 95.7041L395.332 93.8127L444.887 122.543Z" fill="#E18606"/>
<path d="M450.312 137.041C450.313 127.836 452.729 118.794 457.316 110.824C461.902 102.854 468.499 96.237 476.442 91.6395C488.044 84.9158 502.539 93.3181 502.539 106.765L450.312 137.041Z" fill="#EA940A"/>
<path d="M457.305 126.359C458.758 120.159 461.46 114.324 465.244 109.212C469.028 104.1 473.814 99.8194 479.307 96.6339C481.064 95.5937 483.066 95.0429 485.106 95.0386C489.873 95.0386 494.958 98.2756 496.39 103.667L457.305 126.359Z" fill="#653214"/>
<path d="M496.399 103.667C495.911 101.889 495.01 100.252 493.77 98.8911C492.53 97.5302 490.986 96.4839 489.265 95.8381C491.154 97.3506 492.51 99.4318 493.134 101.776L458.622 121.808C458.105 123.301 457.665 124.82 457.305 126.358L496.399 103.667Z" fill="#D77703"/>
<path d="M496.399 103.667L457.309 126.326C457.672 124.791 458.115 123.27 458.626 121.776L493.124 101.776L496.399 103.667Z" fill="#E18606"/>
<path d="M476.443 91.6395C479.081 90.0936 482.08 89.279 485.134 89.279C488.188 89.279 491.188 90.0936 493.825 91.6395L487.336 87.8754L487.294 87.8522L487.198 87.7968C484.566 86.2792 481.583 85.4861 478.548 85.4974C475.514 85.5088 472.536 86.3243 469.916 87.8615C461.974 92.4594 455.378 99.076 450.791 107.046C446.204 115.016 443.788 124.058 443.787 133.263L450.314 137.05C450.313 127.844 452.727 118.799 457.314 110.828C461.901 102.856 468.499 96.2378 476.443 91.6395Z" fill="#F4AD13"/>
<path fill-rule="evenodd" clip-rule="evenodd" d="M516.317 91.6806L516.383 91.8399C516.781 92.9152 516.752 94.1032 516.303 95.1582C516.073 95.7106 515.736 96.212 515.312 96.6333C514.888 97.0547 514.385 97.3879 513.833 97.6137H513.688C512.615 98.0005 511.438 97.9721 510.385 97.5341C509.835 97.3023 509.336 96.9637 508.917 96.5378C508.497 96.1118 508.166 95.6069 507.941 95.052L507.875 94.8927C507.477 93.8173 507.505 92.6293 507.954 91.5744C508.185 91.0219 508.522 90.5206 508.946 90.0992C509.37 89.6779 509.872 89.3447 510.425 89.1189L510.583 89.0525C511.66 88.6661 512.842 88.6945 513.899 89.1321C514.447 89.3641 514.944 89.7029 515.362 90.1289C515.779 90.5549 516.108 91.0598 516.33 91.6142L516.317 91.6806ZM514.824 92.1982C514.68 91.8484 514.467 91.531 514.2 91.2643C513.932 90.9977 513.614 90.7873 513.265 90.6453C512.549 90.3524 511.748 90.3524 511.032 90.6453C510.325 90.9501 509.765 91.5206 509.472 92.235C509.178 92.9493 509.174 93.7507 509.46 94.468C509.602 94.8206 509.814 95.141 510.082 95.41C510.349 95.6791 510.668 95.8913 511.019 96.0342C511.373 96.182 511.752 96.2582 512.135 96.2582C512.519 96.2582 512.898 96.182 513.252 96.0342C513.959 95.7294 514.519 95.1588 514.813 94.4445C515.106 93.7302 515.11 92.9288 514.824 92.2115V92.1982Z" fill="#F4AD13"/>
<path fill-rule="evenodd" clip-rule="evenodd" d="M513.21 136.534C513.21 136.806 513.103 137.066 512.912 137.258C512.721 137.45 512.463 137.558 512.193 137.558C511.923 137.558 511.664 137.45 511.474 137.258C511.283 137.066 511.176 136.806 511.176 136.534V128.662C511.176 128.39 511.283 128.13 511.474 127.938C511.664 127.746 511.923 127.638 512.193 127.638C512.463 127.638 512.721 127.746 512.912 127.938C513.103 128.13 513.21 128.39 513.21 128.662V136.534Z" fill="#F4AD13"/>
<path fill-rule="evenodd" clip-rule="evenodd" d="M516.025 131.575C516.295 131.575 516.554 131.683 516.744 131.874C516.935 132.066 517.042 132.327 517.042 132.598C517.042 132.87 516.935 133.13 516.744 133.322C516.554 133.514 516.295 133.622 516.025 133.622H508.201C507.931 133.622 507.672 133.514 507.482 133.322C507.291 133.13 507.184 132.87 507.184 132.598C507.184 132.327 507.291 132.066 507.482 131.874C507.672 131.683 507.931 131.575 508.201 131.575H516.025Z" fill="#F4AD13"/>
<path fill-rule="evenodd" clip-rule="evenodd" d="M371.052 79.8049C371.052 80.0764 370.945 80.3367 370.754 80.5286C370.563 80.7205 370.305 80.8284 370.035 80.8284C369.765 80.8284 369.506 80.7205 369.316 80.5286C369.125 80.3367 369.018 80.0764 369.018 79.8049V71.9324C369.018 71.6609 369.125 71.4006 369.316 71.2087C369.506 71.0168 369.765 70.9089 370.035 70.9089C370.305 70.9089 370.563 71.0168 370.754 71.2087C370.945 71.4006 371.052 71.6609 371.052 71.9324V79.8049Z" fill="#F4AD13"/>
<path fill-rule="evenodd" clip-rule="evenodd" d="M373.931 74.845C374.201 74.845 374.46 74.9528 374.651 75.1447C374.842 75.3367 374.949 75.597 374.949 75.8684C374.949 76.1398 374.842 76.4001 374.651 76.5921C374.46 76.784 374.201 76.8918 373.931 76.8918H366.107C365.837 76.8918 365.579 76.784 365.388 76.5921C365.197 76.4001 365.09 76.1398 365.09 75.8684C365.09 75.597 365.197 75.3367 365.388 75.1447C365.579 74.9528 365.837 74.845 366.107 74.845H373.931Z" fill="#F4AD13"/>
<path fill-rule="evenodd" clip-rule="evenodd" d="M377.923 134.33L378.001 134.519C378.457 135.803 378.423 137.211 377.907 138.471C377.634 139.124 377.234 139.717 376.732 140.214C376.23 140.711 375.635 141.103 374.981 141.368H374.793C373.488 141.846 372.05 141.796 370.781 141.23C369.511 140.663 368.51 139.623 367.986 138.329L367.908 138.156C367.433 136.843 367.482 135.396 368.045 134.119C368.608 132.842 369.642 131.834 370.928 131.307L371.116 131.228C372.384 130.754 373.784 130.787 375.028 131.323C375.679 131.598 376.27 131.999 376.767 132.504C377.264 133.01 377.657 133.609 377.923 134.267V134.33ZM376.139 134.96C375.779 134.122 375.112 133.457 374.277 133.102C373.858 132.926 373.408 132.836 372.954 132.836C372.501 132.836 372.051 132.926 371.632 133.102C370.793 133.457 370.127 134.131 369.779 134.976C369.43 135.822 369.427 136.772 369.77 137.621C370.123 138.457 370.785 139.123 371.616 139.479C372.036 139.654 372.485 139.744 372.939 139.744C373.393 139.744 373.842 139.654 374.261 139.479C374.677 139.309 375.055 139.057 375.372 138.738C375.689 138.419 375.939 138.039 376.108 137.621C376.282 137.199 376.372 136.747 376.372 136.29C376.372 135.834 376.282 135.381 376.108 134.96H376.139Z" fill="#F4AD13"/>
<path fill-rule="evenodd" clip-rule="evenodd" d="M359.408 112.87C359.687 112.87 359.959 112.786 360.191 112.631C360.423 112.475 360.603 112.254 360.71 111.995C360.816 111.736 360.844 111.451 360.79 111.176C360.735 110.901 360.601 110.649 360.404 110.45C360.207 110.252 359.956 110.117 359.683 110.063C359.41 110.008 359.127 110.036 358.869 110.143C358.612 110.251 358.392 110.432 358.237 110.665C358.083 110.898 358 111.172 358 111.452C358 111.828 358.148 112.189 358.413 112.454C358.677 112.72 359.035 112.87 359.408 112.87Z" fill="#F4AD13"/>
<path fill-rule="evenodd" clip-rule="evenodd" d="M363.647 159.46C363.93 159.463 364.207 159.381 364.444 159.225C364.68 159.068 364.865 158.845 364.975 158.582C365.085 158.32 365.114 158.031 365.06 157.751C365.005 157.472 364.869 157.215 364.669 157.014C364.469 156.812 364.214 156.676 363.936 156.621C363.659 156.566 363.371 156.596 363.11 156.706C362.849 156.816 362.627 157.003 362.472 157.241C362.317 157.479 362.235 157.758 362.238 158.042C362.242 158.417 362.392 158.775 362.655 159.04C362.919 159.305 363.275 159.455 363.647 159.46Z" fill="#F4AD13"/>
<path fill-rule="evenodd" clip-rule="evenodd" d="M409.25 48.8655C409.533 48.8686 409.809 48.7873 410.046 48.6317C410.282 48.4762 410.467 48.2536 410.577 47.992C410.687 47.7305 410.718 47.4419 410.665 47.163C410.611 46.884 410.477 46.6272 410.279 46.4253C410.08 46.2233 409.826 46.0853 409.55 46.0287C409.273 45.9721 408.986 45.9996 408.725 46.1075C408.464 46.2155 408.24 46.3991 408.083 46.6351C407.926 46.871 407.842 47.1487 407.842 47.4327C407.84 47.6201 407.875 47.8061 407.945 47.9798C408.014 48.1536 408.118 48.3117 408.249 48.4449C408.38 48.5782 408.536 48.684 408.708 48.7562C408.88 48.8284 409.064 48.8655 409.25 48.8655Z" fill="#F4AD13"/>
<path fill-rule="evenodd" clip-rule="evenodd" d="M525.724 113.704C526.074 113.667 526.397 113.501 526.633 113.238C526.868 112.975 526.999 112.633 526.999 112.279C526.999 111.925 526.868 111.583 526.633 111.32C526.397 111.057 526.074 110.891 525.724 110.854C525.525 110.833 525.324 110.854 525.135 110.916C524.945 110.978 524.77 111.08 524.622 111.214C524.473 111.348 524.355 111.513 524.274 111.696C524.192 111.88 524.15 112.078 524.15 112.279C524.15 112.48 524.192 112.678 524.274 112.862C524.355 113.045 524.473 113.21 524.622 113.344C524.77 113.478 524.945 113.58 525.135 113.642C525.324 113.704 525.525 113.725 525.724 113.704Z" fill="#F4AD13"/>
<path fill-rule="evenodd" clip-rule="evenodd" d="M515.444 158.452C515.726 158.452 516.002 158.367 516.237 158.209C516.471 158.051 516.654 157.826 516.761 157.563C516.868 157.301 516.895 157.012 516.839 156.733C516.783 156.455 516.646 156.2 516.445 156C516.244 155.8 515.989 155.665 515.712 155.612C515.435 155.558 515.148 155.589 514.888 155.7C514.628 155.81 514.407 155.997 514.252 156.234C514.097 156.472 514.017 156.75 514.02 157.035C514.024 157.412 514.176 157.772 514.442 158.037C514.709 158.303 515.069 158.452 515.444 158.452Z" fill="#F4AD13"/>
<g opacity="0.2">
<path opacity="0.5" d="M421.478 179.847C426.271 182.627 426.299 187.135 421.534 189.915C416.77 192.695 409.018 192.695 404.224 189.915C399.431 187.135 399.402 182.627 404.167 179.847C408.932 177.067 416.679 177.067 421.478 179.847Z" fill="black"/>
</g>
<path d="M423.105 181.861V184.117C423.105 185.769 422.019 187.416 419.862 188.678C415.515 191.21 408.45 191.21 404.079 188.678C401.874 187.402 400.76 185.726 400.76 184.055V181.799C400.76 183.47 401.855 185.131 404.079 186.421C408.45 188.958 415.519 188.958 419.862 186.421C422.019 185.16 423.1 183.513 423.105 181.861Z" fill="#ED9B20"/>
<path d="M419.813 177.777C424.189 180.309 424.212 184.441 419.865 186.954C415.517 189.467 408.453 189.491 404.081 186.954C399.71 184.417 399.686 180.29 404.029 177.777C408.372 175.263 415.441 175.239 419.813 177.777Z" fill="#FFE374"/>
<path d="M419.813 177.244C424.189 179.776 424.212 183.908 419.865 186.421C415.517 188.935 408.453 188.958 404.081 186.421C399.71 183.884 399.686 179.757 404.029 177.244C408.372 174.73 415.441 174.706 419.813 177.244Z" fill="#FFD830"/>
<path d="M418.125 178.224C421.558 180.219 421.577 183.46 418.163 185.436C414.749 187.411 409.197 187.43 405.76 185.436C402.323 183.441 402.308 180.2 405.722 178.22C409.136 176.239 414.688 176.235 418.125 178.224Z" fill="#FFCB00"/>
<path d="M405.724 179.486C409.138 177.491 414.69 177.491 418.127 179.486C419.573 180.324 420.412 181.39 420.645 182.475C420.967 180.966 420.128 179.386 418.127 178.224C414.69 176.235 409.119 176.235 405.724 178.224C403.747 179.376 402.927 180.943 403.244 182.442C403.472 181.361 404.297 180.314 405.724 179.486Z" fill="#ED9B20"/>
<path d="M423.105 179.086V181.342C423.105 182.994 422.019 184.641 419.862 185.902C415.515 188.435 408.45 188.435 404.079 185.902C401.874 184.627 400.76 182.951 400.76 181.276V179.048C400.76 180.719 401.855 182.38 404.079 183.67C408.45 186.202 415.519 186.202 419.862 183.67C422.019 182.38 423.1 180.738 423.105 179.086Z" fill="#ED9B20"/>
<path d="M419.813 174.997C424.189 177.534 424.212 181.661 419.865 184.179C415.517 186.697 408.453 186.711 404.081 184.179C399.71 181.647 399.686 177.515 404.029 174.997C408.372 172.479 415.441 172.464 419.813 174.997Z" fill="#FFE374"/>
<path d="M419.813 174.464C424.189 177.001 424.212 181.128 419.865 183.646C415.517 186.164 408.453 186.179 404.081 183.646C399.71 181.114 399.686 176.982 404.029 174.464C408.372 171.946 415.441 171.931 419.813 174.464Z" fill="#FFD830"/>
<path d="M418.125 175.449C421.558 177.439 421.577 180.685 418.163 182.661C414.749 184.636 409.197 184.65 405.76 182.661C402.323 180.671 402.308 177.424 405.722 175.449C409.136 173.473 414.688 173.454 418.125 175.449Z" fill="#FFCB00"/>
<path d="M405.724 176.706C409.138 174.716 414.69 174.716 418.127 176.706C419.573 177.548 420.412 178.61 420.645 179.7C420.967 178.191 420.128 176.61 418.127 175.449C414.69 173.454 409.119 173.454 405.724 175.449C403.747 176.601 402.927 178.167 403.244 179.666C403.472 178.572 404.297 177.539 405.724 176.706Z" fill="#ED9B20"/>
<path d="M423.105 176.311V178.572C423.105 180.219 422.019 181.871 419.862 183.127C415.515 185.664 408.45 185.664 404.079 183.127C401.874 181.851 400.76 180.176 400.76 178.505V176.249C400.76 177.924 401.855 179.581 404.079 180.871C408.45 183.408 415.519 183.408 419.862 180.871C422.019 179.609 423.1 177.958 423.105 176.311Z" fill="#ED9B20"/>
<path d="M419.813 172.221C424.189 174.759 424.212 178.886 419.865 181.404C415.517 183.922 408.453 183.936 404.081 181.404C399.71 178.871 399.686 174.74 404.029 172.221C408.372 169.703 415.441 169.684 419.813 172.221Z" fill="#FFE374"/>
<path d="M419.813 171.688C424.189 174.221 424.212 178.353 419.865 180.866C415.517 183.379 408.453 183.403 404.081 180.866C399.71 178.329 399.686 174.202 404.029 171.688C408.372 169.175 415.441 169.151 419.813 171.688Z" fill="#FFD830"/>
<path d="M418.125 172.674C421.558 174.664 421.577 177.91 418.163 179.885C414.749 181.861 409.197 181.875 405.76 179.885C402.323 177.896 402.308 174.649 405.722 172.674C409.136 170.698 414.688 170.679 418.125 172.674Z" fill="#FFCB00"/>
<path d="M405.724 173.931C409.138 171.936 414.69 171.936 418.127 173.931C419.573 174.768 420.412 175.835 420.645 176.925C420.967 175.411 420.128 173.831 418.127 172.674C414.69 170.679 409.119 170.679 405.724 172.674C403.747 173.826 402.927 175.387 403.244 176.891C403.472 175.806 404.297 174.764 405.724 173.931Z" fill="#ED9B20"/>
<g opacity="0.2">
<path opacity="0.5" d="M493.357 170.13C498.213 172.946 498.241 177.512 493.415 180.328C488.588 183.144 480.736 183.144 475.88 180.328C471.025 177.512 470.996 172.946 475.823 170.13C480.649 167.314 488.497 167.314 493.357 170.13Z" fill="black"/>
</g>
<path d="M495.006 172.17V174.455C495.006 176.129 493.906 177.797 491.721 179.075C487.317 181.64 480.161 181.64 475.733 179.075C473.5 177.782 472.371 176.085 472.371 174.393V172.107C472.371 173.8 473.481 175.482 475.733 176.789C480.161 179.359 487.322 179.359 491.721 176.789C493.906 175.516 495.001 173.843 495.006 172.17Z" fill="#ED9B20"/>
<path d="M491.668 168.032C496.101 170.597 496.12 174.783 491.721 177.329C487.322 179.875 480.161 179.899 475.733 177.329C471.305 174.759 471.281 170.578 475.68 168.032C480.08 165.486 487.226 165.462 491.668 168.032Z" fill="#FFE374"/>
<path d="M491.668 167.493C496.101 170.058 496.12 174.243 491.721 176.789C487.322 179.335 480.161 179.359 475.733 176.789C471.305 174.219 471.281 170.039 475.68 167.493C480.08 164.947 487.226 164.923 491.668 167.493Z" fill="#FFD830"/>
<path d="M489.963 168.486C493.44 170.507 493.46 173.79 490.002 175.791C486.544 177.792 480.92 177.812 477.438 175.791C473.956 173.771 473.942 170.487 477.4 168.481C480.858 166.476 486.481 166.471 489.963 168.486Z" fill="#FFCB00"/>
<path d="M477.399 169.764C480.857 167.743 486.481 167.743 489.963 169.764C491.404 170.612 492.278 171.692 492.513 172.792C492.84 171.263 491.99 169.663 489.963 168.486C486.481 166.47 480.838 166.47 477.399 168.486C475.397 169.653 474.566 171.239 474.888 172.763C475.118 171.664 475.954 170.603 477.399 169.764Z" fill="#ED9B20"/>
<path d="M495.006 169.359V171.644C495.006 173.318 493.906 174.986 491.721 176.264C487.317 178.829 480.161 178.829 475.733 176.264C473.5 174.971 472.371 173.274 472.371 171.582V169.296C472.371 170.989 473.481 172.671 475.733 173.978C480.161 176.543 487.322 176.543 491.721 173.978C493.906 172.7 495.001 171.032 495.006 169.359Z" fill="#ED9B20"/>
<path d="M491.668 165.221C496.101 167.787 496.12 171.972 491.721 174.518C487.322 177.064 480.161 177.083 475.733 174.518C471.305 171.953 471.281 167.767 475.68 165.221C480.08 162.676 487.226 162.651 491.668 165.221Z" fill="#FFE374"/>
<path d="M491.668 164.677C496.101 167.247 496.12 171.427 491.721 173.978C487.322 176.529 480.161 176.543 475.733 173.978C471.305 171.413 471.281 167.228 475.68 164.677C480.08 162.126 487.226 162.112 491.668 164.677Z" fill="#FFD830"/>
<path d="M489.963 165.679C493.44 167.695 493.46 170.983 490.002 172.984C486.544 174.985 480.92 175.005 477.438 172.984C473.956 170.964 473.942 167.68 477.4 165.679C480.858 163.678 486.481 163.659 489.963 165.679Z" fill="#FFCB00"/>
<path d="M477.399 166.948C480.857 164.932 486.481 164.932 489.963 166.948C491.404 167.801 492.278 168.876 492.513 169.981C492.84 168.452 491.99 166.851 489.963 165.675C486.481 163.659 480.838 163.659 477.399 165.675C475.397 166.842 474.566 168.428 474.888 169.947C475.118 168.852 475.954 167.791 477.399 166.948Z" fill="#ED9B20"/>
<path d="M495.006 166.547V168.833C495.006 170.501 493.906 172.175 491.721 173.447C487.317 176.018 480.161 176.018 475.733 173.447C473.5 172.155 472.371 170.458 472.371 168.766V166.48C472.371 168.177 473.481 169.855 475.733 171.162C480.161 173.732 487.322 173.732 491.721 171.162C493.906 169.889 495.001 168.221 495.006 166.547Z" fill="#ED9B20"/>
<path d="M491.668 162.406C496.101 164.976 496.12 169.156 491.721 171.707C487.322 174.258 480.161 174.272 475.733 171.707C471.305 169.142 471.281 164.957 475.68 162.406C480.08 159.855 487.226 159.841 491.668 162.406Z" fill="#FFE374"/>
<path d="M491.668 161.865C496.101 164.43 496.12 168.616 491.721 171.162C487.322 173.708 480.161 173.732 475.733 171.162C471.305 168.592 471.281 164.411 475.68 161.865C480.08 159.319 487.226 159.295 491.668 161.865Z" fill="#FFD830"/>
<path d="M489.963 162.864C493.44 164.879 493.46 168.168 490.002 170.169C486.544 172.17 480.92 172.184 477.438 170.169C473.956 168.153 473.942 164.865 477.4 162.864C480.858 160.863 486.481 160.858 489.963 162.864Z" fill="#FFCB00"/>
<path d="M477.399 164.136C480.857 162.116 486.481 162.116 489.963 164.136C491.404 164.985 492.278 166.065 492.513 167.169C492.84 165.636 491.99 164.035 489.963 162.863C486.481 160.843 480.838 160.843 477.399 162.863C475.397 164.03 474.566 165.617 474.888 167.136C475.118 166.036 475.954 164.98 477.399 164.136Z" fill="#ED9B20"/>
<path d="M495.006 163.751V166.036C495.006 167.71 493.906 169.378 491.721 170.656C487.317 173.221 480.161 173.221 475.733 170.656C473.5 169.363 472.371 167.666 472.371 165.974V163.688C472.371 165.381 473.481 167.064 475.733 168.37C480.161 170.94 487.322 170.94 491.721 168.37C493.906 167.073 495.001 165.405 495.006 163.751Z" fill="#ED9B20"/>
<path d="M491.668 159.594C496.101 162.159 496.12 166.345 491.721 168.891C487.322 171.437 480.161 171.461 475.733 168.891C471.305 166.321 471.281 162.14 475.68 159.594C480.08 157.048 487.226 157.024 491.668 159.594Z" fill="#FFE374"/>
<path d="M491.668 159.054C496.101 161.62 496.12 165.805 491.721 168.351C487.322 170.897 480.161 170.921 475.733 168.351C471.305 165.781 471.281 161.6 475.68 159.054C480.08 156.509 487.226 156.484 491.668 159.054Z" fill="#FFD830"/>
<path d="M489.963 160.048C493.44 162.068 493.46 165.352 490.002 167.353C486.544 169.354 480.92 169.373 477.438 167.353C473.956 165.332 473.942 162.049 477.4 160.043C480.858 158.037 486.481 158.032 489.963 160.048Z" fill="#FFCB00"/>
<path d="M477.399 161.34C480.857 159.319 486.481 159.319 489.963 161.34C491.404 162.188 492.278 163.268 492.513 164.368C492.84 162.839 491.99 161.238 489.963 160.062C486.481 158.046 480.838 158.046 477.399 160.062C475.397 161.229 474.566 162.815 474.888 164.334C475.118 163.225 475.954 162.164 477.399 161.34Z" fill="#ED9B20"/>
<path d="M495.006 160.92V163.206C495.006 164.879 493.906 166.547 491.721 167.825C487.317 170.39 480.161 170.39 475.733 167.825C473.5 166.533 472.371 164.836 472.371 163.138V160.858C472.371 162.55 473.481 164.233 475.733 165.54C480.161 168.105 487.322 168.105 491.721 165.54C493.906 164.262 495.001 162.594 495.006 160.92Z" fill="#ED9B20"/>
<path d="M491.668 156.778C496.101 159.348 496.12 163.529 491.721 166.08C487.322 168.63 480.161 168.645 475.733 166.08C471.305 163.514 471.281 159.329 475.68 156.778C480.08 154.228 487.226 154.213 491.668 156.778Z" fill="#FFE374"/>
<path d="M491.668 156.239C496.101 158.809 496.12 162.989 491.721 165.54C487.322 168.091 480.161 168.105 475.733 165.54C471.305 162.975 471.281 158.789 475.68 156.239C480.08 153.688 487.226 153.673 491.668 156.239Z" fill="#FFD830"/>
<path d="M489.963 157.237C493.44 159.252 493.46 162.541 490.002 164.542C486.544 166.543 480.92 166.557 477.438 164.542C473.956 162.526 473.942 159.238 477.4 157.237C480.858 155.235 486.481 155.216 489.963 157.237Z" fill="#FFCB00"/>
<path d="M477.399 158.51C480.857 156.494 486.481 156.494 489.963 158.51C491.404 159.363 492.278 160.438 492.513 161.543C492.84 160.014 491.99 158.413 489.963 157.237C486.481 155.216 480.838 155.216 477.399 157.237C475.397 158.404 474.566 159.99 474.888 161.509C475.118 160.414 475.954 159.353 477.399 158.51Z" fill="#ED9B20"/>
<g opacity="0.2">
<path opacity="0.5" d="M469.682 169.142C473.812 165.955 478.096 167.488 479.249 172.565C480.401 177.643 477.986 184.34 473.855 187.513C469.725 190.686 465.436 189.167 464.284 184.094C463.131 179.022 465.547 172.329 469.682 169.142Z" fill="black"/>
</g>
<path d="M475.175 167.155L477.052 168.447C478.426 169.412 479.19 171.234 479.012 173.751C478.652 178.848 474.627 184.793 470.026 187.026C467.707 188.154 465.704 188.125 464.292 187.17L462.414 185.878C463.807 186.842 465.829 186.842 468.148 185.738C472.749 183.501 476.793 177.541 477.129 172.459C477.307 169.947 476.548 168.09 475.175 167.155Z" fill="#ED9B20"/>
<path d="M469.887 167.608C474.493 165.376 477.936 167.695 477.571 172.792C477.206 177.888 473.191 183.834 468.586 186.071C463.98 188.308 460.537 185.984 460.902 180.887C461.267 175.791 465.282 169.836 469.887 167.608Z" fill="#FFE374"/>
<path d="M469.455 167.295C474.06 165.062 477.504 167.382 477.139 172.478C476.774 177.575 472.759 183.52 468.158 185.757C463.557 187.995 460.109 185.671 460.474 180.574C460.839 175.477 464.835 169.537 469.455 167.295Z" fill="#FFD830"/>
<path d="M469.302 169.277C472.923 167.517 475.627 169.345 475.344 173.347C475.061 177.349 471.905 182.026 468.284 183.781C464.663 185.536 461.964 183.713 462.242 179.707C462.521 175.7 465.686 171.032 469.302 169.277Z" fill="#FFCB00"/>
<path d="M463.295 180.425C463.573 176.418 466.738 171.745 470.354 169.99C471.882 169.253 473.236 169.146 474.288 169.576C473.207 168.447 471.406 168.25 469.303 169.277C465.686 171.032 462.526 175.704 462.243 179.706C462.08 182.025 462.92 183.607 464.351 184.195C463.583 183.385 463.175 182.098 463.295 180.425Z" fill="#ED9B20"/>
<path d="M426.607 28.0994H423.407V38H426.482C429.498 38 431.2 36.1243 431.2 33.0304C431.2 29.9558 429.498 28.0994 426.607 28.0994ZM424.635 36.9075V29.192H426.53C428.831 29.192 430.001 30.6423 430.001 33.0304C430.001 35.4378 428.831 36.9075 426.404 36.9075H424.635ZM432.773 32.5083V33.5912H437.114V32.5083H432.773ZM442.262 28.0994H439.061V38H442.136C445.152 38 446.854 36.1243 446.854 33.0304C446.854 29.9558 445.152 28.0994 442.262 28.0994ZM440.289 36.9075V29.192H442.184C444.485 29.192 445.655 30.6423 445.655 33.0304C445.655 35.4378 444.485 36.9075 442.059 36.9075H440.289ZM455.89 38L452.265 28.0994H450.969L447.343 38H448.639L449.625 35.2155H453.608L454.595 38H455.89ZM451.578 29.6948H451.655L453.227 34.1326H450.007L451.578 29.6948ZM458.946 33.9392V38H460.184V33.9392L463.761 28.0994H462.349L459.623 32.7017H459.507L456.78 28.0994H455.369L458.946 33.9392Z" fill="#52596C"/>
<path d="M476.557 38V36.511H472.163V36.4385L473.918 34.6934C475.866 32.8564 476.403 31.9523 476.408 30.8308C476.403 29.1727 475.04 27.9641 473.024 27.9641C471.037 27.9641 469.63 29.1823 469.64 31.058H471.332C471.327 30.0525 471.984 29.4144 472.999 29.4144C473.971 29.4144 474.701 29.9945 474.706 30.9227C474.701 31.7493 474.179 32.3391 473.178 33.3398L469.683 36.7093L469.688 38H476.557ZM481.769 38.1885C484.152 38.1885 485.568 36.3128 485.573 33.0594C485.573 29.8301 484.137 27.9641 481.769 27.9641C479.395 27.9641 477.964 29.8253 477.964 33.0594C477.959 36.3032 479.38 38.1837 481.769 38.1885ZM481.769 36.6802C480.526 36.6802 479.758 35.4378 479.758 33.0594C479.762 30.6954 480.531 29.4482 481.769 29.4482C483.001 29.4482 483.77 30.6954 483.775 33.0594C483.775 35.4378 483.006 36.6802 481.769 36.6802ZM488.148 31.8992C488.718 31.8992 489.202 31.4254 489.207 30.8405C489.202 30.2604 488.718 29.7914 488.148 29.7914C487.563 29.7914 487.079 30.2604 487.089 30.8405C487.079 31.4254 487.563 31.8992 488.148 31.8992ZM488.148 36.8059C488.718 36.8059 489.202 36.3322 489.207 35.7472C489.202 35.1671 488.718 34.6982 488.148 34.6982C487.563 34.6982 487.079 35.1671 487.089 35.7472C487.079 36.3322 487.563 36.8059 488.148 36.8059ZM493.185 28.0994L490.73 29.6851V31.3142L493.045 29.8349H493.103V38H494.892V28.0994H493.185ZM499.611 28.0994L497.155 29.6851V31.3142L499.471 29.8349H499.529V38H501.318V28.0994H499.611ZM504.814 31.8992C505.384 31.8992 505.868 31.4254 505.873 30.8405C505.868 30.2604 505.384 29.7914 504.814 29.7914C504.229 29.7914 503.745 30.2604 503.755 30.8405C503.745 31.4254 504.229 31.8992 504.814 31.8992ZM504.814 36.8059C505.384 36.8059 505.868 36.3322 505.873 35.7472C505.868 35.1671 505.384 34.6982 504.814 34.6982C504.229 34.6982 503.745 35.1671 503.755 35.7472C503.745 36.3322 504.229 36.8059 504.814 36.8059ZM514.415 38V36.511H510.021V36.4385L511.775 34.6934C513.724 32.8564 514.26 31.9523 514.265 30.8308C514.26 29.1727 512.897 27.9641 510.881 27.9641C508.894 27.9641 507.487 29.1823 507.497 31.058H509.189C509.184 30.0525 509.842 29.4144 510.857 29.4144C511.829 29.4144 512.559 29.9945 512.563 30.9227C512.559 31.7493 512.036 32.3391 511.036 33.3398L507.541 36.7093L507.545 38H514.415ZM519.573 38.1354C521.714 38.1354 523.276 36.922 523.266 35.2541C523.276 34.0069 522.483 33.1126 521.081 32.924V32.8467C522.169 32.6195 522.904 31.8218 522.894 30.7051C522.904 29.192 521.603 27.9641 519.602 27.9641C517.658 27.9641 516.15 29.105 516.111 30.7631H517.818C517.852 29.9365 518.654 29.4144 519.592 29.4144C520.549 29.4144 521.178 29.9751 521.178 30.8066C521.178 31.672 520.443 32.2569 519.389 32.2569H518.509V33.6298H519.389C520.68 33.6298 521.448 34.268 521.444 35.1623C521.448 36.0373 520.661 36.6367 519.568 36.6367C518.538 36.6367 517.745 36.1146 517.702 35.3122H515.904C515.952 36.9848 517.46 38.1354 519.573 38.1354Z" fill="#EC5B37"/>
<path d="M338.56 119.76C338.209 119.76 337.868 119.648 337.588 119.441C337.308 119.234 337.104 118.943 337.007 118.612C336.909 118.28 336.925 117.927 337.05 117.605C337.175 117.283 337.403 117.009 337.7 116.826C340.499 115.101 340.973 110.959 340.978 110.918C340.996 110.708 341.057 110.504 341.156 110.318C341.256 110.131 341.392 109.966 341.557 109.832C341.721 109.697 341.912 109.597 342.116 109.535C342.321 109.474 342.536 109.453 342.749 109.474C342.962 109.495 343.169 109.558 343.357 109.658C343.545 109.759 343.711 109.895 343.845 110.059C343.98 110.223 344.079 110.411 344.139 110.614C344.198 110.816 344.216 111.028 344.192 111.237C344.169 111.469 343.57 116.957 339.416 119.517C339.16 119.676 338.863 119.76 338.56 119.76Z" fill="#E9EBF0"/>
<path d="M343.833 111.236L341.202 110.749V110.758C341.23 110.601 341.833 106.871 337.986 103.796C337.846 103.688 337.73 103.553 337.644 103.401C337.557 103.248 337.503 103.08 337.483 102.906C337.463 102.733 337.479 102.557 337.529 102.389C337.579 102.222 337.662 102.066 337.774 101.93C337.886 101.795 338.025 101.682 338.181 101.6C338.338 101.517 338.51 101.466 338.686 101.45C338.863 101.433 339.042 101.452 339.211 101.504C339.381 101.556 339.538 101.64 339.674 101.753C344.795 105.847 343.874 111.017 343.833 111.236Z" fill="#FCA7A7"/>
<path d="M338.044 105.006C337.923 105.005 337.805 104.961 337.713 104.882C337.621 104.804 337.561 104.695 337.544 104.576C337.527 104.458 337.554 104.337 337.619 104.236C337.685 104.135 337.785 104.061 337.902 104.026C337.91 104.026 338.614 103.822 339.243 103.572C339.305 103.548 339.371 103.535 339.438 103.535C339.505 103.536 339.571 103.549 339.632 103.575C339.693 103.6 339.749 103.637 339.796 103.684C339.843 103.73 339.88 103.786 339.905 103.846C339.93 103.907 339.943 103.972 339.943 104.038C339.942 104.103 339.929 104.168 339.903 104.229C339.877 104.289 339.839 104.344 339.792 104.39C339.744 104.436 339.688 104.473 339.626 104.497C338.946 104.77 338.217 104.98 338.187 104.989C338.14 105 338.092 105.006 338.044 105.006Z" fill="#FCA7A7"/>
<g opacity="0.15">
<path opacity="0.5" d="M335.39 171C340.615 171 344.851 168.594 344.851 165.627C344.851 162.66 340.615 160.254 335.39 160.254C330.165 160.254 325.93 162.66 325.93 165.627C325.93 168.594 330.165 171 335.39 171Z" fill="black"/>
</g>
<path d="M324.18 151.369C324.281 151.509 324.371 151.656 324.451 151.808L324.509 151.922C324.528 151.96 324.541 151.997 324.558 152.035C324.591 152.109 324.62 152.186 324.65 152.262C324.681 152.338 324.705 152.416 324.732 152.493C324.758 152.571 324.776 152.645 324.796 152.721C324.834 152.874 324.872 153.029 324.897 153.183C324.989 153.784 325.002 154.394 324.936 154.998C324.88 155.589 324.772 156.174 324.613 156.746C324.533 157.034 324.437 157.317 324.326 157.595C324.272 157.735 324.21 157.874 324.142 158.012C324.074 158.15 324.004 158.285 323.921 158.435C323.832 158.595 323.698 158.727 323.537 158.817C323.375 158.906 323.191 158.95 323.005 158.943C322.82 158.935 322.64 158.878 322.486 158.775C322.332 158.673 322.21 158.531 322.133 158.365L322.081 158.249C322.024 158.125 321.976 157.984 321.929 157.853C321.883 157.721 321.837 157.586 321.802 157.452C321.721 157.187 321.652 156.924 321.586 156.663C321.455 156.142 321.349 155.631 321.252 155.133C321.2 154.885 321.16 154.636 321.114 154.395C321.069 154.155 321.042 153.916 321.022 153.678C321.012 153.56 321.003 153.446 321 153.328C321 153.27 321 153.209 321 153.152C321 153.094 321 153.038 321 152.981C321 152.868 321.015 152.743 321.021 152.634C321.031 152.515 321.05 152.396 321.08 152.28L321.173 151.927C321.255 151.624 321.423 151.351 321.657 151.138C321.891 150.924 322.181 150.781 322.495 150.723C322.808 150.665 323.131 150.695 323.428 150.809C323.725 150.924 323.982 151.119 324.171 151.371L324.18 151.369Z" fill="#242884"/>
<path d="M330.421 149.493C330.536 149.626 330.642 149.768 330.736 149.917L330.806 150.028C330.827 150.064 330.846 150.101 330.865 150.138C330.906 150.211 330.942 150.286 330.978 150.362C331.014 150.437 331.047 150.513 331.081 150.59C331.115 150.666 331.139 150.74 331.166 150.816C331.217 150.968 331.27 151.123 331.307 151.276C331.45 151.876 331.515 152.492 331.498 153.109C331.49 153.71 331.428 154.309 331.313 154.899C331.257 155.196 331.183 155.489 331.093 155.778C331.05 155.923 331.001 156.07 330.944 156.214C330.888 156.358 330.827 156.499 330.755 156.656C330.678 156.823 330.556 156.965 330.401 157.067C330.246 157.168 330.066 157.226 329.88 157.232C329.694 157.238 329.51 157.193 329.349 157.101C329.187 157.01 329.055 156.876 328.967 156.715L328.905 156.602C328.84 156.482 328.781 156.344 328.725 156.214C328.67 156.084 328.618 155.951 328.569 155.82L328.425 155.429C328.382 155.298 328.332 155.169 328.293 155.04C328.123 154.524 327.978 154.017 327.84 153.523L327.739 153.16L327.646 152.797C327.615 152.679 327.593 152.555 327.565 152.439C327.538 152.323 327.517 152.204 327.499 152.085C327.48 151.966 327.459 151.854 327.446 151.736C327.44 151.678 327.434 151.619 327.431 151.56C327.427 151.501 327.417 151.448 327.414 151.391C327.411 151.334 327.407 151.276 327.407 151.217C327.407 151.187 327.407 151.158 327.407 151.126V151.043C327.405 150.923 327.413 150.804 327.432 150.687L327.502 150.302C327.557 149.994 327.699 149.708 327.912 149.476C328.125 149.245 328.401 149.077 328.706 148.993C329.012 148.908 329.336 148.911 329.64 149C329.945 149.088 330.218 149.26 330.427 149.495L330.421 149.493Z" fill="#242884"/>
<path d="M337.903 154.333C336.187 154.333 333.934 153.697 331.222 152.859C330.546 152.652 329.907 152.455 329.406 152.315C329.201 152.26 329.009 152.165 328.842 152.038C328.674 151.91 328.534 151.751 328.429 151.569C328.324 151.388 328.256 151.188 328.23 150.981C328.203 150.774 328.218 150.564 328.274 150.363C328.33 150.161 328.426 149.973 328.556 149.808C328.686 149.643 328.848 149.505 329.032 149.402C329.216 149.299 329.419 149.232 329.63 149.206C329.84 149.18 330.054 149.195 330.259 149.25C330.817 149.4 331.483 149.606 332.188 149.823C333.431 150.207 334.839 150.641 336.082 150.913C337.117 151.135 337.711 151.168 338.029 151.156C338.105 144.01 336.712 139.005 336.697 138.954C336.588 138.55 336.645 138.121 336.855 137.758C337.066 137.395 337.413 137.128 337.822 137.015C338.231 136.902 338.669 136.953 339.041 137.155C339.412 137.358 339.688 137.696 339.808 138.097C339.873 138.325 341.399 143.769 341.252 151.637C341.236 152.504 340.852 153.247 340.171 153.73C339.575 154.154 338.814 154.333 337.903 154.333Z" fill="#4941E5"/>
<path d="M330.559 136.415L338.209 132.122C338.39 132.03 338.592 131.986 338.796 131.994C338.999 132.001 339.197 132.06 339.371 132.164C339.545 132.268 339.689 132.415 339.788 132.59C339.888 132.764 339.941 132.961 339.941 133.161C339.941 134.432 339.941 136.914 339.941 137.711C339.934 139.121 339.722 140.298 338.499 141.115C337.513 141.773 333.168 144.52 331.507 144.474C329.846 144.429 328.854 143.234 328.854 142.023V139.014C328.853 138.465 329.014 137.928 329.317 137.467C329.619 137.006 330.051 136.641 330.559 136.415Z" fill="#4941E5"/>
<path d="M328.852 138.986V124.496C328.852 123.325 329.036 120.683 331.528 119.267L336.789 116.28C338.307 115.42 339.947 115.906 339.947 118.416V133.336C339.947 134.4 340.011 135.36 339.133 136.103C337.612 137.391 335.328 139.08 332.689 139.691C329.432 140.444 328.852 138.986 328.852 138.986Z" fill="white"/>
<path d="M330.513 156.676C328.779 156.676 326.329 155.853 322.751 154.119C322.366 153.932 322.073 153.603 321.935 153.204C321.798 152.805 321.827 152.369 322.016 151.991C322.206 151.613 322.54 151.324 322.946 151.188C323.351 151.053 323.795 151.082 324.18 151.268C328.299 153.265 329.949 153.51 330.527 153.499C330.342 146.956 328.939 142.5 328.926 142.455C328.797 142.053 328.835 141.617 329.033 141.244C329.231 140.87 329.571 140.589 329.98 140.462C330.389 140.335 330.832 140.373 331.212 140.568C331.592 140.762 331.878 141.097 332.006 141.499C332.071 141.702 333.592 146.521 333.76 153.612C333.796 155.116 332.973 155.86 332.478 156.17C331.946 156.502 331.304 156.676 330.513 156.676Z" fill="#4941E5"/>
<path d="M334.018 120.968C333.663 120.968 333.323 120.83 333.072 120.583C332.821 120.336 332.68 120.001 332.68 119.652V116.364C332.68 116.014 332.821 115.68 333.072 115.433C333.323 115.186 333.663 115.047 334.018 115.047C334.373 115.047 334.713 115.186 334.964 115.433C335.215 115.68 335.356 116.014 335.356 116.364V119.652C335.356 120.001 335.215 120.336 334.964 120.583C334.713 120.83 334.373 120.968 334.018 120.968Z" fill="#E88289"/>
<path d="M334.065 111.174H336.339C336.828 111.174 337.298 111.365 337.644 111.706C337.99 112.046 338.185 112.508 338.185 112.99V116.845C338.185 118.899 335.862 120.128 334.119 118.997L332.102 117.662C331.12 116.888 330.887 116.326 330.887 115.259C330.882 111.768 332.287 111.174 334.065 111.174Z" fill="#FCA7A7"/>
<path d="M337.679 116.805L335.393 117.523C335.393 117.523 335.717 118.778 336.829 118.436C337.82 118.131 337.679 116.805 337.679 116.805Z" fill="#FCA7A7"/>
<path d="M332.482 109.941C334.936 108.459 339.036 109.305 339.004 112.228C338.973 114.731 335.536 113.971 333.951 114.066C332.936 114.127 332.461 114.884 332.244 115.685C332.129 116.111 331.368 116.37 331.02 116.311C330.744 116.263 330.494 114.683 330.513 113.805C330.528 113.238 330.144 111.354 332.482 109.941Z" fill="#191890"/>
<path d="M331.737 114.639C332.14 114.295 332.698 114.393 332.982 114.856C333.266 115.32 333.172 115.977 332.769 116.321C332.365 116.665 331.809 116.569 331.524 116.104C331.238 115.639 331.334 114.984 331.737 114.639Z" fill="#FCA7A7"/>
<path d="M330.403 123.812C330.186 123.811 329.97 123.768 329.769 123.684C324.818 121.603 323.143 115.726 323.074 115.476C323.018 115.275 323.004 115.065 323.031 114.858C323.058 114.651 323.126 114.451 323.231 114.27C323.337 114.089 323.477 113.93 323.645 113.803C323.813 113.675 324.005 113.581 324.209 113.526C324.414 113.472 324.628 113.457 324.838 113.484C325.049 113.51 325.252 113.577 325.436 113.681C325.62 113.784 325.781 113.923 325.911 114.088C326.041 114.253 326.136 114.442 326.192 114.643C326.204 114.686 327.539 119.29 331.039 120.761C331.381 120.905 331.663 121.161 331.836 121.485C332.009 121.809 332.063 122.183 331.988 122.542C331.913 122.901 331.715 123.223 331.426 123.455C331.137 123.686 330.776 123.812 330.403 123.812Z" fill="white"/>
<path d="M324.695 116.272C324.4 116.271 324.113 116.174 323.879 115.996C323.645 115.818 323.478 115.569 323.403 115.288C323.341 115.053 321.937 109.467 327.364 104.458C327.492 104.334 327.643 104.238 327.808 104.173C327.974 104.108 328.151 104.076 328.33 104.08C328.508 104.083 328.684 104.122 328.847 104.193C329.01 104.264 329.157 104.367 329.279 104.495C329.401 104.623 329.496 104.774 329.558 104.938C329.62 105.103 329.648 105.278 329.64 105.453C329.632 105.628 329.589 105.801 329.513 105.959C329.436 106.118 329.329 106.26 329.196 106.377C324.916 110.329 325.982 114.58 325.993 114.623C326.045 114.818 326.05 115.021 326.01 115.218C325.969 115.415 325.883 115.6 325.758 115.76C325.634 115.919 325.473 116.048 325.29 116.137C325.107 116.225 324.905 116.272 324.701 116.272H324.695Z" fill="#FCA7A7"/>
<path d="M329.174 107.609C329.126 107.609 329.078 107.602 329.032 107.589C329.001 107.581 328.272 107.371 327.592 107.099C327.53 107.074 327.474 107.038 327.426 106.991C327.379 106.945 327.341 106.891 327.315 106.83C327.289 106.77 327.276 106.705 327.275 106.639C327.275 106.574 327.288 106.509 327.313 106.448C327.338 106.387 327.375 106.332 327.422 106.285C327.469 106.238 327.525 106.201 327.586 106.176C327.647 106.15 327.713 106.137 327.78 106.137C327.847 106.136 327.913 106.149 327.975 106.174C328.606 106.427 329.308 106.628 329.316 106.628C329.433 106.661 329.534 106.735 329.6 106.836C329.666 106.937 329.693 107.059 329.676 107.178C329.659 107.297 329.599 107.405 329.506 107.484C329.414 107.563 329.296 107.606 329.174 107.606V107.609Z" fill="#FCA7A7"/>
<path d="M332.025 86.8674C334.157 85.6563 336.086 85.5483 337.479 86.3481L340.348 87.9823L339.092 88.1303V88.1258C339.497 88.9583 339.721 90.0005 339.721 91.2316C339.721 96.057 336.277 101.925 332.029 104.338C330.794 105.039 329.629 105.368 328.595 105.369L329.722 106.65L326.651 104.904C325.221 104.13 324.332 102.421 324.332 99.9719C324.332 95.1464 327.776 89.2788 332.025 86.8674Z" fill="#ED9B20"/>
<path d="M340.561 100.446C343.565 95.3274 343.565 89.7952 340.561 88.0891C337.557 86.3831 332.686 89.1493 329.682 94.2676C326.678 99.3859 326.677 104.918 329.682 106.624C332.686 108.33 337.556 105.564 340.561 100.446Z" fill="#FFD830"/>
<path d="M335.124 90.528C338.447 88.6405 341.143 90.1703 341.143 93.9462C341.143 97.7221 338.449 102.312 335.124 104.2C331.8 106.087 329.105 104.558 329.105 100.783C329.105 97.0076 331.801 92.4164 335.124 90.528Z" fill="#FFCB00"/>
<path d="M334.723 103.982C338.046 102.093 340.742 97.5031 340.742 93.7227C340.742 91.8951 340.108 90.5987 339.08 89.9568C340.345 90.4915 341.145 91.8797 341.145 93.9361C341.145 97.711 338.45 102.302 335.126 104.19C333.406 105.167 331.856 105.224 330.76 104.532C331.818 104.99 333.203 104.843 334.723 103.982Z" fill="#ED9B20"/>
</g>
<path d="M46.8508 109.265V114.624H48.0773V104.392H46.8508V108.249H43.9503C43.7238 106.481 42.2652 105.287 40.3867 105.287C38.3094 105.287 36.7735 106.691 36.7845 108.702C36.7735 110.713 38.3094 112.138 40.3867 112.138C42.2265 112.138 43.663 110.972 43.9337 109.265H46.8508ZM37.9558 108.702C37.9558 107.331 38.9945 106.37 40.3867 106.359C41.7569 106.37 42.7956 107.331 42.7956 108.702C42.7956 110.083 41.7569 111.066 40.3867 111.077C38.9945 111.066 37.9558 110.083 37.9558 108.702ZM40.3867 113.586H39.1602V117.961H48.4641V116.945H40.3867V113.586ZM61.0878 118.271H62.2591V104.381H61.0878V118.271ZM55.9497 109.387V110.392H58.2922V117.541H59.4524V104.713H58.2922V109.387H55.9497ZM54.469 107.033H57.0104V106.017H50.6016V107.033H53.2867V108.337C53.2867 110.867 52.1596 113.409 50.2259 114.569L50.9994 115.486C52.3917 114.613 53.3972 112.983 53.8944 111.072C54.3861 112.84 55.3585 114.337 56.7232 115.155L57.4635 114.249C55.5519 113.144 54.469 110.746 54.469 108.337V107.033ZM67.0485 108.845V105.983H75.3137V104.989H65.822V109.862H75.4353V108.845H67.0485ZM64.2198 112.392H76.8938V111.398H64.2198V112.392ZM65.8551 113.895V117.95H75.5458V116.923H67.0706V113.895H65.8551ZM92.9254 107.785V104.381H91.6989V112.26H92.9254V108.812H95.0138V107.785H92.9254ZM90.174 109.961C88.3177 110.331 86.7265 110.431 83.942 110.425V106.326H88.8702V105.32H82.7265V111.442H83.7983C86.7155 111.442 88.3729 111.365 90.3287 110.967L90.174 109.961ZM92.9254 118.072V112.989H84.1519V118.072H92.9254ZM91.7099 113.983V117.077H85.3564V113.983H91.7099ZM102.82 112.47H107.052V105.365H105.836V107.873H98.6209V105.365H97.3944V112.47H101.604V115.464H95.8917V116.492H108.61V115.464H102.82V112.47ZM105.836 108.878V111.464H98.6209V108.878H105.836ZM114.504 106.094V104.392H113.289V106.094H109.753V107.099H118.029V106.094H114.504ZM120.582 104.392H119.355V114.801H120.582V110.006H122.67V108.967H120.582V104.392ZM117.234 110.459C117.223 108.878 115.874 107.862 113.897 107.862C111.886 107.862 110.537 108.878 110.549 110.459C110.537 112.017 111.886 113.022 113.897 113.022C115.874 113.022 117.223 112.017 117.234 110.459ZM111.72 110.459C111.709 109.464 112.582 108.823 113.897 108.823C115.189 108.823 116.062 109.464 116.073 110.459C116.062 111.431 115.189 112.061 113.897 112.05C112.582 112.061 111.709 111.431 111.72 110.459ZM111.886 113.961V117.961H121.223V116.945H113.101V113.961H111.886ZM138.238 110.238C138.613 108.503 138.613 107.232 138.613 106.149V105.122H129.177V106.138H137.398V106.149C137.398 107.238 137.398 108.492 137.006 110.238H127.564V111.254H140.282V110.238H138.238ZM138.669 118.083V113.166H129.133V118.083H138.669ZM137.453 114.138V117.077H130.337V114.138H137.453ZM152.021 107.972H150.176V104.657H149.016V112.558H150.176V108.978H152.021V112.657H153.182V104.392H152.021V107.972ZM147.9 108.536C147.9 106.602 146.552 105.254 144.718 105.254C142.861 105.254 141.535 106.602 141.546 108.536C141.535 110.47 142.861 111.785 144.718 111.785C146.552 111.785 147.9 110.47 147.9 108.536ZM142.651 108.536C142.64 107.243 143.524 106.315 144.718 106.315C145.9 106.315 146.773 107.243 146.784 108.536C146.773 109.818 145.9 110.757 144.718 110.746C143.524 110.757 142.64 109.818 142.651 108.536ZM151.977 114.425V118.271H153.182V113.431H143.823V114.425H151.977ZM161.54 109.453C164.634 109.442 166.446 108.591 166.446 107.022C166.446 105.475 164.634 104.624 161.54 104.624C158.446 104.624 156.623 105.475 156.623 107.022C156.623 108.591 158.446 109.442 161.54 109.453ZM161.54 105.552C163.85 105.552 165.198 106.105 165.198 107.022C165.198 107.983 163.85 108.514 161.54 108.514C159.242 108.514 157.894 107.983 157.905 107.022C157.894 106.105 159.242 105.552 161.54 105.552ZM155.22 111.387H167.883V110.392H155.22V111.387ZM166.247 115.696V112.591H156.756V113.53H165.043V114.79H156.789V118.116H166.667V117.144H157.993V115.696H166.247ZM180.003 109.099H184.224V108.105H175.981V105.939H184.08V104.923H174.754V109.099H178.787V110.436H173.064V111.431H185.727V110.436H180.003V109.099ZM184.091 115.718V112.624H174.599V113.564H182.887V114.812H174.633V118.105H184.511V117.133H175.837V115.718H184.091ZM197.179 107.552H194.383V108.58H197.179V111.343H194.284V112.381H197.179V118.293H198.394V104.381H197.179V107.552ZM188.638 110.58H193.488V105.641H187.378V106.657H192.284V109.586H187.422V115.044H188.45C190.671 115.044 192.45 114.967 194.671 114.624L194.56 113.597C192.455 113.917 190.731 114 188.638 114.006V110.58ZM207.575 111.055V106.691H215.818V105.674H206.36V112.072H215.951V111.055H207.575ZM204.735 116.37H217.454V115.343H204.735V116.37ZM228.807 112.017H230.033V104.392H228.807V112.017ZM227.072 110.26C224.829 110.63 222.972 110.691 220.486 110.702V108.812H225.613V105.066H219.26V106.072H224.398V107.84H219.293V111.729H220.42C222.983 111.718 224.884 111.652 227.227 111.276L227.072 110.26ZM222.232 114.37V112.713H220.994V118.083H230.033V112.713H228.818V114.37H222.232ZM222.232 117.077V115.354H228.818V117.077H222.232ZM242.624 118.271H243.839V104.381H242.624V118.271ZM234.502 105.751H233.298V114.691H234.425C236.646 114.691 238.845 114.514 241.309 114.006L241.143 112.956C238.806 113.448 236.624 113.613 234.502 113.619V105.751ZM256.971 109.873V104.381H255.745V118.293H256.971V110.901H259.292V109.873H256.971ZM248.054 106.746H253.314V105.74H246.828V114.812H247.921C250.562 114.812 252.386 114.735 254.562 114.348L254.408 113.287C252.347 113.669 250.568 113.768 248.054 113.773V106.746ZM261.518 117.088C262.07 117.088 262.523 116.635 262.523 116.083C262.523 115.53 262.07 115.077 261.518 115.077C260.965 115.077 260.501 115.53 260.512 116.083C260.501 116.635 260.965 117.088 261.518 117.088Z" fill="#101219"/>
<path d="M45.9006 162.87V157.959H44.8273V170.112H45.9006V163.789H47.9309V162.87H45.9006ZM40.6022 160.105H43.3384V159.206H36.7251V160.105H39.5483V161.691C39.5387 163.76 38.0401 166.07 36.2901 166.921L36.9378 167.772C38.3011 167.076 39.5193 165.505 40.0849 163.726C40.6312 165.369 41.7866 166.8 43.145 167.472L43.7638 166.622C42.0041 165.78 40.5925 163.634 40.6022 161.691V160.105ZM57.9712 170.112H59.0057V157.959H57.9712V170.112ZM53.4173 162.319V163.228H55.4767V169.493H56.4919V158.22H55.4767V162.319H53.4173ZM52.1991 159.099H51.1645V161.459C51.1645 163.537 50.1397 165.693 48.4573 166.68L49.1438 167.482C50.3572 166.742 51.2564 165.35 51.7011 163.74C52.1314 165.215 52.9677 166.515 54.1424 167.221L54.7612 166.39C53.1466 165.432 52.1991 163.344 52.1991 161.41V159.099ZM69.6357 170.112H70.7089V157.959H69.6357V170.112ZM64.0956 158.075V159.931H60.963V160.811H68.3208V159.931H65.1785V158.075H64.0956ZM64.6661 161.807C62.9064 161.807 61.6398 162.957 61.6495 164.601C61.6398 166.244 62.9064 167.385 64.6661 167.385C66.4161 167.385 67.6826 166.244 67.6826 164.601C67.6826 162.957 66.4161 161.807 64.6661 161.807ZM64.6661 166.477C63.5058 166.486 62.6647 165.703 62.6647 164.601C62.6647 163.499 63.5058 162.706 64.6661 162.706C65.8166 162.706 66.6578 163.499 66.6578 164.601C66.6578 165.703 65.8166 166.486 64.6661 166.477ZM78.8541 165.036H82.5571V158.819H81.4936V161.014H75.18V158.819H74.1068V165.036H77.7905V167.656H72.7919V168.555H83.9204V167.656H78.8541V165.036ZM81.4936 161.894V164.156H75.18V161.894H81.4936ZM93.8639 170.112H94.9371V157.959H93.8639V170.112ZM85.607 159.283V160.153H90.2479C90.011 163.054 88.3335 165.394 85.0462 166.95L85.6263 167.83C89.7064 165.867 91.3308 162.773 91.3404 159.283H85.607Z" fill="#949AAC"/>
<path d="M104.727 159L104.5 159.238L109.045 164L104.5 168.762L104.727 169L109.5 164L104.727 159Z" fill="#949AAC" stroke="#949AAC" stroke-width="0.4"/>
<path d="M53.2541 45.1492C53.8011 42.1575 53.8011 39.9779 53.8094 37.989V36.0746H38.8674V38.453H50.8343C50.826 40.3011 50.7762 42.3895 50.2376 45.1492H36.6381V47.5608H44.7597V56.1796H47.7762V47.5608H56.0967V45.1492H53.2541ZM73.0019 42.9696H71.0792V35.1464H68.2532V55.1768H71.0792V45.4061H73.0019V56.163H75.861V34.8149H73.0019V42.9696ZM66.4632 50.7928V37.0359H57.977V50.7928H66.4632ZM63.6704 39.3895V48.4475H60.7781V39.3895H63.6704ZM94.9457 42.9945V34.8149H91.954V56.1133H94.9457V45.4641H97.9623V42.9945H94.9457ZM79.0921 37.0028V39.4475H86.2026C85.6391 44.2044 82.9291 47.6022 77.8905 50.1381L79.5728 52.4254C86.7413 48.9033 89.2358 43.384 89.2523 37.0028H79.0921ZM115.584 47.2956H121.741V36.1823H118.758V39.5055H109.459V36.1823H106.459V47.2956H112.625V51.2486H104.396V53.6768H123.904V51.2486H115.584V47.2956ZM118.758 41.8757V44.9088H109.459V41.8757H118.758ZM142.061 34.8149H139.061V47.4862H142.061V42.2155H144.928V39.779H142.061V34.8149ZM131.561 42.9116C132.506 44.7348 134.138 46.1685 136.508 46.8812L137.925 44.5442C134.528 43.5331 133.019 41.1298 133.003 38.6436H137.262V36.2569H125.627V38.6436H129.986C129.953 41.3536 128.345 44.1133 124.815 45.232L126.331 47.5939C128.884 46.7569 130.616 45.0497 131.561 42.9116ZM135.058 47.9006C130.55 47.8923 127.749 49.4088 127.757 52.011C127.749 54.6133 130.55 56.163 135.058 56.1547C139.508 56.163 142.26 54.6133 142.26 52.011C142.26 49.4088 139.508 47.8923 135.058 47.9006ZM135.058 53.826C132.265 53.8343 130.74 53.2293 130.749 52.011C130.74 50.8094 132.265 50.221 135.058 50.2293C137.834 50.221 139.309 50.8094 139.309 52.011C139.309 53.2293 137.834 53.8343 135.058 53.826ZM48.0829 69.0276V79.8011H47.9337L40.5331 69.0276H37.4337V86H40.9558V75.2182H41.0801L48.5387 86H51.5884V69.0276H48.0829ZM57.9714 86V78.9641H64.8913V76.0552H57.9714V71.9448H65.6372V69.0276H54.4493V86H57.9714ZM72.4908 71.9448V86H75.9797V71.9448H81.1758V69.0276H67.2781V71.9448H72.4908ZM105.03 66.8149H102.03V77.6878H105.03V73.395H107.897V70.9751H105.03V66.8149ZM96.0792 67.7845V70.3122H91.7036V67.7845H88.7367V77.0912H99.0627V67.7845H96.0792ZM91.7036 74.7459V72.558H96.0792V74.7459H91.7036ZM105.03 84.2762V78.4751H90.8748V80.7873H102.046V82.1298H90.908V88.0138H105.643V85.6602H93.8583V84.2762H105.03ZM124.338 74.547V80.1989H127.172V66.8149H124.338V72.1105H122.623V67.221H119.83V79.5028H122.623V74.547H124.338ZM115.462 69.0193V67.0138H112.495V69.0193H108.733V71.3398H119.208V69.0193H115.462ZM118.661 75.7901C118.653 73.5442 116.714 72.0608 113.995 72.0608C111.327 72.0608 109.379 73.5442 109.379 75.7901C109.379 77.9945 111.327 79.4779 113.995 79.4779C116.714 79.4779 118.653 77.9945 118.661 75.7901ZM112.048 75.7901C112.048 74.7873 112.835 74.1989 113.995 74.2155C115.164 74.1989 115.951 74.7873 115.96 75.7901C115.951 76.768 115.164 77.3646 113.995 77.3564C112.835 77.3646 112.048 76.768 112.048 75.7901ZM119.879 80.4061C115.288 80.4061 112.487 81.8149 112.504 84.2845C112.487 86.7541 115.288 88.163 119.879 88.1547C124.495 88.163 127.272 86.7541 127.28 84.2845C127.272 81.8149 124.495 80.4061 119.879 80.4061ZM119.879 85.9006C116.987 85.9088 115.479 85.3619 115.487 84.2845C115.479 83.1657 116.987 82.6354 119.879 82.6436C122.788 82.6354 124.263 83.1657 124.272 84.2845C124.263 85.3619 122.788 85.9088 119.879 85.9006ZM150.744 88.163H153.603V66.8149H150.744V88.163ZM143.924 71.5552C143.128 69.5083 141.727 68.3481 139.937 68.3481C137.128 68.3481 135.297 71.2901 135.305 76.0552C135.297 80.8619 137.128 83.8204 139.937 83.8122C141.736 83.8204 143.136 82.6436 143.932 80.5718H146.426V87.1768H149.244V67.1464H146.426V71.5552H143.924ZM139.937 80.9448C138.694 80.953 138.006 79.3453 138.015 76.0552C138.006 72.7983 138.694 71.1657 139.937 71.174C141.172 71.1657 141.926 72.7983 141.935 76.0552C141.926 79.3453 141.181 80.953 139.937 80.9448ZM144.52 78.1436C144.603 77.4972 144.653 76.7928 144.653 76.0552C144.653 75.3094 144.603 74.605 144.512 73.9503H146.426V78.1436H144.52ZM167.525 74.4558H170.856V79.4945H173.84V66.8149H170.856V72.0193H167.525V74.4558ZM162.437 74.721C163.373 76.6354 164.989 78.1768 167.343 78.9475L168.818 76.5939C165.511 75.5 163.986 72.9972 163.912 70.5193H168.163V68.116H156.594V70.5193H160.87C160.804 73.1961 159.204 75.9724 155.724 77.1326L157.274 79.5028C159.801 78.6326 161.508 76.8923 162.437 74.721ZM166.547 79.9669C162.006 79.9669 159.213 81.4917 159.221 84.0773C159.213 86.663 162.006 88.1796 166.547 88.1878C171.105 88.1796 173.89 86.663 173.898 84.0773C173.89 81.4917 171.105 79.9669 166.547 79.9669ZM166.547 85.9006C163.721 85.9088 162.188 85.2956 162.196 84.0773C162.188 82.8508 163.721 82.2376 166.547 82.2376C169.381 82.2376 170.923 82.8508 170.931 84.0773C170.923 85.2956 169.381 85.9088 166.547 85.9006Z" fill="#101219"/>
<defs>
<filter id="filter0_d_412:3247" x="0" y="0" width="556" height="208" filterUnits="userSpaceOnUse" color-interpolation-filters="sRGB">
<feFlood flood-opacity="0" result="BackgroundImageFix"/>
<feColorMatrix in="SourceAlpha" type="matrix" values="0 0 0 0 0 0 0 0 0 0 0 0 0 0 0 0 0 0 127 0" result="hardAlpha"/>
<feOffset dy="3"/>
<feGaussianBlur stdDeviation="4"/>
<feComposite in2="hardAlpha" operator="out"/>
<feColorMatrix type="matrix" values="0 0 0 0 0 0 0 0 0 0 0 0 0 0 0 0 0 0 0.1 0"/>
<feBlend mode="normal" in2="BackgroundImageFix" result="effect1_dropShadow_412:3247"/>
<feBlend mode="normal" in="SourceGraphic" in2="effect1_dropShadow_412:3247" result="shape"/>
</filter>
</defs>
</svg>
