<svg width="20" height="21" viewBox="0 0 20 21" fill="none" xmlns="http://www.w3.org/2000/svg">
    <path d="m10.493 10.451 5.004-5.084a7.495 7.495 0 0 1 2.003 5.106 7.495 7.495 0 0 1-2.003 5.106l-5.004-5.128zM10.003 10.895l4.975 5.084-1.001.421-3.686 1.54a.609.609 0 0 1-.526 0l-4.65-1.932-.123-.066c1.685-1.685 3.34-3.362 5.01-5.047zM10.24 3l4.745 1.976-9.424 9.572-.065-.036L10.24 3zM9.435 3.551 4.503 15.536h-.094c-.324-.48-.676-.937-.957-1.453a7.312 7.312 0 0 1-.95-3.385.63.63 0 0 1 .194-.5c2.16-2.136 4.27-4.286 6.4-6.429.1-.101.195-.203.288-.312l.05.094z" fill="#4E473D"/>
</svg>
