<svg width="20" height="20" viewBox="0 0 20 20" fill="none" xmlns="http://www.w3.org/2000/svg">
<g clip-path="url(#clip0)">
<path d="M1.32975 11.3322C1.32868 16.0751 5.14072 19.9378 9.88315 19.9993C14.6257 20.0608 18.5366 16.2983 18.6585 11.557C18.7806 6.81575 15.0683 2.85724 10.329 2.67476V1.99978H10.9956C11.5477 1.99978 11.9954 1.55213 11.9954 0.999964C11.9954 0.44765 11.5477 0 10.9956 0H8.99579C8.44347 0 7.99582 0.44765 7.99582 0.999964C7.99582 1.55213 8.44347 1.99978 8.99579 1.99978H9.66238V2.67476C5.01225 2.85861 1.3357 6.67858 1.32975 11.3322ZM8.66241 0.999964C8.66241 0.815809 8.81163 0.666592 8.99579 0.666592H10.9956C11.1796 0.666592 11.3288 0.815809 11.3288 0.999964C11.3288 1.18397 11.1796 1.33318 10.9956 1.33318H8.99579C8.81163 1.33318 8.66241 1.18397 8.66241 0.999964ZM17.9949 11.3322C17.9949 15.7501 14.4135 19.3315 9.9956 19.3315C5.57784 19.3315 1.99634 15.7501 1.99634 11.3322C1.99634 6.91446 5.57784 3.33296 9.9956 3.33296C14.4114 3.33815 17.9897 6.91644 17.9949 11.3322Z" fill="#52596C"/>
<path d="M13.6444 4.97591C11.3857 3.67339 8.60397 3.67339 6.34513 4.97591C6.33979 4.97866 6.33353 4.97866 6.32789 4.98156C6.32209 4.98461 6.31949 4.99025 6.31415 4.99361C5.21349 5.63564 4.29775 6.55138 3.65572 7.65204C3.65236 7.65738 3.64702 7.66028 3.64382 7.66562C3.64046 7.67096 3.64077 7.67737 3.63802 7.68302C2.3355 9.94171 2.3355 12.7236 3.63802 14.9823C3.64077 14.9879 3.64077 14.994 3.64382 14.9997C3.64672 15.0053 3.65511 15.0132 3.66014 15.0206C4.30187 16.118 5.21608 17.031 6.31415 17.6717C6.31949 17.675 6.32255 17.6804 6.32789 17.6837C6.33323 17.6871 6.34482 17.69 6.35321 17.6941C8.60748 18.9899 11.3808 18.9899 13.6351 17.6941C13.6435 17.69 13.6525 17.6883 13.6604 17.6837C13.6685 17.679 13.6688 17.675 13.6741 17.6717C14.7724 17.0307 15.6866 16.1171 16.3281 15.0193C16.3332 15.012 16.3399 15.0062 16.3445 14.9983C16.3492 14.9904 16.3475 14.9867 16.3503 14.9809C17.6528 12.7222 17.6528 9.94049 16.3503 7.68164C16.3475 7.676 16.3475 7.67005 16.3445 7.6644C16.3416 7.6586 16.3359 7.65601 16.3326 7.65098C15.6907 6.55016 14.7748 5.63426 13.6741 4.99224C13.6688 4.98888 13.6657 4.98354 13.6604 4.98018C13.6551 4.97698 13.6502 4.97866 13.6444 4.97591ZM15.5886 7.71796L15.3132 7.87694C15.2093 7.93614 15.1449 8.04645 15.1448 8.16606C15.1445 8.28553 15.2083 8.39614 15.312 8.4558C15.4158 8.5153 15.5435 8.51469 15.6466 8.45427L15.9223 8.29499C16.353 9.13429 16.5993 10.0563 16.6444 10.9987H15.6615C15.4775 10.9987 15.3283 11.148 15.3283 11.332C15.3283 11.5161 15.4775 11.6653 15.6615 11.6653H16.6444C16.5993 12.6078 16.353 13.5296 15.9223 14.3691L15.6466 14.2096C15.5435 14.1492 15.4158 14.1486 15.312 14.2083C15.2083 14.2678 15.1445 14.3784 15.1448 14.498C15.1449 14.6176 15.2093 14.7279 15.3132 14.787L15.5886 14.946C15.0754 15.7375 14.401 16.4119 13.6094 16.9251L13.4505 16.6497C13.3914 16.5458 13.2811 16.4815 13.1615 16.4813C13.0419 16.481 12.9313 16.5448 12.8717 16.6485C12.8121 16.7523 12.8127 16.88 12.8731 16.9831L13.0326 17.2588C12.1931 17.6895 11.2713 17.9358 10.3288 17.9809V16.9981C10.3288 16.8141 10.1796 16.6648 9.99544 16.6648C9.81144 16.6648 9.66222 16.8141 9.66222 16.9981V17.9809C8.71977 17.9358 7.79777 17.6895 6.95847 17.2588L7.11776 16.9831C7.17818 16.88 7.17879 16.7523 7.11928 16.6485C7.05963 16.5448 6.94901 16.481 6.82955 16.4813C6.70993 16.4815 6.59962 16.5458 6.54042 16.6497L6.38144 16.9251C5.58989 16.4119 4.91552 15.7375 4.40241 14.946L4.67765 14.787C4.78156 14.7279 4.84594 14.6176 4.84625 14.498C4.84655 14.3784 4.78262 14.2678 4.67887 14.2083C4.57528 14.1486 4.44757 14.1492 4.34428 14.2096L4.06873 14.3691C3.63787 13.5296 3.39161 12.6078 3.34645 11.6653H4.32933C4.51349 11.6653 4.6627 11.5161 4.6627 11.332C4.6627 11.148 4.51349 10.9987 4.32933 10.9987H3.34645C3.39161 10.0563 3.63787 9.13429 4.06873 8.29499L4.34428 8.45427C4.44757 8.51469 4.57528 8.5153 4.67887 8.4558C4.78262 8.39614 4.84655 8.28553 4.84625 8.16606C4.84594 8.04645 4.78156 7.93614 4.67765 7.87694L4.40241 7.71796C4.91552 6.92641 5.58989 6.25203 6.38144 5.73878L6.54042 6.01417C6.59962 6.11807 6.70993 6.18246 6.82955 6.18276C6.94901 6.18292 7.05963 6.11914 7.11928 6.01539C7.17879 5.91164 7.17818 5.78409 7.11776 5.6808L6.95847 5.40525C7.79777 4.97439 8.71977 4.72813 9.66222 4.68297V5.66585C9.66222 5.85 9.81144 5.99922 9.99544 5.99922C10.1796 5.99922 10.3288 5.85 10.3288 5.66585V4.68297C11.2713 4.72813 12.1931 4.97439 13.0326 5.40525L12.8731 5.6808C12.8127 5.78409 12.8121 5.91164 12.8717 6.01539C12.9313 6.11914 13.0419 6.18292 13.1615 6.18276C13.2811 6.18246 13.3914 6.11807 13.4505 6.01417L13.6094 5.73878C14.401 6.25203 15.0754 6.92641 15.5886 7.71796Z" fill="#52596C"/>
<path d="M10.3291 10.3938V6.99948C10.3291 6.81548 10.1799 6.66626 9.99575 6.66626C9.81174 6.66626 9.66253 6.81548 9.66253 6.99948V10.3938C9.20328 10.5561 8.92788 11.0257 9.01027 11.5057C9.09266 11.9856 9.50873 12.3365 9.99575 12.3365C10.4828 12.3365 10.899 11.9856 10.9812 11.5057C11.0636 11.0257 10.7882 10.5561 10.3291 10.3938ZM9.99575 11.6658C9.81174 11.6658 9.66253 11.5166 9.66253 11.3324C9.66253 11.1484 9.81174 10.9992 9.99575 10.9992C10.1799 10.9992 10.3291 11.1484 10.3291 11.3324C10.3291 11.5166 10.1799 11.6658 9.99575 11.6658Z" fill="#52596C"/>
</g>
<defs>
<clipPath id="clip0">
<rect width="20" height="20" fill="white"/>
</clipPath>
</defs>
</svg>
