<svg width="540" height="712" viewBox="0 0 540 712" fill="none" xmlns="http://www.w3.org/2000/svg">
    <mask id="a" style="mask-type:alpha" maskUnits="userSpaceOnUse" x="0" y="0" width="540" height="712">
        <rect width="540" height="712" rx="10" fill="#C4C4C4"/>
    </mask>
    <g mask="url(#a)">
        <path d="M748.017 0H-145v712h893.017V0z" fill="url(#b)"/>
        <path style="mix-blend-mode:multiply" opacity=".3" d="M748.017 0v273.295L-145 612.891V91.481L95.654 0h652.363z" fill="url(#c)"/>
        <path style="mix-blend-mode:multiply" opacity=".3" d="M531.411 0-145 558.662V0h676.411z" fill="url(#d)"/>
    </g>
    <path d="M109.691 345c2.34 0 3.316-1.141 3.316-2.63 0-1.566-1.082-2.417-2.001-2.475v-.097c.861-.232 1.615-.802 1.615-2.069 0-1.46-.977-2.63-3.046-2.63h-3.481V345h3.597zm-2.369-8.808h2.243c1.296 0 1.876.686 1.876 1.547 0 1.034-.841 1.702-1.914 1.702h-2.205v-3.249zm0 4.312h2.418c1.276 0 2.088.851 2.088 1.856 0 .861-.6 1.547-2.146 1.547h-2.36v-3.403zm7.286-5.405V345h1.179v-9.901h-1.179zm6.085 10.056c2.02 0 3.374-1.528 3.374-3.829 0-2.32-1.354-3.848-3.374-3.848-2.021 0-3.384 1.528-3.384 3.848 0 2.301 1.363 3.829 3.384 3.829zm0-1.045c-1.509 0-2.205-1.305-2.205-2.784 0-1.479.696-2.804 2.205-2.804 1.498 0 2.194 1.325 2.194 2.804 0 1.479-.696 2.784-2.194 2.784zm7.943 1.045c1.653 0 2.746-1.015 2.929-2.34h-1.169c-.213.812-.88 1.286-1.76 1.286-1.344 0-2.205-1.102-2.205-2.814 0-1.672.88-2.765 2.205-2.765.996 0 1.586.619 1.76 1.296h1.169c-.183-1.402-1.373-2.34-2.948-2.34-2.021 0-3.365 1.586-3.365 3.848 0 2.224 1.286 3.829 3.384 3.829zm10.581-.155-3.35-4.254 3.118-3.171h-1.45l-3.21 3.287h-.135v-5.763h-1.18V345h1.18v-2.76l.788-.74 2.75 3.5h1.489zm3.747.155c1.653 0 2.746-1.015 2.93-2.34h-1.17c-.213.812-.88 1.286-1.76 1.286-1.344 0-2.204-1.102-2.204-2.814 0-1.672.879-2.765 2.204-2.765.996 0 1.586.619 1.76 1.296h1.17c-.184-1.402-1.373-2.34-2.949-2.34-2.021 0-3.365 1.586-3.365 3.848 0 2.224 1.286 3.829 3.384 3.829zm5.554-4.612c0-1.286.822-2.011 1.933-2.011 1.064 0 1.702.667 1.702 1.837V345h1.18v-4.718c0-1.905-1.015-2.804-2.533-2.804-1.17 0-1.837.493-2.186 1.266h-.096v-3.645h-1.18V345h1.18v-4.457zm9.518-3.065c-1.643 0-2.803.831-2.948 2.03h1.218c.174-.57.735-1.005 1.672-1.005 1.122 0 1.683.551 1.683 1.489v.604c-.329.01-1.528.077-2.011.111-1.286.097-2.785.484-2.785 2.185 0 1.451 1.122 2.282 2.533 2.282 1.286 0 1.963-.686 2.205-1.18h.058V345h1.17v-4.892c0-2.34-1.828-2.63-2.795-2.63zm-.444 6.652c-.899 0-1.547-.397-1.547-1.18 0-.812.677-1.189 1.75-1.257.353-.024 1.518-.111 1.866-.13v.749c0 .928-.735 1.818-2.069 1.818zm5.713-7.783c.445 0 .822-.348.822-.783 0-.436-.377-.784-.822-.784-.455 0-.832.348-.832.784 0 .435.377.783.832.783zm.58 8.653v-7.425h-1.18V345h1.18zm3.049-4.457c0-1.286.793-2.011 1.876-2.011 1.053 0 1.682.686 1.682 1.837V345h1.179v-4.718c0-1.886-1.005-2.804-2.513-2.804-1.122 0-1.818.503-2.166 1.266h-.097v-1.169h-1.141V345h1.18v-4.457zm6.768-5.444V345h1.228v-3.597h2.156c2.301 0 3.355-1.402 3.355-3.161 0-1.76-1.054-3.143-3.374-3.143h-3.365zm1.228 5.212v-4.119h2.088c1.586 0 2.205.87 2.205 2.05 0 1.179-.619 2.069-2.195 2.069h-2.098zm7.08-5.212V345h1.18v-9.901h-1.18zm7.738 6.855c0 1.383-1.054 2.011-1.895 2.011-.947 0-1.615-.686-1.615-1.759v-4.631h-1.179v4.718c0 1.885 1.005 2.804 2.407 2.804 1.122 0 1.857-.6 2.205-1.354h.077V345h1.17v-7.425h-1.17v4.379zm8.338-2.446c-.155-1.208-1.122-2.03-2.659-2.03-1.634 0-2.746.918-2.746 2.185 0 .996.687 1.702 1.982 2.001l1.122.261c.841.194 1.218.542 1.218 1.064 0 .696-.667 1.141-1.721 1.141-.938 0-1.47-.348-1.605-1.073h-1.228c.194 1.353 1.189 2.098 2.852 2.098 1.866 0 2.911-.948 2.911-2.234 0-1.034-.648-1.692-1.973-2.011l-1.112-.27c-.87-.213-1.266-.552-1.266-1.045 0-.618.648-1.112 1.566-1.112.87 0 1.344.407 1.499 1.025h1.16zm7.297-1.866v-3.239h-1.063v4.109h8.315v-.87h-7.252zm-2.591 3.394h11.129v-.87h-11.129v.87zm1.45 1.237v3.539h8.47v-.889h-7.406v-2.65h-1.064zM225.289 345v-1.093h-4.718v-.077l2.263-2.34c1.759-1.808 2.272-2.668 2.281-3.77-.009-1.547-1.286-2.756-3.084-2.756-1.789 0-3.142 1.18-3.133 2.93h1.17c0-1.112.745-1.857 1.924-1.857 1.112 0 1.963.658 1.973 1.683-.01.908-.571 1.576-1.741 2.823l-3.374 3.558.01.899h6.429zm5.027.135c2.194 0 3.461-1.846 3.461-5.085 0-3.21-1.286-5.086-3.461-5.086-2.176 0-3.462 1.876-3.462 5.086 0 3.239 1.267 5.085 3.462 5.085zm0-1.092c-1.431 0-2.263-1.431-2.263-3.993s.841-4.013 2.263-4.013c1.421 0 2.262 1.451 2.262 4.013s-.831 3.993-2.262 3.993zm7.363-8.944-2.466 1.644v1.238l2.408-1.596h.058V345h1.237v-9.901h-1.237zm7.173-.135c-2.108-.019-3.461 1.479-3.461 3.316 0 1.915 1.469 3.278 3.239 3.278a3.03 3.03 0 0 0 2.533-1.315h.135c-.009 2.408-.996 3.8-2.61 3.8-1.102 0-1.779-.658-2.002-1.547h-1.218c.251 1.576 1.479 2.639 3.22 2.639 2.32 0 3.761-1.962 3.761-5.482 0-3.645-1.895-4.67-3.597-4.689zm0 1.083c1.305 0 2.253 1.063 2.253 2.204 0 1.161-1.006 2.224-2.292 2.224-1.295 0-2.223-.976-2.223-2.204-.01-1.219.967-2.224 2.262-2.224zm14.929 6.923v-9.002h-1.074v1.596h-3.509v.87h3.509v1.45h-3.509v.87h3.509v4.216h1.074zm-3.133-3.172c-1.856.348-3.471.44-5.144.445v-5.395h-1.073v6.304h.919c1.779-.01 3.432-.087 5.414-.454l-.116-.9zm-3.616 2.398h-1.083v3.645h8.16v-.889h-7.077v-2.756zm21.666-3.258c.29-1.436.29-2.533.29-3.471v-.919h-8.257v.88h7.193v.039c0 .362 0 .735-.014 1.141l-7.469.222.135.861 7.281-.315c-.044.469-.116.982-.237 1.562h-8.291v.88h11.061v-.88h-1.692zm.377 4.863v-2.813h-8.45v.841h7.386v1.15h-7.357v2.969h8.856v-.861h-7.783v-1.286h7.348zm11.703 2.311h1.025v-12.153h-1.025v12.153zm-4.022-7.774v.88h1.547v6.246h1.015v-11.206h-1.015v4.08h-1.547zm-3.887 1.161h3.297v-4.187h-4.36v.89h3.326v2.417h-3.307v4.496h.812c1.537-.01 2.93-.049 4.66-.358l-.077-.89c-1.624.286-2.949.334-4.351.339v-2.707zm19.593-5.54v12.172h1.073v-12.172h-1.073zm-5.386.937c-1.817.01-3.103 1.654-3.103 4.235 0 2.591 1.286 4.235 3.103 4.235 1.799 0 3.104-1.644 3.104-4.235 0-2.581-1.305-4.225-3.104-4.235zm0 .958c1.219.009 2.06 1.305 2.06 3.277 0 1.982-.841 3.278-2.06 3.278-1.218 0-2.069-1.296-2.069-3.278 0-1.972.851-3.268 2.069-3.277zm11.085 2.842v-1.315h6.826v-.831h-6.826v-1.277h7.155v-.86h-8.238v5.134h8.305v-.851h-7.222zm-2.562 2.872h11.099v-.87h-11.099v.87zm1.45.889v3.384h8.479v-.889h-7.415v-2.495h-1.064zm20.245-6.7v-1.595h-1.054v1.595h-4.458v.889h9.949v-.889h-4.437zm0 6.328c2.146-.116 3.471-.957 3.471-2.316 0-1.45-1.547-2.301-4.003-2.291-2.475-.01-4.003.841-3.993 2.291-.01 1.364 1.305 2.205 3.471 2.316v1.706h-5.009v.89h11.129v-.89h-5.066v-1.706zm-3.442-2.316c-.01-.909 1.102-1.44 2.91-1.44 1.798 0 2.91.531 2.91 1.44 0 .919-1.112 1.451-2.91 1.46-1.808-.009-2.92-.541-2.91-1.46zm18.886-.976v-4.834h-1.063v12.172h1.063v-6.429h2.031v-.909h-2.031zm-7.841.648h4.438v-4.351h-5.53v.889h4.457v2.572h-4.428v4.641h.967c2.349-.01 3.973-.097 5.888-.445l-.107-.889c-1.851.343-3.427.425-5.685.425v-2.842zm19.477-5.482v12.172h1.073v-12.172h-1.073zm-5.385.937c-1.818.01-3.104 1.654-3.104 4.235 0 2.591 1.286 4.235 3.104 4.235 1.798 0 3.103-1.644 3.103-4.235 0-2.581-1.305-4.225-3.103-4.235zm0 .958c1.218.009 2.059 1.305 2.059 3.277 0 1.982-.841 3.278-2.059 3.278-1.219 0-2.069-1.296-2.069-3.278 0-1.972.85-3.268 2.069-3.277zm9.624 3.538c1.968-.285 3.795-1.266 4.457-2.697.658 1.431 2.49 2.412 4.457 2.697l.416-.851c-2.146-.299-4.186-1.518-4.177-3.016v-.029h3.848v-.89h-9.069v.89h3.829v.029c0 1.508-2.021 2.717-4.167 3.016l.406.851zm-1.083 1.808h11.109v-.889H353.53v.889zm1.431 1.112v3.529h8.412v-.889h-7.329v-2.64h-1.083zm20.047 3.8h1.035v-12.153h-1.035v12.153zm-4.007-7.416c-.136-2.291-1.136-3.713-2.616-3.713-1.576 0-2.6 1.634-2.6 4.216 0 2.591 1.024 4.235 2.6 4.225 1.504.01 2.514-1.47 2.621-3.838h1.566v5.907h1.034V334.22h-1.034v4.476h-1.571zm-2.616 3.713c-.976.01-1.605-1.238-1.595-3.21-.01-1.972.619-3.21 1.595-3.21.996 0 1.625 1.238 1.625 3.21s-.629 3.22-1.625 3.21zm18.355-4.303h-2.881v.88h2.881v7.145h1.064v-12.172h-1.064v4.147zm-4.737-3.094h-1.083v2.215c-.01 2.233-1.421 4.573-3.2 5.453l.686.86c1.388-.74 2.529-2.296 3.065-4.114.542 1.726 1.682 3.181 3.065 3.892l.648-.87c-1.769-.813-3.181-3.027-3.181-5.221v-2.215zM395.17 345v-4.419h4.283v-1.082h-4.283v-3.307h4.728v-1.093h-5.956V345h1.228zm13.017 0-3.626-9.901h-1.295L399.64 345h1.296l.986-2.785h3.983l.987 2.785h1.295zm-4.312-8.305h.077l1.571 4.438h-3.219l1.571-4.438zm13.174 1.518c-.367-2.05-1.991-3.249-3.993-3.249-2.542 0-4.379 1.953-4.379 5.086 0 3.132 1.837 5.085 4.379 5.085 2.011 0 3.636-1.218 3.993-3.239h-1.237c-.29 1.354-1.45 2.089-2.756 2.089-1.788 0-3.181-1.383-3.181-3.935 0-2.553 1.393-3.935 3.181-3.935 1.306 0 2.475.734 2.756 2.098h1.237zm4.293-2.021V345h1.238v-8.808h3.103v-1.093h-7.454v1.093h3.113zm13.95 3.858c0-3.133-1.847-5.086-4.38-5.086-2.543 0-4.38 1.953-4.38 5.086 0 3.132 1.837 5.085 4.38 5.085 2.533 0 4.38-1.953 4.38-5.085zm-1.199 0c0 2.552-1.393 3.935-3.181 3.935-1.789 0-3.181-1.383-3.181-3.935 0-2.553 1.392-3.935 3.181-3.935 1.788 0 3.181 1.382 3.181 3.935zM86.857 365.833c0 2.436.657 4.467 1.846 6.188h1.044c-.928-1.277-1.672-3.887-1.672-6.188 0-2.301.744-4.912 1.672-6.188h-1.044c-1.189 1.721-1.846 3.751-1.846 6.188zm11.123-3.239c-.048-1.508-1.43-2.63-3.355-2.63-1.914 0-3.403 1.102-3.403 2.775 0 1.344.967 2.137 2.524 2.581l1.208.339c1.044.29 1.963.657 1.963 1.624 0 1.073-1.025 1.779-2.388 1.779-1.18 0-2.214-.522-2.311-1.634H90.95c.116 1.644 1.44 2.746 3.578 2.746 2.291 0 3.587-1.257 3.587-2.872 0-1.846-1.74-2.455-2.794-2.726l-.996-.271c-.745-.193-1.905-.58-1.905-1.624 0-.938.86-1.624 2.166-1.624 1.189 0 2.088.56 2.194 1.537h1.2zm2.345-1.247c.445 0 .822-.348.822-.783 0-.436-.377-.784-.822-.784-.454 0-.831.348-.831.784 0 .435.377.783.831.783zm.58 8.653v-7.425h-1.18V370h1.18zm4.886 2.939c1.808 0 3.22-.822 3.22-2.736v-7.628h-1.141v1.179h-.106c-.261-.396-.725-1.276-2.166-1.276-1.866 0-3.171 1.421-3.171 3.713 0 2.33 1.353 3.693 3.152 3.693 1.44 0 1.914-.841 2.165-1.257h.097v1.508c0 1.228-.783 1.779-2.05 1.779-1.054 0-1.759-.377-1.914-1.141h-1.238c.136 1.383 1.354 2.166 3.152 2.166zm-.038-4.099c-1.412 0-2.137-1.073-2.137-2.611 0-1.498.706-2.697 2.137-2.697 1.373 0 2.107 1.102 2.107 2.697 0 1.634-.754 2.611-2.107 2.611zm6.309-3.297c0-1.286.793-2.011 1.875-2.011 1.054 0 1.683.686 1.683 1.837V370h1.179v-4.718c0-1.886-1.005-2.804-2.514-2.804-1.121 0-1.817.503-2.165 1.266h-.097v-1.169h-1.141V370h1.18v-4.457zm12.83.648c0-2.756-1.644-3.713-3.21-3.713-2.011 0-3.355 1.586-3.355 3.867 0 2.282 1.325 3.81 3.471 3.81 1.528 0 2.63-.764 2.978-1.895h-1.257c-.271.464-.831.85-1.721.85-1.32 0-2.233-.86-2.287-2.426h5.381v-.493zm-5.381-.513c.078-1.141.89-2.156 2.181-2.156 1.218 0 2.001.919 2.001 2.156h-4.182zm13.119.513c0-2.756-1.643-3.713-3.21-3.713-2.011 0-3.355 1.586-3.355 3.867 0 2.282 1.325 3.81 3.471 3.81 1.528 0 2.63-.764 2.978-1.895h-1.257c-.27.464-.831.85-1.721.85-1.319 0-2.233-.86-2.286-2.426h5.38v-.493zm-5.38-.513c.077-1.141.889-2.156 2.18-2.156 1.218 0 2.001.919 2.001 2.156h-4.181zm9.387.155c0-2.437-.658-4.467-1.847-6.188h-1.044c.928 1.276 1.672 3.887 1.672 6.188 0 2.301-.744 4.911-1.672 6.188h1.044c1.189-1.721 1.847-3.752 1.847-6.188zm11.249-2.04v-4.834h-1.064v12.172h1.064v-6.429h2.03v-.909h-2.03zm-7.841.648h4.438v-4.351h-5.531v.889h4.457v2.572h-4.428v4.641h.967c2.35-.01 3.974-.097 5.888-.445l-.106-.889c-1.852.343-3.428.425-5.685.425v-2.842zm13.105-1.799v-3.239h-1.064v4.109h8.315v-.87h-7.251zm-2.591 3.394h11.128v-.87h-11.128v.87zm1.45 1.237v3.539h8.47v-.889h-7.406v-2.65h-1.064zm17.982-7.174h-3.2V370h3.074c3.017 0 4.719-1.876 4.719-4.97 0-3.074-1.702-4.931-4.593-4.931zm-1.972 8.808v-7.715h1.895c2.301 0 3.471 1.45 3.471 3.838 0 2.408-1.17 3.877-3.597 3.877h-1.769zm8.369-8.808V370h1.228v-9.901h-1.228zm6.619 0h-3.201V370h3.075c3.017 0 4.718-1.876 4.718-4.97 0-3.074-1.701-4.931-4.592-4.931zm-1.973 8.808v-7.715h1.895c2.301 0 3.471 1.45 3.471 3.838 0 2.408-1.17 3.877-3.596 3.877h-1.77zm12.135-3.074c0 2.436.658 4.467 1.847 6.188h1.044c-.928-1.277-1.673-3.887-1.673-6.188 0-2.301.745-4.912 1.673-6.188h-1.044c-1.189 1.721-1.847 3.751-1.847 6.188zm12.477-6.488v1.567h-6.013v-1.567h-1.074v4.854h8.161v-4.854h-1.074zm-6.013 3.984v-1.596h6.013v1.596h-6.013zm-2.563 2.939h5.115v2.378h1.064v-2.378h4.95v-.88H197.07v.88zm1.431 1.257v3.316h8.46v-.889h-7.396v-2.427h-1.064zm20.193-8.576h-1.074v8.992h1.074v-4.342h1.827v-.918h-1.827v-3.732zm-5.908 4.196a5.124 5.124 0 0 0 2.988 2.804l.551-.861c-1.789-.618-3.056-2.165-3.046-3.838v-1.547h-1.054v1.508c-.009 1.886-1.228 3.529-3.084 4.187l.599.851a5.16 5.16 0 0 0 3.046-3.104zm-1.682 3.925v3.771h8.15v-.889h-7.058v-2.882h-1.092zm19.612-2.939v-5.172h-1.073v12.153h1.073v-6.072h1.943v-.909h-1.943zm-5.154-3.683v-1.47h-1.073v1.47h-3.132v.87h7.328v-.87h-3.123zm0 6.042c1.412-.164 2.35-.996 2.36-2.204-.01-1.373-1.19-2.263-2.891-2.263-1.721 0-2.882.89-2.872 2.263-.01 1.208.914 2.035 2.33 2.204v1.339c-1.203.034-2.364.039-3.355.044l.184.909c2.127 0 4.999-.029 7.657-.484l-.077-.812a34.598 34.598 0 0 1-3.336.3v-1.296zm-2.397-2.204c0-.851.744-1.421 1.866-1.421 1.112 0 1.856.57 1.856 1.421 0 .841-.744 1.392-1.856 1.383-1.122.009-1.866-.542-1.866-1.383zm22.7-5.318v8.915h1.073v-8.915h-1.073zm-5.197 3.892a5.283 5.283 0 0 0 3.041 3.041l.561-.861c-1.808-.657-3.075-2.32-3.065-4.177v-1.218h-1.093v1.218c0 1.924-1.247 3.703-3.084 4.419l.59.841c1.421-.575 2.523-1.769 3.05-3.263zm-.507 4.201h-1.074v3.78h8.228v-.889h-7.154v-2.891zm15.27-.126h2.505v1.267h1.082v-9.234h-1.082v7.184h-2.505v.783zm-2.504-3.249c1.779 0 2.998-.812 3.007-2.107-.009-1.277-1.228-2.118-3.007-2.118-1.798 0-3.016.841-3.016 2.118 0 1.295 1.218 2.107 3.016 2.107zm0-3.413c1.151-.009 1.973.523 1.982 1.306-.009.793-.831 1.305-1.982 1.305-1.189 0-2.001-.512-1.991-1.305-.01-.783.802-1.315 1.991-1.306zm.648 7.503v-2.402a34.59 34.59 0 0 0 3.345-.353l-.077-.783c-2.601.328-5.646.348-7.909.357l.145.88c1.02.005 2.195 0 3.423-.048v2.349h1.073zm-1.818-.483h-1.073v3.548h8.634v-.889h-7.561v-2.659zm21.821-8.325v8.886h1.073v-8.886h-1.073zm-5.492 6.817c1.818.009 3.181-1.219 3.181-2.988 0-1.75-1.363-2.978-3.181-2.978s-3.19 1.228-3.19 2.978c0 1.769 1.372 2.997 3.19 2.988zm-2.137-2.988c-.009-1.189.909-2.04 2.137-2.04 1.209 0 2.137.851 2.137 2.04 0 1.209-.928 2.05-2.137 2.05-1.228 0-2.146-.841-2.137-2.05zm1.924 4.148H266.8v3.896h8.228v-.889h-7.155v-3.007zm9.857-2.939c1.997-.247 3.853-1.137 4.525-2.49.667 1.353 2.528 2.243 4.525 2.49l.396-.851c-2.156-.247-4.177-1.306-4.225-2.678h3.848v-.9h-9.069v.9h3.829c-.058 1.382-2.098 2.431-4.216 2.678l.387.851zm-1.015 1.624h11.08v-.89h-11.08v.89zm5.53 1.063c-2.62 0-4.196.803-4.196 2.205 0 1.402 1.576 2.185 4.196 2.185 2.611 0 4.177-.783 4.187-2.185-.01-1.402-1.576-2.205-4.187-2.205zm0 3.529c-1.943 0-3.113-.483-3.103-1.324-.01-.861 1.16-1.344 3.103-1.354 1.934.01 3.104.493 3.113 1.354-.009.841-1.179 1.324-3.113 1.324zm9.499-4.389c0-2.437-.658-4.467-1.847-6.188h-1.044c.928 1.276 1.673 3.887 1.673 6.188 0 2.301-.745 4.911-1.673 6.188h1.044c1.189-1.721 1.847-3.752 1.847-6.188zm14.299-6.874v12.172h1.073v-12.172h-1.073zm-8.238 1.034v8.199h5.753v-8.199h-1.063v3.21h-3.616v-3.21h-1.074zm1.074 4.071h3.616v3.229h-3.616v-3.229zm19.621-2.302h-1.624V359.2h-1.006v6.294h1.006v-2.832h1.624v2.919h1.015v-6.613H318.5v2.794zm-6.391 3.365c1.625.01 2.785-1.121 2.785-2.746 0-1.624-1.16-2.755-2.785-2.746-1.634-.009-2.784 1.122-2.774 2.746-.01 1.625 1.14 2.756 2.774 2.746zm-1.808-2.746c-.009-1.092.764-1.866 1.808-1.866 1.035 0 1.799.774 1.808 1.866-.009 1.083-.773 1.857-1.808 1.857-1.044 0-1.817-.774-1.808-1.857zm2.272 5.202v-1.45h-1.063v4.815h8.005v-4.815h-1.044v1.45h-5.898zm0 2.485v-1.605h5.898v1.605h-5.898zm14.256-10.326c-2.533.009-4.438 1.334-4.438 3.345 0 2.021 1.905 3.345 4.438 3.336 2.543.009 4.448-1.315 4.448-3.336 0-2.011-1.905-3.336-4.448-3.345zm0 .88c1.953-.01 3.413 1.005 3.413 2.465 0 1.47-1.46 2.456-3.413 2.456-1.953 0-3.423-.986-3.413-2.456-.01-1.46 1.46-2.475 3.413-2.465zm-5.53 7.966v.9h11.128v-.9h-11.128zm18.162-2.185h3.944v-.889h-7.551v-1.982h7.271v-3.674h-8.363v.889h7.299v1.905h-7.27v3.751h3.606v2.292h-4.999v.909h11.129v-.909h-5.066v-2.292zm18.523 4.709h1.073v-12.153h-1.073v12.153zm-7.126-6.758h4.419v-.871h-4.419v-2.523h4.854v-.899h-5.917v8.121h.967c2.339-.009 3.973-.077 5.897-.396l-.116-.89c-1.861.315-3.417.397-5.685.397v-2.939zm19.264-.755h-2.726c-.169-2.272-1.363-3.693-3.017-3.703-1.798.01-3.055 1.654-3.045 4.235-.01 2.591 1.247 4.235 3.045 4.235 1.697 0 2.91-1.494 3.026-3.877h2.717v6.642h1.064v-12.172h-1.064v4.64zm-5.743 3.81c-1.199 0-2.021-1.296-2.021-3.278 0-1.972.822-3.268 2.021-3.277 1.189.009 2.021 1.305 2.021 3.277 0 1.982-.832 3.278-2.021 3.278zm19.21 2.591v-1.093h-4.718v-.077l2.262-2.34c1.76-1.808 2.272-2.668 2.282-3.77-.01-1.547-1.286-2.756-3.084-2.756-1.789 0-3.142 1.18-3.133 2.93h1.17c0-1.112.745-1.857 1.924-1.857 1.112 0 1.963.658 1.973 1.683-.01.908-.571 1.576-1.741 2.823l-3.374 3.558.01.899h6.429zm10.416-8.392c.778 1.494 2.649 2.543 4.544 2.862l.435-.88c-2.195-.31-4.428-1.789-4.428-3.5v-.696h-1.112v.696c0 1.74-2.224 3.19-4.419 3.5l.445.88c1.89-.319 3.761-1.359 4.535-2.862zm-5.55 4.196v.899h4.989v4.409h1.054v-4.409h5.037v-.899h-11.08zm21.604-6.845h-1.073v7.396h1.073v-3.326h1.827v-.899h-1.827v-3.171zm-5.942 3.819c.527 1.266 1.591 2.272 2.935 2.765l.58-.851c-1.76-.599-3.017-2.117-3.017-3.771v-1.334h-1.053v1.257c-.01 1.876-1.228 3.5-3.056 4.177l.58.86a5.195 5.195 0 0 0 3.031-3.103zm2.045 3.886c-2.504 0-4.031.813-4.031 2.205 0 1.411 1.527 2.214 4.031 2.214 2.495 0 4.003-.803 4.003-2.214 0-1.392-1.508-2.205-4.003-2.205zm0 3.568c-1.837-.01-2.968-.503-2.958-1.363-.01-.832 1.121-1.344 2.958-1.344 1.837 0 2.959.512 2.959 1.344 0 .86-1.122 1.353-2.959 1.363zm10.679-9.775v-1.489h-1.064v1.489h-3.094v.88h7.242v-.88h-3.084zm5.317-1.489h-1.073v9.108h1.073v-4.196h1.828v-.909h-1.828v-4.003zm-2.929 5.308c-.01-1.382-1.189-2.272-2.92-2.272-1.76 0-2.939.89-2.93 2.272-.009 1.364 1.17 2.243 2.93 2.243 1.731 0 2.91-.879 2.92-2.243zm-4.825 0c-.009-.87.754-1.431 1.905-1.431 1.131 0 1.895.561 1.905 1.431-.01.851-.774 1.402-1.905 1.393-1.151.009-1.914-.542-1.905-1.393zm.145 3.065v3.5h8.17v-.889h-7.106v-2.611h-1.064zm23.126-3.597v-4.785h-1.073v12.153h1.073v-6.439h2.03v-.929h-2.03zm-7.841-.541v-3.21h-1.064v8.199h5.685v-8.199h-1.063v3.21h-3.558zm0 4.09v-3.229h3.558v3.229h-3.558zm23.009-8.325v6.942h1.074v-6.942h-1.074zm-5.491 6.372c1.846 0 3.181-1.151 3.181-2.823 0-1.692-1.335-2.843-3.181-2.843-1.847 0-3.191 1.151-3.191 2.843 0 1.672 1.344 2.823 3.191 2.823zm0-4.747c1.237-.01 2.137.792 2.137 1.924 0 1.131-.9 1.924-2.137 1.933-1.247-.009-2.147-.802-2.137-1.933-.01-1.132.89-1.934 2.137-1.924zm5.201 5.849H451.5v.667c0 .943-.614 2.166-1.775 2.881-1.15-.657-1.735-1.803-1.735-2.881v-.667h-1.035v.667c-.009 1.17-.937 2.466-2.475 3.036l.542.793a4.286 4.286 0 0 0 2.441-2.258c.363 1.02 1.112 1.91 2.296 2.364 1.127-.478 1.866-1.411 2.243-2.402.421 1.02 1.272 1.87 2.485 2.296l.542-.793c-1.567-.532-2.485-1.779-2.476-3.036v-.667zm-357.161 17.3c-2.533.009-4.438 1.334-4.438 3.345 0 2.021 1.905 3.345 4.438 3.336 2.543.009 4.447-1.315 4.447-3.336 0-2.011-1.904-3.336-4.447-3.345zm0 .88c1.953-.01 3.413 1.005 3.413 2.465 0 1.47-1.46 2.456-3.413 2.456-1.953 0-3.423-.986-3.413-2.456-.01-1.46 1.46-2.475 3.413-2.465zm-5.53 7.966v.9h11.128v-.9H89.861zm21.11-6.71h-2.978v-1.711h-5.54v7.87h5.54v-1.924h2.978v5.018h1.063v-12.172h-1.063v2.919zm-7.455 5.289v-6.149h3.433v6.149h-3.433zm4.477-4.399h2.978v2.465h-2.978v-2.465zm6.743 6.304-.754 3.722h1.015l1.054-3.722h-1.315zm15.434-6.981v1.644h-3.239v.889h3.239v1.644h1.073v-7.3h-1.073v2.263h-2.837c.096-.431.149-.89.149-1.364h-5.53v.9h4.37c-.222 2.107-2.059 3.761-4.989 4.621l.445.851c2.61-.769 4.486-2.185 5.284-4.148h3.108zm-2.9 4.303c-2.495 0-4.071.87-4.071 2.32 0 1.46 1.576 2.34 4.071 2.34 2.455 0 4.041-.88 4.041-2.34 0-1.45-1.586-2.32-4.041-2.32zm0 3.79c-1.837 0-3.007-.551-3.007-1.47 0-.918 1.17-1.47 3.007-1.46 1.798-.01 2.968.542 2.978 1.46-.01.919-1.18 1.47-2.978 1.47zm10.088-9.949v-1.392h-1.054v1.392h-3.026v.88h7.097v-.88h-3.017zm4.912 2.417h-2.069v.899h2.069v2.775h1.073v-7.367h-1.073v3.693zm-2.62 1.257c-.01-1.276-1.17-2.166-2.824-2.166-1.653 0-2.823.89-2.823 2.166 0 1.305 1.17 2.166 2.823 2.166 1.654 0 2.814-.861 2.824-2.166zm-4.612 0c-.01-.783.725-1.334 1.788-1.334 1.054 0 1.789.551 1.789 1.334 0 .802-.735 1.334-1.789 1.344-1.063-.01-1.798-.542-1.788-1.344zm8.305 7.039v-3.974h-7.947v3.974h7.947zm-1.054-3.114v2.234h-5.82v-2.234h5.82zm12.458-3.79v-5.085h-1.074v12.153h1.074v-6.14h1.972v-.928h-1.972zm-2.998 1.712c.348-2.253.348-3.858.358-4.815v-.639h-6.178v.88h5.105c0 .967-.029 2.451-.358 4.487l1.073.087zm-2.823-1.983h-1.063v3.728c-.933.024-1.823.029-2.621.034l.136.899c2.175.009 5.037-.049 7.59-.445l-.058-.812c-1.262.154-2.64.242-3.984.295v-3.699zm21.028 7.339h1.073v-12.153h-1.073v12.153zm-8.257-10.829v.87h4.641c-.237 2.901-1.915 5.241-5.202 6.797l.58.88c4.08-1.963 5.705-5.057 5.714-8.547h-5.733zm16.919.537c.769 1.31 2.64 2.17 4.559 2.422l.377-.822c-2.185-.261-4.38-1.421-4.38-2.93v-.473h-1.102v.473c0 1.509-2.195 2.669-4.38 2.93l.377.822c1.895-.252 3.776-1.112 4.549-2.422zm5.545 3.224h-11.08v.87h4.989v1.219h-3.645v.85h7.251v1.103h-7.222v2.891h8.644v-.851h-7.59v-1.238h7.222v-2.755h-3.587v-1.219h5.018v-.87zm6.55-.648c2.707-.009 4.293-.754 4.293-2.127 0-1.353-1.586-2.098-4.293-2.098s-4.303.745-4.303 2.098c0 1.373 1.596 2.118 4.303 2.127zm0-3.413c2.021 0 3.2.484 3.2 1.286 0 .841-1.179 1.306-3.2 1.306-2.011 0-3.191-.465-3.181-1.306-.01-.802 1.17-1.286 3.181-1.286zm-5.53 5.105h11.08v-.87h-11.08v.87zm9.649 3.771v-2.717h-8.306v.822h7.252v1.102h-7.223v2.911h8.644v-.851h-7.59v-1.267h7.223zm14.927-3.326h1.073v-6.574h-1.073v6.574zm-5.12-2.867c.551 1.257 1.692 2.234 3.118 2.683l.542-.841c-1.808-.551-3.123-1.962-3.123-3.548v-.309h2.794v-.88h-6.72v.88h2.843v.309c-.01 1.673-1.315 3.171-3.142 3.751l.551.851c1.46-.498 2.605-1.552 3.137-2.896zm-.624 4.936v-1.469h-1.053v4.815h7.87v-4.815h-1.064v1.469h-5.753zm0 2.466v-1.605h5.753v1.605h-5.753zm20.183-9.234h-1.798v-1.875h-1.074v7.222h1.074v-1.847h1.798v-.909h-1.798v-1.711h1.798v-.88zm-4.689 1.721c-.01-1.692-1.344-2.871-3.191-2.862-1.847-.009-3.2 1.17-3.19 2.862-.01 1.702 1.343 2.872 3.19 2.872s3.181-1.17 3.191-2.872zm-5.328 0c-.009-1.15.9-1.943 2.137-1.943 1.238 0 2.137.793 2.147 1.943-.01 1.16-.909 1.963-2.147 1.953-1.237.01-2.146-.793-2.137-1.953zm7.145 5.076v3.481h1.074v-4.361h-7.958v.88h6.884zm13.077-3.664v-5.008h-1.064v12.153h1.064v-6.246h2.03v-.899h-2.03zm-6.353-4.863v1.808h-3.123v.889h7.232v-.889h-3.035v-1.808h-1.074zm.551 3.703c-1.73 0-2.987 1.15-2.977 2.794-.01 1.643 1.247 2.784 2.977 2.784 1.721 0 2.969-1.141 2.978-2.784-.009-1.644-1.257-2.794-2.978-2.794zm0 4.67c-1.131.009-1.962-.774-1.953-1.876-.009-1.102.822-1.895 1.953-1.895 1.122 0 1.944.793 1.953 1.895-.009 1.102-.831 1.885-1.953 1.876zm17.505-5.802h-3.196c-.522-1.121-1.431-1.774-2.547-1.779-1.799.01-3.056 1.654-3.046 4.235-.01 2.591 1.247 4.235 3.046 4.235 1.174 0 2.117-.72 2.625-1.953h3.118v4.718h1.063v-12.172h-1.063v2.716zm-5.743 5.734c-1.199 0-2.021-1.296-2.021-3.278 0-1.972.822-3.268 2.021-3.277 1.189.009 2.02 1.305 2.02 3.277 0 1.982-.831 3.278-2.02 3.278zm2.895-1.886c.092-.425.141-.889.141-1.392 0-.565-.063-1.087-.179-1.556h2.886v2.948h-2.848zm18.954-6.574h-1.073v8.914h1.073v-4.302h1.827v-.909h-1.827v-3.703zm-8.982 1.112v5.598h5.617v-5.598h-5.617zm1.044 4.728v-3.848h3.529v3.848h-3.529zm.329 2.233v3.819h8.17v-.889h-7.106v-2.93h-1.064zm12.68-4.157v-2.505h7.232v-.87h-8.305v4.264h8.411v-.889h-7.338zm-2.475 3.103h11.089v-.87h-11.089v.87zm1.431 1.315v3.548h8.479v-.899h-7.416v-2.649h-1.063zm23.56-3.345c.29-1.436.29-2.533.29-3.471v-.919h-8.257v.88h7.194v.039c0 .362 0 .735-.015 1.141l-7.469.222.136.861 7.28-.315c-.043.469-.116.982-.237 1.562h-8.29v.88h11.06v-.88h-1.692zm.377 4.863v-2.813h-8.45v.841h7.387v1.15h-7.358v2.969h8.856v-.861h-7.783v-1.286h7.348zm11.704 2.311h1.024v-12.153h-1.024v12.153zm-4.023-7.774v.88h1.547v6.246h1.016v-11.206h-1.016v4.08h-1.547zm-3.886 1.161h3.297v-4.187h-4.361v.89h3.326v2.417h-3.306v4.496h.812c1.537-.01 2.929-.049 4.66-.358l-.077-.89c-1.625.286-2.949.334-4.351.339v-2.707zm19.592-5.54v12.172h1.074v-12.172h-1.074zm-5.385.937c-1.818.01-3.104 1.654-3.104 4.235 0 2.591 1.286 4.235 3.104 4.235 1.798 0 3.104-1.644 3.104-4.235 0-2.581-1.306-4.225-3.104-4.235zm0 .958c1.218.009 2.059 1.305 2.059 3.277 0 1.982-.841 3.278-2.059 3.278-1.218 0-2.069-1.296-2.069-3.278 0-1.972.851-3.268 2.069-3.277zm21.066 3.21h-2.04v.899h2.04v6.149h1.064v-12.153h-1.064v5.105zm-4.863-3.152v-1.808h-1.073v1.808h-3.075v.889h7.232v-.889h-3.084zm-.522 1.895c-1.663 0-2.872 1.16-2.872 2.794 0 1.614 1.209 2.784 2.872 2.784 1.644 0 2.843-1.17 2.852-2.784-.009-1.634-1.208-2.794-2.852-2.794zm0 4.65c-1.073.01-1.876-.764-1.866-1.856-.01-1.083.793-1.866 1.866-1.876 1.064.01 1.866.793 1.866 1.876 0 1.092-.802 1.866-1.866 1.856zm9.789-7.628v6.323h8.45v-6.323h-1.063v2.272h-6.314v-2.272h-1.073zm1.073 3.132h6.314v2.33h-6.314v-2.33zm-2.388 5.627v.9h11.128v-.9h-11.128zm16.464-2.755c0 2.436.658 4.467 1.847 6.188h1.044c-.928-1.277-1.673-3.887-1.673-6.188 0-2.301.745-4.912 1.673-6.188h-1.044c-1.189 1.721-1.847 3.751-1.847 6.188zm5.748 4.167v-3.191l1.238-1.392 3.403 4.583h1.499l-4.139-5.434 4.139-4.467h-1.605l-4.409 4.893h-.126v-4.893h-1.228V394h1.228zm7.313-9.901V394h1.179v-9.901h-1.179zm5.872 2.379c-1.644 0-2.804.831-2.949 2.03h1.218c.174-.57.735-1.005 1.673-1.005 1.121 0 1.682.551 1.682 1.489v.604c-.329.01-1.527.077-2.011.111-1.286.097-2.784.484-2.784 2.185 0 1.451 1.121 2.282 2.533 2.282 1.286 0 1.962-.686 2.204-1.18h.058V394h1.17v-4.892c0-2.34-1.827-2.63-2.794-2.63zm-.445 6.652c-.899 0-1.547-.397-1.547-1.18 0-.812.677-1.189 1.75-1.257.353-.024 1.518-.111 1.866-.13v.749c0 .928-.735 1.818-2.069 1.818zm5.595 3.655c1.053 0 1.779-.552 2.214-1.712l3.142-8.498h-1.276l-2.031 5.897h-.077l-2.03-5.897h-1.277l2.746 7.473-.213.571c-.396 1.083-.802 1.112-1.276 1.112-.184 0-.454-.01-.57-.02l-.01 1.045c.155.019.406.029.658.029zm8.038-2.785v-4.419h5.24V394h1.238v-9.901h-1.238v4.4h-5.24v-4.4h-1.228V394h1.228zm15.135-3.452c0 1.441-.986 2.475-2.62 2.475-1.634 0-2.63-1.034-2.63-2.475v-6.449h-1.228v6.546c0 2.04 1.518 3.529 3.858 3.529 2.33 0 3.857-1.489 3.857-3.529v-6.546h-1.237v6.449zm7.017 3.452c2.34 0 3.316-1.141 3.316-2.63 0-1.566-1.082-2.417-2.001-2.475v-.097c.861-.232 1.615-.802 1.615-2.069 0-1.46-.977-2.63-3.046-2.63h-3.481V394h3.597zm-2.369-8.808h2.243c1.296 0 1.876.686 1.876 1.547 0 1.034-.841 1.702-1.914 1.702H400.7v-3.249zm0 4.312h2.417c1.277 0 2.089.851 2.089 1.856 0 .861-.6 1.547-2.147 1.547H400.7v-3.403zm9.771.329c0-2.437-.658-4.467-1.847-6.188h-1.044c.928 1.276 1.672 3.887 1.672 6.188 0 2.301-.744 4.911-1.672 6.188h1.044c1.189-1.721 1.847-3.752 1.847-6.188zm4.413-3.191v-3.239h-1.063v4.109h8.315v-.87h-7.252zm-2.591 3.394h11.129v-.87h-11.129v.87zm1.45 1.237v3.539h8.47v-.889h-7.406v-2.65h-1.064zm16.687-4.215v-3.481h-1.073v4.361h8.382v-.88h-7.309zm-2.504 2.717v.899h4.979v4.438h1.064v-4.438h5.085v-.899h-11.128zm21.362-.803c.348-1.75.348-3.007.348-4.157v-1.064h-8.218v.89h7.154v.174c0 1.131 0 2.412-.377 4.157h-8.17v.89h4.98v5.269h1.073v-5.269h5.027v-.89h-1.817zM91.801 415.036h3.703v-6.217h-1.063v2.195h-6.314v-2.195h-1.073v6.217h3.684v2.62h-4.999v.899h11.129v-.899H91.8v-2.62zm2.64-3.142v2.262h-6.314v-2.262h6.314zm12.805.87v-4.805h-1.073v12.172h1.073v-6.468h2.031v-.899h-2.031zm-7.802-2.736h4.602v-.88h-5.675v7.938h.957c2.311 0 3.906-.068 5.811-.406l-.136-.929c-1.803.334-3.36.421-5.56.426v-6.149zm23.744 2.678v-4.747h-1.063v12.153h1.063v-6.488h1.654v-.918h-1.654zm-8.566-.474v-3.142h-.919v8.083h3.365v-8.083h-.909v3.142h-1.537zm4.022 0v-3.142h-.909v8.083h3.317v-8.083h-.909v3.142h-1.499zm-4.022 4.032v-3.171h1.537v3.171h-1.537zm4.022 0v-3.171h1.499v3.171h-1.499zm8.339-5.695v2.997h8.508v-.841h-7.445v-1.353h7.184v-2.998h-8.286v.861h7.213v1.334h-7.174zm-1.451 5.008h11.129v-.879h-11.129v.879zm1.48.958v3.306h8.479v-.889h-7.396v-2.417h-1.083zm24.228.541v-9.108h-1.074v2.862h-2.707v.899h2.707v5.347h1.074zm-6.435-4.955a5.22 5.22 0 0 0 2.925 2.905l.599-.841c-1.779-.638-3.007-2.243-3.007-3.935v-1.547h-1.053v1.508c-.01 1.866-1.267 3.568-3.085 4.235l.571.87a5.31 5.31 0 0 0 3.05-3.195zm-.343 3.911h-1.083v3.809h8.141v-.889h-7.058v-2.92zm11.423-3.529v-2.939h6.913v-.89h-8.006v4.699h8.17v-.87h-7.077zm-2.64 2.475v.88h5.009v4.215h1.053v-4.215h5.067v-.88h-11.129zm13.192-1.131c1.871-.324 3.723-1.335 4.462-2.795.74 1.46 2.587 2.471 4.482 2.795l.406-.851c-2.127-.31-4.293-1.692-4.283-3.326v-.077h3.877v-.871h-8.973v.871h3.897v.077c-.01 1.634-2.176 3.016-4.283 3.326l.415.851zm-1.073 1.034v.89h4.989v4.331h1.054v-4.331h5.037v-.89h-11.08zm21.507-2.011v-4.911h-1.073v12.153h1.073v-6.323h2.031v-.919h-2.031zm-5.298-2.765h2.736v-.899h-6.613v.899h2.823v1.586c-.01 2.069-1.508 4.379-3.258 5.23l.648.851c1.363-.696 2.581-2.267 3.147-4.046.546 1.643 1.701 3.074 3.06 3.746l.619-.85c-1.76-.842-3.172-2.988-3.162-4.931v-1.586zm14.053 5.298h3.944v-.889h-7.551v-1.982h7.271v-3.674h-8.363v.889h7.299v1.905h-7.27v3.751h3.606v2.292h-4.999v.909h11.129v-.909h-5.066v-2.292zm15.212-3.036h-2.165v.948h2.165v6.797h1.083v-12.153h-1.083v4.408zm-2.997-3.326h-1.034v2.775c-.01 1.281-.223 3.051-1.19 4.235-.986-1.223-1.218-3.012-1.208-4.235v-2.775h-1.015v2.775c-.01 1.538-.435 3.655-1.915 4.748l.725.754c.871-.663 1.393-1.736 1.688-2.886.27 1.189.783 2.33 1.716 3.011.933-.676 1.445-1.812 1.716-3.011.295 1.17.831 2.252 1.745 2.915l.687-.783c-1.518-1.064-1.924-3.162-1.915-4.748v-2.775zm10.77 3.781.754-3.723h-1.015l-1.054 3.723h1.315zm10.718-4.854v8.915h1.073v-8.915h-1.073zm-5.197 3.892a5.283 5.283 0 0 0 3.041 3.041l.561-.861c-1.808-.657-3.075-2.32-3.065-4.177v-1.218h-1.093v1.218c0 1.924-1.247 3.703-3.084 4.419l.59.841c1.421-.575 2.523-1.769 3.05-3.263zm-.508 4.201h-1.073v3.78h8.228v-.889h-7.155v-2.891zm17.166-3.814c.958-.373 1.499-.991 1.499-1.804 0-1.431-1.644-2.252-4.293-2.252-2.659 0-4.302.821-4.302 2.252 0 .817.546 1.436 1.518 1.813v1.716h-2.746v.88h11.08v-.88h-2.756v-1.725zm-5.984-1.804c-.01-.879 1.208-1.411 3.19-1.411 1.973 0 3.2.532 3.2 1.411 0 .89-1.227 1.402-3.2 1.402-1.982 0-3.2-.512-3.19-1.402zm1.479 2.098a9.69 9.69 0 0 0 1.711.136c.638 0 1.218-.049 1.731-.14v1.435h-3.442v-1.431zm1.711 3.249c-2.63-.01-4.196.754-4.196 2.137 0 1.392 1.566 2.156 4.196 2.156 2.611 0 4.177-.764 4.187-2.156-.01-1.383-1.576-2.147-4.187-2.137zm0 3.452c-1.943.009-3.113-.484-3.103-1.315-.01-.822 1.16-1.305 3.103-1.315 1.934.01 3.104.493 3.113 1.315-.009.831-1.179 1.324-3.113 1.315zm19.046-11.283v6.98h1.054v-6.98h-1.054zm-8.325.792v4.941h5.705v-4.941h-5.705zm1.054 4.09v-3.219h3.597v3.219h-3.597zm8.644 3.761v-.831h-3.636v-1.19h-1.063v1.19H250.1v.831h3.596c0 1.218-2.011 2.398-4.099 2.63l.387.841c1.827-.256 3.534-1.097 4.264-2.248.725 1.131 2.392 1.997 4.215 2.248l.377-.841c-2.088-.261-4.041-1.441-4.041-2.63h3.616zm14.685-3.732v-4.911h-1.073v12.153h1.073v-6.323h2.03v-.919h-2.03zm-5.299-2.765h2.737v-.899h-6.614v.899h2.824v1.586c-.01 2.069-1.509 4.379-3.259 5.23l.648.851c1.363-.696 2.582-2.267 3.147-4.046.546 1.643 1.702 3.074 3.06 3.746l.619-.85c-1.76-.842-3.171-2.988-3.162-4.931v-1.586zm17.495-2.156h-1.073v8.992h1.073v-4.342h1.827v-.918h-1.827v-3.732zm-5.907 4.196a5.12 5.12 0 0 0 2.987 2.804l.551-.861c-1.788-.618-3.055-2.165-3.045-3.838v-1.547h-1.054v1.508c-.01 1.886-1.228 3.529-3.084 4.187l.599.851a5.163 5.163 0 0 0 3.046-3.104zm-1.683 3.925v3.771h8.151v-.889h-7.058v-2.882h-1.093zm23.203-5.134v-2.977h-1.073v6.893h1.073v-3.016h1.828v-.9h-1.828zm-2.407 1.905c-1.624.324-3.017.411-5.453.406v-3.587h4.312v-.88h-5.376v5.357h.938c2.553 0 4.003-.068 5.714-.416l-.135-.88zm2.407 7.097v-4.448h-7.676v4.448h7.676zm-1.063-3.578v2.708h-5.56v-2.708h5.56zm9.721-1.324h3.703v-6.217h-1.064v2.195h-6.313v-2.195h-1.073v6.217h3.683v2.62h-4.998v.899h11.128v-.899h-5.066v-2.62zm2.639-3.142v2.262h-6.313v-2.262h6.313zm7.43-2.572v-1.47h-1.063v1.47h-2.959v.87h6.884v-.87h-2.862zm2.852 2.446h2.118v1.479h-2.127v.89h2.127v1.682h1.073v-7.86h-1.073v2.919h-2.118v.89zm-.618 1.305c-.01-1.363-1.151-2.253-2.775-2.253-1.644 0-2.765.89-2.756 2.253-.009 1.354 1.112 2.243 2.756 2.243 1.624 0 2.765-.889 2.775-2.243zm-4.525 0c-.01-.86.686-1.431 1.75-1.44 1.044.009 1.759.58 1.769 1.44-.01.851-.725 1.421-1.769 1.421-1.064 0-1.76-.57-1.75-1.421zm4.331 2.862c-2.552 0-4.09.754-4.09 2.079 0 1.305 1.538 2.069 4.09 2.069 2.533 0 4.071-.764 4.071-2.069 0-1.325-1.538-2.079-4.071-2.079zm0 3.307c-1.846.009-2.978-.455-2.978-1.228 0-.793 1.132-1.238 2.978-1.238 1.818 0 2.939.445 2.939 1.238 0 .773-1.121 1.237-2.939 1.228zm17.837-.242-3.625-9.901h-1.296L330.966 419h1.296l.986-2.785h3.984l.986 2.785h1.295zm-4.312-8.305h.077l1.572 4.438h-3.22l1.571-4.438zm5.499-1.596V419h1.179v-9.901H340.7zm3.048 0V419h1.18v-9.901h-1.18zm7.162 1.248c.445 0 .822-.348.822-.783 0-.436-.377-.784-.822-.784-.454 0-.831.348-.831.784 0 .435.377.783.831.783zm.58 8.653v-7.425h-1.179V419h1.179zm3.049-4.457c0-1.286.793-2.011 1.876-2.011 1.054 0 1.682.686 1.682 1.837V419h1.18v-4.718c0-1.886-1.006-2.804-2.514-2.804-1.122 0-1.818.503-2.166 1.266h-.096v-1.169h-1.141V419h1.179v-4.457zm13.163 4.612c2.021 0 3.375-1.528 3.375-3.829 0-2.32-1.354-3.848-3.375-3.848-2.02 0-3.384 1.528-3.384 3.848 0 2.301 1.364 3.829 3.384 3.829zm0-1.045c-1.508 0-2.204-1.305-2.204-2.784 0-1.479.696-2.804 2.204-2.804 1.499 0 2.195 1.325 2.195 2.804 0 1.479-.696 2.784-2.195 2.784zm6.087-3.567c0-1.286.793-2.011 1.876-2.011 1.054 0 1.682.686 1.682 1.837V419h1.18v-4.718c0-1.886-1.006-2.804-2.514-2.804-1.122 0-1.818.503-2.166 1.266h-.096v-1.169h-1.141V419h1.179v-4.457zm12.831.648c0-2.756-1.644-3.713-3.21-3.713-2.011 0-3.355 1.586-3.355 3.867 0 2.282 1.324 3.81 3.471 3.81 1.527 0 2.629-.764 2.978-1.895h-1.257c-.271.464-.832.85-1.721.85-1.32 0-2.234-.86-2.287-2.426h5.381v-.493zm-5.381-.513c.077-1.141.89-2.156 2.18-2.156 1.218 0 2.002.919 2.002 2.156h-4.182zm13.771-5.579h-3.201V419h3.075c3.016 0 4.718-1.876 4.718-4.97 0-3.074-1.702-4.931-4.592-4.931zm-1.973 8.808v-7.715h1.895c2.301 0 3.471 1.45 3.471 3.838 0 2.408-1.17 3.877-3.596 3.877h-1.77zm14.432-2.716c0-2.756-1.643-3.713-3.21-3.713-2.011 0-3.355 1.586-3.355 3.867 0 2.282 1.325 3.81 3.471 3.81 1.528 0 2.63-.764 2.978-1.895h-1.257c-.27.464-.831.85-1.721.85-1.32 0-2.233-.86-2.286-2.426h5.38v-.493zm-5.38-.513c.077-1.141.889-2.156 2.18-2.156 1.218 0 2.001.919 2.001 2.156h-4.181zm6.824-.454v1.083h4.341v-1.083h-4.341zM416.43 419v-4.419h4.283v-1.082h-4.283v-3.307h4.728v-1.093h-5.956V419h1.228zm7.01-8.653c.444 0 .821-.348.821-.783 0-.436-.377-.784-.821-.784-.455 0-.832.348-.832.784 0 .435.377.783.832.783zm.58 8.653v-7.425h-1.18V419h1.18zm2.198-9.891-.754 3.722h1.015l1.054-3.722h-1.315zm6.903 2.427v.831h8.905v-.831h-1.828v-2.359h1.866v-.841h-8.982v.841h1.876v2.359h-1.837zm2.901 0v-2.359h3.103v2.359h-3.103zm-3.974 2.726h11.08v-.87h-11.08v.87zm9.649 3.732v-2.649h-8.305v.812h7.251v1.054h-7.222v2.766h8.643v-.832h-7.589v-1.151h7.222zm11.751-5.955v4.215h1.016v-8.286h-1.016v3.181h-1.711V408.2h-1.005v7h1.005v-3.161h1.711zm-3.432 1.721c-1.445.295-2.668.367-4.264.377v-1.828h3.529v-3.393h-4.602v.889h3.578v1.692h-3.549v3.5h.793c1.779 0 3.065-.058 4.631-.377l-.116-.86zm.928 1.914h-1.073v.319c-.01 1.605-2.059 2.901-4.177 3.22l.435.841c1.799-.305 3.534-1.238 4.279-2.601.739 1.363 2.47 2.296 4.278 2.601l.435-.841c-2.127-.319-4.177-1.615-4.177-3.22v-.319zm-245.728 21.012h3.916v-.889h-1.827v-2.562h1.866v-.88h-8.982v.88h1.875v2.562h-1.837v.889h3.916v1.412h-4.989v.87h11.08v-.87h-5.018v-1.412zm1.016-3.451v2.562h-3.104v-2.562h3.104zm2.639 10.713v-3.81h-8.363v3.81h8.363zm-1.044-2.969v2.089h-6.256v-2.089h6.256zm12.322-9.02v12.172h1.073v-12.172h-1.073zm-4.921.889c-1.915 0-3.288 1.16-3.278 2.852-.01 1.692 1.363 2.852 3.278 2.852 1.914 0 3.268-1.16 3.277-2.852-.009-1.692-1.363-2.852-3.277-2.852zm0 .938c1.286 0 2.223.783 2.223 1.914 0 1.131-.937 1.915-2.223 1.915-1.296 0-2.234-.784-2.224-1.915-.01-1.131.928-1.914 2.224-1.914zm-3.761 7.667c2.194 0 5.182-.01 7.966-.532l-.087-.793c-2.687.397-5.781.416-8.024.407l.145.918zm23.348-2.62h2.088v-.89h-1.905v-3.964h1.934v-.889h-9.079v.889h1.924v3.964h-1.904v.89h2.098v2.9h-3.104v.89h11.129v-.89h-3.181v-2.9zm-.871-4.854v3.964h-3.103v-3.964h3.103zm-.203 4.854v2.9h-2.697v-2.9h2.697zm6.309-1.508c1.967-.286 3.794-1.262 4.457-2.683.657 1.421 2.489 2.397 4.457 2.683l.416-.851c-2.147-.29-4.187-1.509-4.177-2.997v-.029h3.848v-.88h-9.069v.88h3.829v.029c0 1.488-2.021 2.707-4.167 2.997l.406.851zm-1.103 1.779h5.115v2.484h1.064v-2.484h4.95v-.89h-11.129v.89zm1.431 1.276v3.461h8.46v-.889h-7.386v-2.572h-1.074zm19.632-8.421v12.172h1.073v-12.172h-1.073zm-5.386.937c-1.817.01-3.103 1.654-3.103 4.235 0 2.591 1.286 4.235 3.103 4.235 1.799 0 3.104-1.644 3.104-4.235 0-2.581-1.305-4.225-3.104-4.235zm0 .958c1.219.009 2.06 1.305 2.06 3.277 0 1.982-.841 3.278-2.06 3.278-1.218 0-2.069-1.296-2.069-3.278 0-1.972.851-3.268 2.069-3.277zm17.437 10.277h1.073v-12.172h-1.073v12.172zm-4.312-6.033h2.659v-.889h-5.192v-3.22h5.143v-.87h-6.197v4.979h2.514v2.422c-1.209.034-2.384.044-3.442.044l.145.908c2.33 0 5.269-.048 7.967-.444l-.088-.803c-1.126.131-2.32.208-3.509.261v-2.388zm16.189-3.703c-.009 1.46-.009 3.162-.464 5.482l1.083.126c.445-2.446.445-4.109.454-5.608v-1.209h-8.566v.89h7.493v.319zm-3.268 2.756h-1.063v4.341h-4.341v.899h11.08v-.899h-5.676v-4.341zm16.103-.281v-4.911h-1.074v12.153h1.074v-6.323h2.03v-.919h-2.03zm-5.299-2.765h2.736v-.899h-6.613v.899h2.823v1.586c-.009 2.069-1.508 4.379-3.258 5.23l.648.851c1.363-.696 2.581-2.267 3.147-4.046.546 1.643 1.702 3.074 3.06 3.746l.619-.85c-1.76-.842-3.171-2.988-3.162-4.931v-1.586zm15.691-.89v-1.372h-1.064v1.372h-3.094v.88h7.242v-.88h-3.084zm5.318 1.857v-3.113h-1.074v7.058h1.074v-3.036h1.827v-.909h-1.827zm-5.85 3.848c1.74.01 2.91-.832 2.92-2.127-.01-1.296-1.18-2.127-2.92-2.127-1.769 0-2.939.831-2.929 2.127-.01 1.295 1.16 2.137 2.929 2.127zm-1.905-2.127c-.009-.783.755-1.315 1.905-1.305 1.131-.01 1.895.522 1.905 1.305-.01.793-.774 1.315-1.905 1.315-1.15 0-1.914-.522-1.905-1.315zm1.132 4.061v-1.306h-1.064v4.4h7.687v-4.4h-1.074v1.306h-5.549zm0 2.223v-1.373h5.549v1.373h-5.549zm18.171 1.035h1.064v-12.153h-1.064v12.153zm-7.106-10.955h-1.054v7.822h.986c1.943 0 3.867-.154 6.024-.599l-.145-.919c-2.045.431-3.955.576-5.811.58v-6.884zm19.66 3.607v-4.805h-1.073v12.172h1.073v-6.468h2.031v-.899h-2.031zm-7.802-2.736h4.602v-.88h-5.676v7.938h.958c2.31 0 3.906-.068 5.81-.406l-.135-.929c-1.803.334-3.36.421-5.559.426v-6.149zm11.78 9.049c.484 0 .88-.396.88-.879a.883.883 0 0 0-.88-.88.877.877 0 0 0-.88.88.877.877 0 0 0 .88.879zM108.522 481.938c.29-1.436.29-2.533.29-3.471v-.919h-8.257v.88h7.193v.039c0 .362 0 .735-.014 1.141l-7.469.222.135.861 7.281-.315c-.044.469-.116.982-.237 1.562h-8.29v.88h11.06v-.88h-1.692zm.377 4.863v-2.813h-8.45v.841h7.386v1.15h-7.357v2.969h8.856v-.861h-7.783v-1.286h7.348zm11.703 2.311h1.025v-12.153h-1.025v12.153zm-4.022-7.774v.88h1.547v6.246h1.015v-11.206h-1.015v4.08h-1.547zm-3.887 1.161h3.297v-4.187h-4.36v.89h3.326v2.417h-3.307v4.496h.812c1.538-.01 2.93-.049 4.661-.358l-.078-.89c-1.624.286-2.949.334-4.351.339v-2.707zm19.593-5.54v12.172h1.073v-12.172h-1.073zm-5.385.937c-1.818.01-3.104 1.654-3.104 4.235 0 2.591 1.286 4.235 3.104 4.235 1.798 0 3.103-1.644 3.103-4.235 0-2.581-1.305-4.225-3.103-4.235zm0 .958c1.218.009 2.059 1.305 2.059 3.277 0 1.982-.841 3.278-2.059 3.278-1.219 0-2.069-1.296-2.069-3.278 0-1.972.85-3.268 2.069-3.277zm21.066 3.21h-2.04v.899h2.04v6.149h1.064v-12.153h-1.064v5.105zm-4.863-3.152v-1.808h-1.073v1.808h-3.075v.889h7.232v-.889h-3.084zm-.522 1.895c-1.663 0-2.872 1.16-2.872 2.794 0 1.614 1.209 2.784 2.872 2.784 1.643 0 2.842-1.17 2.852-2.784-.01-1.634-1.209-2.794-2.852-2.794zm0 4.65c-1.074.01-1.876-.764-1.866-1.856-.01-1.083.792-1.866 1.866-1.876 1.063.01 1.866.793 1.866 1.876 0 1.092-.803 1.866-1.866 1.856zm9.789-7.628v6.323h8.45v-6.323h-1.064v2.272h-6.313v-2.272h-1.073zm1.073 3.132h6.313v2.33h-6.313v-2.33zm-2.388 5.627v.9h11.128v-.9h-11.128zm14.671-5.946v-3.239h-1.064v4.109h8.315v-.87h-7.251zm-2.591 3.394h11.128v-.87h-11.128v.87zm1.45 1.237v3.539h8.47v-.889h-7.406v-2.65h-1.064zm23.155 3.839h1.073v-12.153h-1.073v12.153zm-8.257-10.829v.87h4.641c-.237 2.901-1.915 5.241-5.202 6.797l.58.88c4.08-1.963 5.705-5.057 5.714-8.547h-5.733zm12.467 4.071c1.968-.3 3.795-1.281 4.457-2.708.658 1.427 2.49 2.408 4.457 2.708l.416-.871c-2.146-.28-4.186-1.508-4.177-3.006v-.029h3.848v-.89h-9.069v.89h3.829v.029c0 1.498-2.021 2.726-4.167 3.006l.406.871zm4.979-.871h-1.054v2.031h-5.008v.889h11.109v-.889h-5.047v-2.031zm-4.631 3.907v3.451h8.412v-.889h-7.329v-2.562h-1.083zm23.522-3.307c.329-1.518.329-2.63.329-3.577v-.9h-8.257v.89h7.193v.01c0 .952 0 2.049-.343 3.577h-8.262v.889h11.129v-.889h-1.789zm.377 6.865v-4.303h-8.344v4.303h8.344zm-1.063-3.452v2.572h-6.227v-2.572h6.227zm8.976-3.761c2.65 0 4.293-.832 4.293-2.253 0-1.441-1.643-2.282-4.293-2.282-2.658 0-4.302.841-4.302 2.282 0 1.421 1.644 2.253 4.302 2.253zm0-3.674c1.953 0 3.201.522 3.201 1.421 0 .89-1.248 1.412-3.201 1.412-1.962 0-3.2-.522-3.19-1.412-.01-.899 1.228-1.421 3.19-1.421zm5.55 4.592h-11.08v.88h2.804v1.653c-.948.358-1.47.953-1.47 1.75 0 1.383 1.567 2.157 4.196 2.166 2.611-.009 4.177-.783 4.187-2.166-.005-.778-.508-1.363-1.412-1.725v-1.678h2.775v-.88zm-3.848 2.268a10.065 10.065 0 0 0-1.702-.131c-.609 0-1.165.044-1.653.121v-1.378h3.355v1.388zm1.412 2.015c-.01.842-1.18 1.315-3.114 1.306-1.943.009-3.113-.464-3.103-1.306-.01-.831 1.16-1.314 3.103-1.324 1.934.01 3.104.493 3.114 1.324zm12.399-9.977v12.172h1.073v-12.172h-1.073zm-5.385.937c-1.818.01-3.104 1.654-3.104 4.235 0 2.591 1.286 4.235 3.104 4.235 1.798 0 3.103-1.644 3.103-4.235 0-2.581-1.305-4.225-3.103-4.235zm0 .958c1.218.009 2.059 1.305 2.059 3.277 0 1.982-.841 3.278-2.059 3.278-1.219 0-2.069-1.296-2.069-3.278 0-1.972.85-3.268 2.069-3.277zm21.385 3.229h-1.615v-4.834h-1.015v11.263h1.015v-5.54h1.615v6.14h1.025v-12.153h-1.025v5.124zm-6.836-4.757v1.731h-2.523v.879h6.101v-.879h-2.504v-1.731h-1.074zm.532 3.432c-1.518 0-2.62 1.141-2.61 2.756-.01 1.634 1.092 2.784 2.61 2.784 1.528 0 2.62-1.15 2.63-2.784-.01-1.615-1.102-2.756-2.63-2.756zm0 4.602c-.967.01-1.663-.763-1.663-1.846 0-1.064.696-1.847 1.663-1.857.967.01 1.673.793 1.673 1.857 0 1.083-.706 1.856-1.673 1.846zm18.075-5.772v1.46h-3.249v.851h3.249v1.276h1.073v-6.216h-1.073v1.769h-2.814c.078-.368.116-.754.116-1.16h-5.482v.889h4.293c-.193 1.958-1.929 3.408-4.911 4.1l.386.889c2.698-.643 4.583-1.943 5.342-3.858h3.07zm-5.714 7.097h6.787v-2.958h-7.88v.87h6.807v1.266h-6.778v3.133h8.267v-.88h-7.203v-1.431zm18.22-4.718v-5.008h-1.064v12.153h1.064v-6.246h2.03v-.899h-2.03zm-6.353-4.863v1.808h-3.123v.889h7.232v-.889h-3.035v-1.808h-1.074zm.551 3.703c-1.73 0-2.987 1.15-2.977 2.794-.01 1.643 1.247 2.784 2.977 2.784 1.721 0 2.969-1.141 2.978-2.784-.009-1.644-1.257-2.794-2.978-2.794zm0 4.67c-1.131.009-1.962-.774-1.953-1.876-.009-1.102.822-1.895 1.953-1.895 1.122 0 1.944.793 1.953 1.895-.009 1.102-.831 1.885-1.953 1.876zm17.437 3.635h1.073v-12.153h-1.073v12.153zm-4.592-10.007h2.89v-.899h-6.845v.899h2.872v1.586c-.01 2.098-1.528 4.399-3.268 5.23l.638.851c1.387-.696 2.615-2.243 3.186-4.022.57 1.677 1.793 3.075 3.214 3.722l.6-.85c-1.789-.774-3.287-2.872-3.287-4.931v-1.586zm17.334 2.436h3.587v-4.07h-8.228v4.07h3.587v1.441h-5.018v.88h11.08v-.88h-5.008v-1.441zm2.523-3.21v2.34h-6.11v-2.34h6.11zm-2.523 6.295h-1.083v.415c0 1.625-1.943 2.824-4.129 3.143l.407.851c1.846-.31 3.538-1.175 4.268-2.505.725 1.33 2.412 2.195 4.259 2.505l.426-.851c-2.214-.319-4.148-1.518-4.148-3.143v-.415zm15.435-2.659v-5.008h-1.063v12.153h1.063v-6.246h2.03v-.899h-2.03zm-6.352-4.863v1.808h-3.123v.889h7.232v-.889h-3.036v-1.808h-1.073zm.551 3.703c-1.731 0-2.988 1.15-2.978 2.794-.01 1.643 1.247 2.784 2.978 2.784 1.721 0 2.968-1.141 2.978-2.784-.01-1.644-1.257-2.794-2.978-2.794zm0 4.67c-1.131.009-1.963-.774-1.953-1.876-.01-1.102.822-1.895 1.953-1.895 1.121 0 1.943.793 1.953 1.895-.01 1.102-.832 1.885-1.953 1.876zm11.065-4.835v-3.239h-1.064v4.109h8.315v-.87h-7.251zm-2.591 3.394h11.128v-.87h-11.128v.87zm1.45 1.237v3.539h8.47v-.889H324.9v-2.65h-1.064zm23.59-3.383v-4.931h-1.073v12.153h1.073v-6.294h2.03v-.928h-2.03zm-5.327-3.878h-1.064v2.215c-.01 2.214-1.421 4.544-3.191 5.424l.677.86c1.368-.735 2.519-2.267 3.06-4.061.542 1.687 1.658 3.128 2.993 3.829l.667-.86c-1.731-.851-3.152-3.056-3.142-5.192v-2.215zm17.523 2.031v-3.084h-1.073v7.135h1.073v-3.133h1.828v-.918h-1.828zm-3.335-2.311h-5.637v.89h4.491c-.218 2.059-2.055 3.688-5.042 4.495l.445.832c3.587-.948 5.733-3.142 5.743-6.217zm2.262 7.793v3.587h1.073v-4.467h-7.957v.88h6.884zm12.612 3.587h1.073v-12.153h-1.073v12.153zm-4.592-10.007h2.89v-.899h-6.845v.899h2.872v1.586c-.01 2.098-1.528 4.399-3.268 5.23l.638.851c1.387-.696 2.615-2.243 3.186-4.022.57 1.677 1.793 3.075 3.214 3.722l.6-.85c-1.789-.774-3.287-2.872-3.287-4.931v-1.586zm17.107 2.736h-1.779v-4.612h-.995v11.245h.995v-5.743h1.779v6.381h1.025v-12.153h-1.025v4.882zm-7.841-2.514h3.481v-.879h-4.554v7.657h.783c1.866-.01 3.104-.058 4.564-.367l-.097-.9c-1.344.276-2.499.344-4.177.348v-5.859zm12.013-.222v2.581h8.46v-.783h-7.397v-1.063h7.184v-2.514h-8.286v.773h7.213v1.006h-7.174zm-1.45 4.341h11.128v-.841h-11.128v.841zm9.736 3.558v-2.581h-8.392v.802h7.328v1.035h-7.309v2.688h8.769v-.784h-7.696v-1.16h7.3zm15.4-7.367v-2.678h-1.073v6.487h1.073v-2.9h1.828v-.909h-1.828zm-4.389-2.098v1.788h-3.539v-1.788h-1.054v5.346h5.656v-5.346h-1.063zm-3.539 4.486v-1.866h3.539v1.866h-3.539zm.735 4.853h2.91v-2.765h-3.983v.841h2.949v1.132h-2.92v2.891h.715c1.973 0 2.93-.039 4.167-.281l-.125-.822c-1.103.228-2.016.266-3.713.271v-1.267zm6.13-1.895v4.081h1.063v-4.951h-3.751v.87h2.688zm12.67-3.983h-2.06v.89h2.06v2.136h-2.05v.88h2.05v4.206h1.063v-12.153h-1.063V481zm-4.844-2.088v-1.818h-1.093v1.818h-3.074v.889h7.184v-.889h-3.017zm-.541 1.895c-1.654 0-2.843 1.15-2.833 2.794-.01 1.634 1.179 2.784 2.833 2.784 1.633 0 2.832-1.15 2.842-2.784-.01-1.644-1.209-2.794-2.842-2.794zm0 4.65c-1.083.01-1.876-.764-1.867-1.856-.009-1.083.784-1.866 1.867-1.876 1.073.01 1.866.793 1.866 1.876 0 1.092-.793 1.866-1.866 1.856zm23.116-3.567h-1.765c.305-1.465.305-2.558.305-3.462v-.88h-8.257v.88h7.193c0 .904 0 1.977-.314 3.462h-8.291v.879h5.008v2.243h-3.857v.88h7.512v3.22h1.083v-4.1h-3.674v-2.243h5.057v-.879zm-330.253 23.201v1.644h-3.238v.889h3.238v1.644h1.074v-7.3h-1.074v2.263h-2.837c.096-.431.15-.89.15-1.364h-5.531v.9h4.37c-.222 2.107-2.059 3.761-4.989 4.621l.445.851c2.611-.769 4.486-2.185 5.284-4.148h3.108zm-2.9 4.303c-2.495 0-4.071.87-4.071 2.32 0 1.46 1.576 2.34 4.071 2.34 2.456 0 4.041-.88 4.041-2.34 0-1.45-1.585-2.32-4.041-2.32zm0 3.79c-1.837 0-3.007-.551-3.007-1.47 0-.918 1.17-1.47 3.007-1.46 1.798-.01 2.968.542 2.978 1.46-.01.919-1.18 1.47-2.978 1.47zm15.377-6.14v-5.085h-1.073v12.153h1.073v-6.14h1.973v-.928h-1.973zm-2.997 1.712c.348-2.253.348-3.858.358-4.815v-.639h-6.179v.88h5.105c0 .967-.029 2.451-.357 4.487l1.073.087zm-2.823-1.983h-1.064v3.728c-.933.024-1.822.029-2.62.034l.135.899c2.176.009 5.038-.049 7.59-.445l-.058-.812c-1.262.154-2.639.242-3.983.295v-3.699zm21.018-4.805v8.886h1.073v-8.886h-1.073zm-5.492 6.817c1.818.009 3.181-1.219 3.181-2.988 0-1.75-1.363-2.978-3.181-2.978s-3.191 1.228-3.191 2.978c0 1.769 1.373 2.997 3.191 2.988zm-2.137-2.988c-.009-1.189.909-2.04 2.137-2.04 1.209 0 2.137.851 2.137 2.04 0 1.209-.928 2.05-2.137 2.05-1.228 0-2.146-.841-2.137-2.05zm1.924 4.148h-1.073v3.896h8.228v-.889h-7.155v-3.007zm9.857-3.065c1.996-.247 3.853-1.122 4.525-2.461.667 1.339 2.528 2.214 4.525 2.461l.396-.851c-2.127-.227-4.158-1.276-4.225-2.63h3.848v-.87h-9.069v.87h3.829c-.078 1.363-2.108 2.403-4.226 2.63l.397.851zm5.047-.609h-1.054v1.74h-5.008v.89h11.08v-.89h-5.018v-1.74zm-.532 3.625c-2.63 0-4.196.745-4.196 2.098 0 1.344 1.566 2.089 4.196 2.089 2.62 0 4.177-.745 4.186-2.089-.009-1.353-1.566-2.098-4.186-2.098zm0 3.346c-1.963.009-3.113-.455-3.104-1.248-.009-.802 1.141-1.256 3.104-1.256 1.953 0 3.104.454 3.113 1.256-.009.793-1.16 1.257-3.113 1.248zm7.246-1.17-.754 3.722h1.015l1.054-3.722h-1.315zm15.84-5.202v-4.911h-1.073v12.153h1.073v-6.323h2.03v-.919h-2.03zm-5.298-2.765h2.736v-.899h-6.613v.899h2.823v1.586c-.01 2.069-1.508 4.379-3.258 5.23l.647.851c1.364-.696 2.582-2.267 3.147-4.046.547 1.643 1.702 3.074 3.061 3.746l.618-.85c-1.759-.842-3.171-2.988-3.161-4.931v-1.586zm16.992.039h-2.746c.101-.431.154-.89.154-1.364h-5.598v.88h4.448c-.218 2.079-2.103 3.708-5.066 4.525l.415.861c2.63-.721 4.54-2.103 5.357-4.023h3.036v1.683h-3.23v.889h3.23v1.615h1.073v-7.242h-1.073v2.176zm0 6.468v3.481h1.073v-4.342h-8.18v.861h7.107zm8.628-4.216c2.707-.009 4.293-.754 4.293-2.127 0-1.353-1.586-2.098-4.293-2.098s-4.302.745-4.302 2.098c0 1.373 1.595 2.118 4.302 2.127zm0-3.413c2.021 0 3.2.484 3.2 1.286 0 .841-1.179 1.306-3.2 1.306-2.011 0-3.19-.465-3.181-1.306-.009-.802 1.17-1.286 3.181-1.286zm-5.53 5.105h11.08v-.87h-11.08v.87zm9.649 3.771v-2.717h-8.305v.822h7.251v1.102h-7.222v2.911h8.643v-.851h-7.589v-1.267h7.222zm15.372-4.96v-4.94h-1.074v12.143h1.074v-6.294h1.972v-.909h-1.972zm-8.76-3.635v.899h4.525c-.242 2.886-1.953 5.226-5.096 6.787l.6.841c3.964-1.953 5.579-5.085 5.588-8.527H201.1zm20.424 10.867h1.064v-12.172h-1.064v12.172zm-7.164-6.719h4.534v-4.322h-5.656v.889h4.573v2.553h-4.554v4.65h1.016c2.098 0 3.944-.087 6.178-.444l-.106-.9c-2.176.353-3.969.44-5.985.445v-2.871zm19.235 6.7h1.073v-12.153h-1.073v12.153zm-4.593-10.007h2.891v-.899h-6.845v.899h2.871v1.586c-.009 2.098-1.527 4.399-3.268 5.23l.638.851c1.388-.696 2.616-2.243 3.186-4.022.571 1.677 1.794 3.075 3.215 3.722l.599-.85c-1.788-.774-3.287-2.872-3.287-4.931v-1.586zm20.767-2.146h-1.073v6.071h1.073v-2.436h1.827v-.899h-1.827v-2.736zm-2.959 3.5c0-1.644-1.334-2.804-3.152-2.804-1.817 0-3.171 1.16-3.161 2.804-.01 1.653 1.344 2.803 3.161 2.813 1.818-.01 3.152-1.16 3.152-2.813zm-5.26 0c-.009-1.103.909-1.905 2.108-1.905s2.108.802 2.108 1.905c0 1.111-.909 1.924-2.108 1.924s-2.117-.813-2.108-1.924zm5.85 2.871v1.073h-2.562v.841h6.149v-.841h-2.533v-1.073H247.4zm-4.796 1.015h-1.044v4.438h.58c.793 0 1.944-.048 3.133-.445l-.174-.86c-.856.29-1.794.387-2.495.416v-3.549zm5.308 1.306c-1.344 0-2.272.667-2.262 1.721-.01 1.053.918 1.711 2.262 1.711 1.325 0 2.263-.658 2.272-1.711-.009-1.054-.947-1.721-2.272-1.721zm0 2.658c-.763 0-1.305-.367-1.305-.937 0-.561.542-.938 1.305-.948.755.01 1.296.387 1.296.948 0 .57-.541.937-1.296.937zm13.125-8.914c-.01 1.46-.01 3.162-.464 5.482l1.083.126c.444-2.446.444-4.109.454-5.608v-1.209h-8.566v.89h7.493v.319zm-3.268 2.756h-1.064v4.341h-4.341v.899h11.08v-.899h-5.675v-4.341zm16.271-.61h3.722v-.87h-7.319v-2.281h7.242v-.861h-8.306v4.012h3.616v1.422h-5.018v.87h11.09v-.87h-5.027v-1.422zm-.532 3.181c-2.62 0-4.196.793-4.196 2.185 0 1.402 1.576 2.186 4.196 2.195 2.61-.009 4.177-.793 4.186-2.195-.009-1.392-1.576-2.185-4.186-2.185zm0 3.52c-1.944.009-3.113-.484-3.104-1.335-.009-.841 1.16-1.343 3.104-1.343 1.934 0 3.103.502 3.113 1.343-.01.851-1.179 1.344-3.113 1.335zm9.035-7.542v-2.359h7.241v-.889h-8.305v4.128h8.383v-.88h-7.319zm-2.466 2.94h11.09v-.9h-11.09v.9zm5.53 1.063c-2.62 0-4.196.793-4.196 2.195 0 1.402 1.576 2.185 4.196 2.185 2.611 0 4.177-.783 4.187-2.185-.01-1.402-1.576-2.195-4.187-2.195zm0 3.529c-1.943 0-3.113-.483-3.103-1.334-.01-.851 1.16-1.344 3.103-1.354 1.934.01 3.104.503 3.114 1.354-.01.851-1.18 1.334-3.114 1.334zm10.756-9.775v-1.489H295.3v1.489h-3.094v.88h7.241v-.88h-3.084zm5.318-1.489h-1.073v9.108h1.073v-4.196h1.827v-.909h-1.827v-4.003zm-2.93 5.308c-.009-1.382-1.189-2.272-2.92-2.272-1.759 0-2.939.89-2.929 2.272-.01 1.364 1.17 2.243 2.929 2.243 1.731 0 2.911-.879 2.92-2.243zm-4.824 0c-.01-.87.754-1.431 1.904-1.431 1.132 0 1.895.561 1.905 1.431-.01.851-.773 1.402-1.905 1.393-1.15.009-1.914-.542-1.904-1.393zm.145 3.065v3.5h8.17v-.889h-7.107v-2.611h-1.063zm22.69 3.771h1.074v-12.153h-1.074v12.153zm-8.257-10.829v.87h4.641c-.237 2.901-1.914 5.241-5.201 6.797l.58.88c4.08-1.963 5.704-5.057 5.714-8.547h-5.734zm20.28 10.829h1.073v-12.153h-1.073v12.153zm-4.293-10.655v-1.489h-1.073v1.489h-3.201v.87h7.445v-.87h-3.171zm0 6.028c1.445-.164 2.388-.995 2.388-2.199 0-1.373-1.189-2.263-2.949-2.263-1.75 0-2.92.89-2.91 2.263-.01 1.218.938 2.05 2.398 2.209v1.32c-1.233.039-2.422.048-3.462.058l.165.909c2.252 0 5.23-.039 7.947-.474l-.087-.822a42.382 42.382 0 0 1-3.49.29v-1.291zm-2.466-2.199c-.009-.851.783-1.421 1.905-1.421 1.141 0 1.924.57 1.924 1.421 0 .841-.783 1.392-1.924 1.383-1.122.009-1.914-.542-1.905-1.383zm11.394-3.181v2.581h8.46v-.783h-7.396v-1.063h7.183v-2.514h-8.286v.773h7.213v1.006h-7.174zm-1.45 4.341h11.128v-.841H331.97v.841zm9.736 3.558v-2.581h-8.392v.802h7.329v1.035h-7.31v2.688h8.769v-.784h-7.696v-1.16h7.3zm14.501-9.543v1.683h-6.129v-1.683h-1.064v5.231h8.267v-5.231h-1.074zm-6.129 4.361v-1.808h6.129v1.808h-6.129zm-2.495 2.349v.87h5.008v4.071h1.054v-4.071h5.067v-.87h-11.129zm21.13-4.496h-3.195c-.522-1.121-1.431-1.774-2.548-1.779-1.798.01-3.055 1.654-3.046 4.235-.009 2.591 1.248 4.235 3.046 4.235 1.175 0 2.117-.72 2.625-1.953h3.118v4.718h1.064v-12.172h-1.064v2.716zm-5.743 5.734c-1.199 0-2.021-1.296-2.021-3.278 0-1.972.822-3.268 2.021-3.277 1.189.009 2.021 1.305 2.021 3.277 0 1.982-.832 3.278-2.021 3.278zm2.896-1.886c.092-.425.14-.889.14-1.392 0-.565-.063-1.087-.179-1.556h2.886v2.948h-2.847zm10.122-5.462v-1.228h-1.063v1.228h-3.094v.86h7.241v-.86h-3.084zm5.318-1.151h-1.073v6.73h1.073v-2.882h1.837v-.889h-1.837v-2.959zm-2.93 4.554c-.009-1.228-1.16-1.992-2.92-1.992-1.779 0-2.939.764-2.929 1.992-.01 1.238 1.15 1.992 2.929 1.992 1.76 0 2.911-.754 2.92-1.992zm-4.824 0c-.01-.725.744-1.199 1.904-1.199 1.141 0 1.895.474 1.905 1.199-.01.735-.764 1.189-1.905 1.189-1.16 0-1.914-.454-1.904-1.189zm7.754 5.501v-2.697h-7.754v.812h6.69v1.093h-6.661v2.804h8.17v-.832h-7.116v-1.18h6.671zm16.184-1.769v-8.228h-1.074v3.423h-2.668v.899h2.668v3.906h1.074zm-3.8-7.271h-5.473v.88h4.327c-.232 2.166-2.025 3.843-4.926 4.738l.474.86c3.5-1.121 5.588-3.364 5.598-6.478zm.387 6.208h-1.064v.56c-.01 1.789-1.972 3.152-4.119 3.52l.435.86c1.813-.362 3.481-1.315 4.216-2.75.72 1.426 2.373 2.378 4.167 2.721l.454-.86c-2.146-.387-4.089-1.721-4.089-3.491v-.56zm14.4-7.174v6.516h1.073v-6.516h-1.073zm-5.491.589c-1.847-.009-3.191 1.132-3.191 2.795 0 1.653 1.344 2.794 3.191 2.784 1.846.01 3.181-1.131 3.181-2.784 0-1.663-1.335-2.804-3.181-2.795zm0 .909c1.237-.009 2.136.774 2.136 1.886 0 1.111-.899 1.895-2.136 1.895-1.248 0-2.147-.784-2.137-1.895-.01-1.112.889-1.895 2.137-1.886zm-1.306 5.637v4.854h7.87v-4.854h-1.063v1.479h-5.753v-1.479h-1.054zm1.054 2.34h5.753v1.634h-5.753v-1.634zm17.833 2.678h1.064v-12.153h-1.064v12.153zm-7.106-10.955h-1.054v7.822h.986c1.944 0 3.868-.154 6.024-.599l-.145-.919c-2.045.431-3.955.576-5.811.58v-6.884zm19.66 3.607v-4.805h-1.073v12.172h1.073v-6.468h2.031v-.899h-2.031zm-7.802-2.736h4.602v-.88h-5.675v7.938h.957c2.311 0 3.906-.068 5.811-.406l-.136-.929c-1.803.334-3.36.421-5.559.426v-6.149zm11.78 9.049c.484 0 .88-.396.88-.879a.883.883 0 0 0-.88-.88.877.877 0 0 0-.88.88.877.877 0 0 0 .88.879z" fill="#DDDFE6"/>
    <path d="m261.915 616-3.989-11.315h-2.508L251.429 616h2.177l.939-2.801h4.26l.939 2.801h2.171zm-5.287-9.006h.088l1.536 4.57h-3.16l1.536-4.57zm11.961 5.437c.005 1.304-.928 1.939-1.812 1.939-.967 0-1.608-.679-1.608-1.757v-5.099h-1.989v5.403c0 2.039 1.16 3.193 2.829 3.193 1.276 0 2.166-.668 2.552-1.613h.089V616h1.922v-8.486h-1.983v4.917zm7.058 3.718c1.459 0 2.111-.867 2.431-1.486h.116V616h1.951v-11.315h-1.989v4.227h-.078c-.304-.608-.928-1.509-2.425-1.509-1.967 0-3.508 1.536-3.508 4.365 0 2.79 1.502 4.381 3.502 4.381zm.547-1.63c-1.32 0-2.022-1.165-2.022-2.762 0-1.586.685-2.718 2.022-2.718 1.293 0 2.011 1.066 2.011 2.718s-.729 2.762-2.011 2.762zm6.97-8.215c.625 0 1.15-.481 1.15-1.077 0-.603-.525-1.083-1.15-1.083-.64 0-1.16.48-1.16 1.083 0 .596.52 1.077 1.16 1.077zm.989 9.696v-8.486h-1.989V616h1.989zm5.382-1.558c-.508-.011-.912-.177-.912-.994v-4.398h1.669v-1.536h-1.669v-2.033h-1.989v2.033h-1.204v1.536h1.204v4.729c-.005 1.597 1.149 2.337 2.647 2.337.508 0 .889-.044 1.127-.083v-1.63c-.249.017-.641.045-.873.039z" fill="#A5BCFF"/>
    <path d="M194 587h154v-2H194v2zm161 7v32h2v-32h-2zm-7 39H194v2h154v-2zm-161-7v-32h-2v32h2zm7 7a7 7 0 0 1-7-7h-2a9 9 0 0 0 9 9v-2zm161-7a7 7 0 0 1-7 7v2a9 9 0 0 0 9-9h-2zm-7-39a7 7 0 0 1 7 7h2a9 9 0 0 0-9-9v2zm-154-2a9 9 0 0 0-9 9h2a7 7 0 0 1 7-7v-2z" fill="#A5BCFF" fill-opacity=".2"/>
    <path d="M233.788 167v-3.008h3.291V167h1.274v-7.072h-1.274v2.997h-3.291v-2.997h-1.267V167h1.267zm11.881-7.072V167h1.268v-7.072h-1.268zm13.654 1.944c-.024-1.195-1.043-2.041-2.545-2.041-1.485 0-2.597.833-2.59 2.083-.003 1.015.718 1.602 1.882 1.899l.805.207c.759.197 1.27.435 1.274.984-.004.608-.58 1.015-1.419 1.015-.802 0-1.427-.362-1.482-1.101h-1.25c.055 1.402 1.098 2.189 2.742 2.189 1.695 0 2.679-.849 2.679-2.092 0-1.23-1.018-1.786-2.075-2.034l-.663-.166c-.583-.138-1.212-.387-1.205-.977 0-.536.48-.926 1.285-.926.766 0 1.274.353 1.336.96h1.226zm9.036-.873V167h1.264v-6.001h2.182v-1.071h-5.632v1.071h2.186zm16.453 2.465c0-2.286-1.395-3.633-3.246-3.633-1.861 0-3.246 1.347-3.246 3.633 0 2.279 1.385 3.633 3.246 3.633 1.851 0 3.246-1.347 3.246-3.633zm-1.281 0c0 1.616-.812 2.49-1.965 2.49-1.157 0-1.968-.874-1.968-2.49s.811-2.49 1.968-2.49c1.153 0 1.965.874 1.965 2.49zM297.342 167l-1.533-2.804c.835-.335 1.274-1.046 1.274-2.006 0-1.35-.867-2.262-2.493-2.262h-2.645V167h1.267v-2.593h1.319l1.388 2.593h1.423zm-2.946-6.008c.96 0 1.388.445 1.388 1.198 0 .753-.428 1.16-1.381 1.16h-1.191v-2.358h1.184zm11.598 3.363V167h1.267v-2.645l2.572-4.427h-1.436l-1.733 3.132h-.073l-1.733-3.132h-1.437l2.573 4.427z" fill="#DDDFE6"/>
    <path stroke="#DDDFE6" stroke-width=".5" d="M206 174.75h128"/>
    <g clip-path="url(#e)">
        <path d="M313.882 291.858h1.586c5.003-8.083 7.641-17.342 7.628-26.777 0-13.812-5.641-27.058-15.681-36.825-10.041-9.767-23.659-15.255-37.859-15.256-14.201.001-27.819 5.489-37.859 15.256-10.041 9.767-15.681 23.013-15.681 36.825-.012 9.682 2.768 19.175 8.023 27.399h1.591c-5.418-8.166-8.296-17.681-8.29-27.399.019-13.464 5.526-26.372 15.314-35.892 9.788-9.521 23.059-14.877 36.902-14.895 13.842.018 27.113 5.374 36.901 14.895 9.789 9.52 15.296 22.428 15.314 35.892.004 9.468-2.73 18.747-7.889 26.777z" fill="url(#f)"/>
        <path d="M309.496 289.236h1.435c4.506-7.28 6.882-15.618 6.872-24.116 0-12.438-5.08-24.367-14.122-33.162-9.043-8.796-21.308-13.737-34.096-13.737-12.789 0-25.053 4.941-34.096 13.737-9.043 8.795-14.123 20.724-14.123 33.162-.01 8.725 2.496 17.278 7.233 24.687h1.435c-4.898-7.353-7.509-15.925-7.517-24.687.01-12.135 4.971-23.771 13.794-32.352 8.823-8.581 20.785-13.406 33.262-13.417 12.477.011 24.44 4.836 33.262 13.417 8.823 8.581 13.784 20.217 13.795 32.352-.002 8.531-2.475 16.889-7.134 24.116z" fill="url(#g)"/>
        <path d="M333.843 286.637a7.59 7.59 0 0 0-.546-1.729l-.087-.203-.104-.203c-.07-.13-.14-.266-.21-.379l-.104-.17-.064-.101-.064-.091a3.264 3.264 0 0 0-.267-.344 4.14 4.14 0 0 0-1.342-1.012 4.276 4.276 0 0 0-1.511-.401 4.349 4.349 0 0 0-1.423.141l-.32.102-.313.13c-.105.045-.186.096-.273.141l-.128.074h-.035l-.064.045a1.98 1.98 0 0 0-.447.429 1.948 1.948 0 0 0-.36 1.509c.029.15.077.297.145.435l.046.102.053.085.052.084.07.085a.974.974 0 0 0 .656.339h.163a.687.687 0 0 0 .157 0l.139-.039.11-.057a.487.487 0 0 0 .256-.333.517.517 0 0 0-.029-.255.524.524 0 0 1-.041-.073.034.034 0 0 0-.017-.005.04.04 0 0 0-.018.005v.028l.035.074a.483.483 0 0 1 0 .214.376.376 0 0 1-.232.249l-.11.051h-.122a.457.457 0 0 1-.128 0h-.186a.775.775 0 0 1-.517-.311l-.052-.068-.041-.079-.047-.09-.029-.085a1.595 1.595 0 0 1 .041-1.232c.062-.146.148-.282.256-.401.107-.127.237-.235.383-.316l.052-.034h.035l.134-.068c.085-.047.175-.086.267-.119l.267-.096.285-.079c.41-.085.833-.102 1.249-.051.458.059.899.206 1.298.432s.747.527 1.026.885c.077.093.147.191.209.294l.052.079.047.079.098.175c.07.124.117.237.175.35l.081.175.07.187c.202.51.344 1.041.424 1.582a7.745 7.745 0 0 1-.256 3.475 6.461 6.461 0 0 1-2.01 3.125 6.186 6.186 0 0 1-1.743.972 7.225 7.225 0 0 1-2.021.418H325.803l-.54-.034h-.267l-.279-.04-.581-.067-.581-.096-.581-.113-.581-.125a32.679 32.679 0 0 1-4.532-1.52 60.887 60.887 0 0 1-4.525-2.102 166.542 166.542 0 0 1-4.543-2.413c-1.522-.836-3.062-1.695-4.648-2.48a33.417 33.417 0 0 0-2.416-1.13 22.689 22.689 0 0 0-1.255-.509l-.326-.113-.087-.028h-.081l-.157-.051-.645-.192a16.663 16.663 0 0 0-2.672-.565c-.455-.05-.913-.074-1.371-.073a9.2 9.2 0 0 0-1.377.113 6.607 6.607 0 0 0-2.08.683 12.511 12.511 0 0 0-2.579-1.605 9.193 9.193 0 0 0-3.904-.853 7.118 7.118 0 0 0-3.486.944 6.44 6.44 0 0 0-1.319 1.006 6.177 6.177 0 0 0-.923 1.22 5.133 5.133 0 0 0-.692 2.554c0 .381.047.76.14 1.13.076.32.183.632.319.933.215.47.494.909.831 1.305.204.242.426.471.662.684l.244.209a.042.042 0 0 0 .018.011.045.045 0 0 0 .02.004.052.052 0 0 0 .021-.004.045.045 0 0 0 .017-.011.056.056 0 0 0 .017-.04.052.052 0 0 0-.017-.039l-.215-.238a7.967 7.967 0 0 1-.581-.729 5.827 5.827 0 0 1-.656-1.299 4.71 4.71 0 0 1-.215-.882 4.749 4.749 0 0 1-.047-1.011 4.805 4.805 0 0 1 .744-2.204c.243-.375.534-.719.865-1.023.351-.322.742-.6 1.162-.83a6.529 6.529 0 0 1 3.085-.746 8.566 8.566 0 0 1 3.486.791c.771.347 1.505.77 2.19 1.26a5.211 5.211 0 0 0-1.435 1.797 5.944 5.944 0 0 0-.581 2.548 6.95 6.95 0 0 0 .471 2.52 6.342 6.342 0 0 0 1.365 2.148 5.012 5.012 0 0 0 2.283 1.271l.151.045.157.04.151.028h.163c.216.022.434.022.65 0 .43-.029.847-.153 1.22-.362.374-.208.691-.5.924-.853.225-.344.377-.728.447-1.13a5.026 5.026 0 0 0-.244-2.373 9.367 9.367 0 0 0-1.04-2.08 19.824 19.824 0 0 0-2.864-3.39l-.47-.407a5.928 5.928 0 0 1 1.743-.457 9.313 9.313 0 0 1 2.556.073c.853.133 1.692.337 2.509.61l.308.102.314.113.157.057.075.028h.07l.296.118c.401.159.79.339 1.162.532a56.8 56.8 0 0 1 2.324 1.214c1.534.848 3.033 1.741 4.543 2.605 1.511.865 3.015 1.695 4.537 2.509a54.048 54.048 0 0 0 4.613 2.181 32.589 32.589 0 0 0 4.746 1.565l.581.125.302.062.308.051.581.096.581.062.308.034h1.83l.308-.028a8.348 8.348 0 0 0 2.359-.565 7.274 7.274 0 0 0 2.015-1.215 7.479 7.479 0 0 0 2.359-3.571 8.52 8.52 0 0 0 .145-3.911zm-40.19.102c.128.13.25.26.366.396l.366.407.355.423c.11.142.232.283.337.43a8.834 8.834 0 0 1 1.109 1.904c.141.345.244.703.308 1.068.075.372.087.754.035 1.13a2.76 2.76 0 0 1-.366 1.045c-.195.327-.473.6-.807.791a2.532 2.532 0 0 1-1.116.339 2.968 2.968 0 0 1-.581 0h-.145l-.151-.033-.145-.034-.146-.046a4.754 4.754 0 0 1-2.039-1.271 6.003 6.003 0 0 1-1.278-2.068 6.552 6.552 0 0 1-.389-2.413 5.394 5.394 0 0 1 .581-2.362 4.63 4.63 0 0 1 1.47-1.695c.244.181.476.367.709.565a16.73 16.73 0 0 1 1.527 1.424z" fill="url(#h)"/>
        <path d="M206.308 290.547a7.465 7.465 0 0 0 2.283 3.662c.599.51 1.28.92 2.016 1.215a8.422 8.422 0 0 0 2.365.565l.302.028h1.83l.302-.034.581-.062.61-.096c.099 0 .203-.028.302-.051l.302-.062.581-.124c1.622-.4 3.209-.924 4.746-1.566a61.677 61.677 0 0 0 4.613-2.181c1.522-.791 3.027-1.644 4.537-2.508 1.511-.865 3.015-1.758 4.543-2.605a40.241 40.241 0 0 1 2.324-1.215c.389-.192.784-.373 1.162-.531l.302-.119h.064l.081-.028.157-.057.314-.113.302-.101a15.605 15.605 0 0 1 2.515-.611c.423-.066.85-.108 1.279-.124.426-.011.853.006 1.278.051.592.066 1.17.22 1.713.458-.156.135-.319.265-.47.406a19.873 19.873 0 0 0-2.87 3.391 9.535 9.535 0 0 0-1.034 2.079 4.892 4.892 0 0 0-.244 2.373c.07.402.222.786.447 1.13.257.334.592.603.976.786.375.209.794.333 1.226.361.214.023.431.023.645 0h.163l.151-.028.156-.039.157-.046a4.954 4.954 0 0 0 2.167-1.316 6.259 6.259 0 0 0 1.365-2.147 6.852 6.852 0 0 0 .477-2.52 6.044 6.044 0 0 0-.581-2.549 5.147 5.147 0 0 0-1.435-1.797c.685-.49 1.418-.912 2.19-1.26a8.582 8.582 0 0 1 3.486-.791 6.544 6.544 0 0 1 3.085.746c.42.23.81.509 1.161.831.33.304.619.647.86 1.022.431.664.686 1.421.744 2.204.025.338.011.677-.041 1.012-.042.3-.116.595-.221.881a6.172 6.172 0 0 1-.65 1.3 8.105 8.105 0 0 1-.581.729l-.209.237a.058.058 0 0 0-.015.039c0 .015.005.029.015.04.005.005.01.009.017.012a.065.065 0 0 0 .02.004.065.065 0 0 0 .021-.004.066.066 0 0 0 .017-.012l.25-.209c.234-.216.455-.444.662-.684.335-.396.613-.835.825-1.305.157-.295.282-.606.372-.927.088-.37.133-.749.134-1.13a5.11 5.11 0 0 0-.686-2.554 6.073 6.073 0 0 0-.929-1.22 6.166 6.166 0 0 0-1.319-1.006 7.118 7.118 0 0 0-3.486-.944 9.208 9.208 0 0 0-3.91.853c-.924.43-1.79.969-2.579 1.605a6.6 6.6 0 0 0-2.074-.684 9.472 9.472 0 0 0-1.377-.113 12.31 12.31 0 0 0-1.371.074c-.907.115-1.803.304-2.678.565l-.645.192-.157.051h-.081l-.087.028-.32.113c-.43.158-.848.328-1.26.509-.825.361-1.621.751-2.417 1.13-1.569.808-3.108 1.65-4.648 2.48-1.539.831-3.032 1.645-4.543 2.413a61.841 61.841 0 0 1-4.525 2.102 32.372 32.372 0 0 1-4.532 1.52l-.581.124-.58.113-.581.096-.581.068-.279.04h-.273l-.541.034h-1.103a7.266 7.266 0 0 1-2.028-.418 6.264 6.264 0 0 1-1.743-.972 6.482 6.482 0 0 1-2.056-3.102 7.677 7.677 0 0 1 .162-5.058l.076-.186.081-.175c.051-.12.109-.237.175-.351l.098-.175.041-.079.052-.079c.065-.101.134-.199.209-.294a3.469 3.469 0 0 1 1.027-.885 3.55 3.55 0 0 1 1.297-.431 3.796 3.796 0 0 1 1.249.051l.291.079.267.096c.091.034.18.074.267.118l.128.068h.035l.058.034a1.5 1.5 0 0 1 .383.316c.104.122.19.257.256.402.117.267.163.558.134.847-.018.131-.049.26-.093.384l-.035.085-.047.091s-.029.062-.04.079l-.047.068a.797.797 0 0 1-.517.31h-.139a.457.457 0 0 1-.128 0h-.116l-.116-.051a.367.367 0 0 1-.227-.248.358.358 0 0 1 0-.215v-.102h-.029l-.041.074a.45.45 0 0 0 .227.588l.11.056.14.04c.05.005.1.005.151 0h.162a1.01 1.01 0 0 0 .663-.339l.063-.085a.614.614 0 0 0 .059-.085l.052-.085a.71.71 0 0 1 .046-.101c.063-.14.11-.286.14-.435a1.905 1.905 0 0 0-.087-1.006 1.72 1.72 0 0 0-.273-.503 1.961 1.961 0 0 0-.442-.43l-.07-.045-.133-.073c-.087-.045-.169-.096-.273-.142l-.308-.129-.32-.102a4.193 4.193 0 0 0-2.934.26 4.048 4.048 0 0 0-1.341 1.011c-.099.109-.19.224-.274.345l-.063.09-.059.102-.104.169c-.076.113-.145.249-.215.379l-.099.203c-.035.068-.064.136-.093.204a8.292 8.292 0 0 0-.546 1.729 8.446 8.446 0 0 0 .238 3.904zm41.573-5.243c.232-.198.47-.384.709-.565a4.636 4.636 0 0 1 1.475 1.695 5.45 5.45 0 0 1 .581 2.362 6.536 6.536 0 0 1-.395 2.413 5.913 5.913 0 0 1-1.272 2.068 4.79 4.79 0 0 1-2.045 1.271l-.145.045-.146.034-.151.034h-.145a2.968 2.968 0 0 1-.581 0 2.512 2.512 0 0 1-1.109-.339 2.183 2.183 0 0 1-.808-.791 2.605 2.605 0 0 1-.366-1.045 3.382 3.382 0 0 1 .029-1.131c.064-.365.168-.723.308-1.068a8.862 8.862 0 0 1 1.11-1.904c.11-.147.226-.288.337-.429l.36-.424c.116-.141.238-.277.36-.407.122-.13.238-.265.366-.395.48-.511.991-.993 1.528-1.447v.023z" fill="url(#i)"/>
        <path d="m249.083 293.373-.54-2.023a2163.76 2163.76 0 0 1 9.22-8.533 88.745 88.745 0 0 0 8.952-9.498 54.302 54.302 0 0 0 6.785-10.64 27.412 27.412 0 0 0 2.713-12.052c0-4.144-.875-7.346-2.625-9.606a7.985 7.985 0 0 0-2.913-2.506 8.227 8.227 0 0 0-3.78-.885 7.788 7.788 0 0 0-3.3.656 6.792 6.792 0 0 0-2.323 1.695 8.238 8.238 0 0 0-1.401 2.289 8.056 8.056 0 0 0-.581 2.457 10.248 10.248 0 0 1 2.58 3.255 8.25 8.25 0 0 1 1.127 3.786 5.612 5.612 0 0 1-1.534 4.001c-1.026 1.084-2.595 1.627-4.705 1.627a6.39 6.39 0 0 1-2.475-.443 6.243 6.243 0 0 1-2.092-1.36c-1.239-1.201-1.857-3.034-1.853-5.498a14.79 14.79 0 0 1 1.447-6.684 14.117 14.117 0 0 1 3.886-4.837 17.331 17.331 0 0 1 5.746-2.944 23.622 23.622 0 0 1 7.006-1.011 29.525 29.525 0 0 1 7.506.921 17.375 17.375 0 0 1 6.146 2.904 14.057 14.057 0 0 1 4.16 5.086 16.553 16.553 0 0 1 1.551 7.464 19.173 19.173 0 0 1-2.667 10.069 41.5 41.5 0 0 1-6.646 8.312 99.083 99.083 0 0 1-8.545 7.385 79.241 79.241 0 0 0-8.273 7.301h13.559c1.845.024 3.689-.08 5.519-.311a14.29 14.29 0 0 0 3.84-1.051 12.317 12.317 0 0 0 3.166-2.068c.992-.882 2.123-1.997 3.393-3.345l1.267 1.231a223.334 223.334 0 0 0-3.98 7.391 122.516 122.516 0 0 0-3.526 7.465h-35.81z" fill="url(#j)"/>
        <path d="M285.084 293.677h-36.222l-.628-2.395.122-.113c2.952-2.752 6.054-5.651 9.226-8.533a89.779 89.779 0 0 0 8.923-9.47 54.273 54.273 0 0 0 6.71-10.583 27.262 27.262 0 0 0 2.69-11.934c0-4.08-.866-7.261-2.568-9.459a7.736 7.736 0 0 0-2.814-2.413 7.99 7.99 0 0 0-3.646-.859 7.427 7.427 0 0 0-3.172.628 6.547 6.547 0 0 0-2.208 1.644 7.87 7.87 0 0 0-1.353 2.209 7.963 7.963 0 0 0-.581 2.26c1.05.914 1.91 2.015 2.533 3.244a8.503 8.503 0 0 1 1.162 3.916 5.897 5.897 0 0 1-1.615 4.192c-1.075 1.13-2.731 1.695-4.915 1.695a6.671 6.671 0 0 1-2.585-.465 6.55 6.55 0 0 1-2.185-1.422c-1.289-1.249-1.94-3.164-1.94-5.696a15.186 15.186 0 0 1 1.475-6.78 14.441 14.441 0 0 1 3.968-4.933 17.641 17.641 0 0 1 5.839-2.995 24.309 24.309 0 0 1 7.093-1.023 29.85 29.85 0 0 1 7.553.933 17.818 17.818 0 0 1 6.251 2.949 14.515 14.515 0 0 1 4.24 5.159 16.937 16.937 0 0 1 1.569 7.6 19.537 19.537 0 0 1-2.707 10.211 41.768 41.768 0 0 1-6.623 8.34 98.776 98.776 0 0 1-8.569 7.402 80.808 80.808 0 0 0-7.773 6.78h12.88a39.96 39.96 0 0 0 5.478-.305 13.977 13.977 0 0 0 3.759-1.034 12.053 12.053 0 0 0 3.09-2.017c.988-.876 2.126-1.989 3.376-3.322l.203-.221 1.632 1.594-.104.18a225.317 225.317 0 0 0-3.968 7.38 120.68 120.68 0 0 0-3.521 7.459l-.075.197zm-35.775-.565H284.7a111.73 111.73 0 0 1 3.486-7.345 259.236 259.236 0 0 1 3.881-7.21l-.901-.871a46.3 46.3 0 0 1-3.201 3.142 12.78 12.78 0 0 1-3.241 2.113 14.744 14.744 0 0 1-3.922 1.08 41.305 41.305 0 0 1-5.559.31h-14.239l.47-.48a79.97 79.97 0 0 1 8.302-7.345 98.743 98.743 0 0 0 8.517-7.346 41.222 41.222 0 0 0 6.605-8.25 19.001 19.001 0 0 0 2.597-9.916 16.362 16.362 0 0 0-1.511-7.346 13.96 13.96 0 0 0-4.066-4.956 17.33 17.33 0 0 0-6.048-2.853 29.473 29.473 0 0 0-7.43-.91 23.639 23.639 0 0 0-6.919.995 17.014 17.014 0 0 0-5.647 2.898 13.866 13.866 0 0 0-3.811 4.741 14.577 14.577 0 0 0-1.418 6.56c0 2.374.581 4.159 1.772 5.295a5.943 5.943 0 0 0 1.996 1.299 6.063 6.063 0 0 0 2.361.424c2.016 0 3.527-.52 4.491-1.537a5.347 5.347 0 0 0 1.458-3.808 7.953 7.953 0 0 0-1.127-3.628 10.024 10.024 0 0 0-2.504-3.164l-.116-.09v-.147a8.524 8.524 0 0 1 .581-2.549 8.433 8.433 0 0 1 1.447-2.362 7.159 7.159 0 0 1 2.405-1.791 8.036 8.036 0 0 1 3.421-.683 8.541 8.541 0 0 1 3.927.892 8.291 8.291 0 0 1 3.039 2.577c1.778 2.3 2.684 5.594 2.684 9.798a27.8 27.8 0 0 1-2.742 12.171 55 55 0 0 1-6.815 10.696 90.903 90.903 0 0 1-8.981 9.527 1742.861 1742.861 0 0 0-9.098 8.419l.465 1.65z" fill="#FBCF5D"/>
    </g>
    <path d="M300.918 136.765v-30.71h3.828v13.656h16.406v-13.656h3.902v30.71h-3.902v-13.694h-16.406v13.694h-3.828zM330.267 125.384c0-7.226 4.265-11.923 10.573-11.923 6.307 0 10.573 4.733 10.573 11.923 0 7.189-4.266 11.958-10.573 11.958-6.308 0-10.573-4.805-10.573-11.958zm17.463 0c0-4.589-2.187-8.707-6.89-8.707-4.704 0-6.891 4.118-6.891 8.707 0 4.588 2.187 8.635 6.891 8.635 4.703 0 6.89-3.902 6.89-8.635zM356.153 136.764V113.75h3.646v3.613h.255a6.198 6.198 0 0 1 2.391-2.876 6.281 6.281 0 0 1 3.625-.99h1.896v3.613a11.02 11.02 0 0 0-2.224-.253 5.516 5.516 0 0 0-4.092 1.441 5.427 5.427 0 0 0-1.282 1.793 5.362 5.362 0 0 0-.459 2.149v14.452l-3.756.072zM370.702 107.499c.029-.664.32-1.291.811-1.744a2.565 2.565 0 0 1 1.814-.676c.661-.01 1.3.238 1.777.691a2.48 2.48 0 0 1 .775 1.729 2.459 2.459 0 0 1-.205.952 2.511 2.511 0 0 1-2.347 1.505 2.568 2.568 0 0 1-1.826-.689 2.527 2.527 0 0 1-.799-1.768zm.729 29.265V113.75h3.646v23.014h-3.646zM380.322 136.764v-2.746l13.089-16.656v-.252h-12.688v-3.36h17.464v2.89l-12.761 16.547v.253h13.162v3.324h-18.266zM401.835 125.384c0-7.226 4.266-11.923 10.573-11.923s10.573 4.733 10.573 11.923c0 7.189-4.229 11.886-10.573 11.886s-10.573-4.733-10.573-11.886zm17.464 0c0-4.589-2.188-8.707-6.891-8.707-4.703 0-6.891 4.118-6.891 8.707 0 4.588 2.188 8.635 6.891 8.635 4.703 0 6.708-3.902 6.708-8.635h.183zM431.218 136.765h-3.646V113.75h3.646v3.613h.292a6.814 6.814 0 0 1 2.772-3.007 6.91 6.91 0 0 1 4.009-.895c4.74 0 7.875 2.818 7.875 8.671v14.633h-3.646v-14.452a4.973 4.973 0 0 0-1.274-4.074 5.076 5.076 0 0 0-3.976-1.634 5.754 5.754 0 0 0-4.39 1.791 5.634 5.634 0 0 0-1.516 4.459l-.146 13.91zM123.765 119.856l19.469 19.221a27.613 27.613 0 0 0 7.692-19.221 27.72 27.72 0 0 0-7.692-19.257l-19.469 19.257zM122.38 121.156l-19.214 18.968L122.38 148l19.25-7.876-19.25-18.968zM121.686 119.133l19.942-19.618L123.29 92l-18.339 43.717 16.735-16.584zM93.833 119.855a27.9 27.9 0 0 0 7.656 19.185l19.104-45.631-26.76 26.446zM275.325 114.436a7.824 7.824 0 0 0-3.998.859 7.736 7.736 0 0 0-3.002 2.754v-3.288h-3.646v21.931h3.646V122.24a5.235 5.235 0 0 1 .62-1.981 5.327 5.327 0 0 1 3.2-2.545 5.381 5.381 0 0 1 2.086-.171c3.646 0 5.87 2.276 5.87 6.395v12.645h3.645v-13.295a8.238 8.238 0 0 0-.406-3.469 8.293 8.293 0 0 0-1.808-2.997 8.397 8.397 0 0 0-2.89-1.996 8.456 8.456 0 0 0-3.463-.643M254.726 107.607h-3.646v4.444a2.945 2.945 0 0 1-.875 2.059 3.005 3.005 0 0 1-2.078.868h-4.266l-7.072 16.8-7.073-16.8h-3.902l9.042 21.677-2.297 5.528h-4.994v3.288h3.864a5.504 5.504 0 0 0 3.022-.91 5.43 5.43 0 0 0 2.01-2.414l9.953-23.701h4.703v13.079a4.94 4.94 0 0 0 .209 2.112 4.975 4.975 0 0 0 1.077 1.835 5.036 5.036 0 0 0 1.75 1.225 5.076 5.076 0 0 0 2.104.392h5.251v-3.36h-6.636v-15.536h6.636v-3.288h-6.636l-.146-7.298zM223.187 122.421a7.963 7.963 0 0 0-.714-3.331 8.014 8.014 0 0 0-2.043-2.737 8.122 8.122 0 0 0-3.005-1.651 8.182 8.182 0 0 0-3.426-.266 9.237 9.237 0 0 0-6.53 2.254 9.078 9.078 0 0 0-3.095 6.128h3.646a5.837 5.837 0 0 1 1.919-3.7 5.937 5.937 0 0 1 3.915-1.503 4.997 4.997 0 0 1 4.135 1.27 4.906 4.906 0 0 1 1.24 1.826c.269.694.376 1.439.312 2.179v1.446h-5.213c-7.292 0-10.537 2.348-10.537 6.322s3.281 6.612 8.422 6.612a7.35 7.35 0 0 0 4.408-.747 7.254 7.254 0 0 0 3.139-3.155 3.803 3.803 0 0 0 1.386 2.759 3.891 3.891 0 0 0 2.989.854h2.516v-3.288h-3.464v-11.272zm-3.646 7.948c0 2.24-2.771 3.974-6.672 3.974-3.135 0-5.067-1.192-5.067-3.396v-.831c0-2.095 2.005-3.252 6.526-3.252h5.213v3.505zM197.666 106.018h-3.646v25.291a5.01 5.01 0 0 0 1.312 3.948 5.086 5.086 0 0 0 3.865 1.615h1.933v-3.143h-3.464V106.018zM171.672 105.982h-3.792v30.783h3.792v-30.783zM191.287 106.018h-4.558L174.99 117.58a3.019 3.019 0 0 0-.891 1.981 3.02 3.02 0 0 0 .672 2.065l12.25 15.174h4.776l-13.963-17.342 13.453-13.44z" fill="#DFAC27"/>
    <defs>
        <linearGradient id="b" x1="76.696" y1="3.355" x2="624.392" y2="679.85" gradientUnits="userSpaceOnUse">
            <stop stop-color="#353535"/>
            <stop offset=".65" stop-color="#100F0F"/>
            <stop offset="1" stop-color="#020000"/>
        </linearGradient>
        <linearGradient id="c" x1="255517" y1="128695" x2="135898" y2="-33475.1" gradientUnits="userSpaceOnUse">
            <stop stop-color="#353535"/>
            <stop offset=".65" stop-color="#100F0F"/>
            <stop offset="1" stop-color="#020000"/>
        </linearGradient>
        <linearGradient id="d" x1="114967" y1="73793.7" x2="41486.5" y2="-8985.27" gradientUnits="userSpaceOnUse">
            <stop stop-color="#353535"/>
            <stop offset=".65" stop-color="#100F0F"/>
            <stop offset="1" stop-color="#020000"/>
        </linearGradient>
        <linearGradient id="f" x1="269.562" y1="305.448" x2="269.562" y2="216.113" gradientUnits="userSpaceOnUse">
            <stop stop-color="#E9C156"/>
            <stop offset=".04" stop-color="#B28639"/>
            <stop offset=".08" stop-color="#79491C"/>
            <stop offset=".1" stop-color="#633110"/>
            <stop offset=".13" stop-color="#6F3C14"/>
            <stop offset=".18" stop-color="#8D5A1E"/>
            <stop offset=".25" stop-color="#BF8A2E"/>
            <stop offset=".29" stop-color="#E1AB39"/>
            <stop offset=".31" stop-color="#E3B141"/>
            <stop offset=".41" stop-color="#EDCD66"/>
            <stop offset=".52" stop-color="#F5E384"/>
            <stop offset=".62" stop-color="#FBF299"/>
            <stop offset=".72" stop-color="#FEFCA6"/>
            <stop offset=".82" stop-color="#FFA"/>
            <stop offset=".85" stop-color="#FDFAA3"/>
            <stop offset=".9" stop-color="#F8EC90"/>
            <stop offset=".96" stop-color="#F0D571"/>
            <stop offset="1" stop-color="#E9C156"/>
        </linearGradient>
        <linearGradient id="g" x1="-14465.1" y1="31670.3" x2="-14465.1" y2="21472.8" gradientUnits="userSpaceOnUse">
            <stop stop-color="#E9C156"/>
            <stop offset=".04" stop-color="#B28639"/>
            <stop offset=".08" stop-color="#79491C"/>
            <stop offset=".1" stop-color="#633110"/>
            <stop offset=".13" stop-color="#6F3C14"/>
            <stop offset=".18" stop-color="#8D5A1E"/>
            <stop offset=".25" stop-color="#BF8A2E"/>
            <stop offset=".29" stop-color="#E1AB39"/>
            <stop offset=".31" stop-color="#E3B141"/>
            <stop offset=".41" stop-color="#EDCD66"/>
            <stop offset=".52" stop-color="#F5E384"/>
            <stop offset=".62" stop-color="#FBF299"/>
            <stop offset=".72" stop-color="#FEFCA6"/>
            <stop offset=".82" stop-color="#FFA"/>
            <stop offset=".85" stop-color="#FDFAA3"/>
            <stop offset=".9" stop-color="#F8EC90"/>
            <stop offset=".96" stop-color="#F0D571"/>
            <stop offset="1" stop-color="#E9C156"/>
        </linearGradient>
        <linearGradient id="h" x1="-8434.11" y1="6314.44" x2="-1557.03" y2="6314.44" gradientUnits="userSpaceOnUse">
            <stop stop-color="#E9C156"/>
            <stop offset=".04" stop-color="#B28639"/>
            <stop offset=".08" stop-color="#79491C"/>
            <stop offset=".1" stop-color="#633110"/>
            <stop offset=".13" stop-color="#6F3C14"/>
            <stop offset=".18" stop-color="#8D5A1E"/>
            <stop offset=".25" stop-color="#BF8A2E"/>
            <stop offset=".29" stop-color="#E1AB39"/>
            <stop offset=".31" stop-color="#E3B141"/>
            <stop offset=".41" stop-color="#EDCD66"/>
            <stop offset=".52" stop-color="#F5E384"/>
            <stop offset=".62" stop-color="#FBF299"/>
            <stop offset=".72" stop-color="#FEFCA6"/>
            <stop offset=".82" stop-color="#FFA"/>
            <stop offset=".85" stop-color="#FDFAA3"/>
            <stop offset=".9" stop-color="#F8EC90"/>
            <stop offset=".96" stop-color="#F0D571"/>
            <stop offset="1" stop-color="#E9C156"/>
        </linearGradient>
        <linearGradient id="i" x1="62533.1" y1="6359.16" x2="55658.9" y2="6359.16" gradientUnits="userSpaceOnUse">
            <stop stop-color="#E9C156"/>
            <stop offset=".04" stop-color="#B28639"/>
            <stop offset=".08" stop-color="#79491C"/>
            <stop offset=".1" stop-color="#633110"/>
            <stop offset=".13" stop-color="#6F3C14"/>
            <stop offset=".18" stop-color="#8D5A1E"/>
            <stop offset=".25" stop-color="#BF8A2E"/>
            <stop offset=".29" stop-color="#E1AB39"/>
            <stop offset=".31" stop-color="#E3B141"/>
            <stop offset=".41" stop-color="#EDCD66"/>
            <stop offset=".52" stop-color="#F5E384"/>
            <stop offset=".62" stop-color="#FBF299"/>
            <stop offset=".72" stop-color="#FEFCA6"/>
            <stop offset=".82" stop-color="#FFA"/>
            <stop offset=".85" stop-color="#FDFAA3"/>
            <stop offset=".9" stop-color="#F8EC90"/>
            <stop offset=".96" stop-color="#F0D571"/>
            <stop offset="1" stop-color="#E9C156"/>
        </linearGradient>
        <linearGradient id="j" x1="270.471" y1="234.618" x2="270.471" y2="293.373" gradientUnits="userSpaceOnUse">
            <stop stop-color="#F1CC4A"/>
            <stop offset="1" stop-color="#F1CC4A" stop-opacity="0"/>
        </linearGradient>
        <clipPath id="e">
            <path fill="#fff" transform="translate(206 213)" d="M0 0h128v83H0z"/>
        </clipPath>
    </defs>
</svg>
